Interlope.ufo
<glyph name="exclam" format="2">
	<advance width="418"/>
	<unicode hex="0021"/>
	<outline>
		<contour>
			<point x="139" y="139" type="curve" smooth="yes"/>
			<point x="134" y="139"/>
			<point x="131" y="143"/>
			<point x="131" y="149" type="curve" smooth="yes"/>
			<point x="131" y="206"/>
			<point x="627" y="876"/>
			<point x="627" y="894" type="curve" smooth="yes"/>
			<point x="627" y="900"/>
			<point x="625" y="900"/>
			<point x="621" y="900" type="curve" smooth="yes"/>
			<point x="613" y="900"/>
			<point x="600" y="897"/>
			<point x="582" y="897" type="curve" smooth="yes"/>
			<point x="575" y="897"/>
			<point x="564" y="900"/>
			<point x="558" y="900" type="curve" smooth="yes"/>
			<point x="539" y="901"/>
			<point x="473" y="762"/>
			<point x="372" y="611" type="curve" smooth="yes"/>
			<point x="202" y="357"/>
			<point x="90" y="185"/>
			<point x="90" y="145" type="curve" smooth="yes"/>
			<point x="90" y="125"/>
			<point x="105" y="117"/>
			<point x="118" y="117" type="curve" smooth="yes"/>
			<point x="142" y="117"/>
			<point x="159" y="127"/>
			<point x="187" y="164" type="curve"/>
			<point x="182" y="169" type="line"/>
			<point x="160" y="141"/>
			<point x="145" y="139"/>
		</contour>
		<contour>
			<point x="54" y="70" type="curve" smooth="yes"/>
			<point x="19" y="70"/>
			<point x="-11" y="41"/>
			<point x="-11" y="6" type="curve" smooth="yes"/>
			<point x="-11" y="1"/>
			<point x="-9" y="-9"/>
			<point x="-4" y="-11" type="curve" smooth="yes"/>
			<point x="-1" y="-12"/>
			<point x="1" y="-7"/>
			<point x="4" y="-3" type="curve" smooth="yes"/>
			<point x="8" y="4"/>
			<point x="22" y="7"/>
			<point x="24" y="7" type="curve" smooth="yes"/>
			<point x="45" y="7"/>
			<point x="48" y="0"/>
			<point x="67" y="0" type="curve" smooth="yes"/>
			<point x="82" y="0"/>
			<point x="96" y="13"/>
			<point x="96" y="32" type="curve" smooth="yes"/>
			<point x="96" y="51"/>
			<point x="76" y="70"/>
		</contour>
	</outline>
</glyph>
<glyph name="numbersign" format="2">
	<advance width="619"/>
	<unicode hex="0023"/>
	<outline>
		<contour>
			<point x="235" y="408" type="curve"/>
			<point x="219" y="360" type="line"/>
			<point x="253" y="355"/>
			<point x="286" y="351"/>
			<point x="317" y="348" type="curve"/>
			<point x="307" y="294"/>
			<point x="276" y="210"/>
			<point x="235" y="138" type="curve"/>
			<point x="89" y="128"/>
			<point x="18" y="85"/>
			<point x="18" y="33" type="curve" smooth="yes"/>
			<point x="18" y="2"/>
			<point x="47" y="-12"/>
			<point x="80" y="-12" type="curve" smooth="yes"/>
			<point x="140" y="-12"/>
			<point x="199" y="35"/>
			<point x="248" y="100" type="curve"/>
			<point x="291" y="102"/>
			<point x="338" y="100"/>
			<point x="389" y="95" type="curve"/>
			<point x="387" y="79"/>
			<point x="385" y="65"/>
			<point x="385" y="52" type="curve" smooth="yes"/>
			<point x="385" y="8"/>
			<point x="395" y="-12"/>
			<point x="431" y="-12" type="curve" smooth="yes"/>
			<point x="453" y="-12"/>
			<point x="482" y="-9"/>
			<point x="493" y="-4" type="curve"/>
			<point x="493" y="1" type="line"/>
			<point x="464" y="1"/>
			<point x="445" y="19"/>
			<point x="443" y="89" type="curve"/>
			<point x="471" y="85"/>
			<point x="500" y="80"/>
			<point x="528" y="74" type="curve"/>
			<point x="544" y="122" type="line"/>
			<point x="510" y="127"/>
			<point x="477" y="131"/>
			<point x="446" y="134" type="curve"/>
			<point x="456" y="189"/>
			<point x="487" y="273"/>
			<point x="528" y="344" type="curve"/>
			<point x="674" y="354"/>
			<point x="745" y="397"/>
			<point x="745" y="449" type="curve" smooth="yes"/>
			<point x="745" y="480"/>
			<point x="716" y="494"/>
			<point x="683" y="494" type="curve" smooth="yes"/>
			<point x="623" y="494"/>
			<point x="564" y="447"/>
			<point x="516" y="382" type="curve"/>
			<point x="472" y="381"/>
			<point x="425" y="382"/>
			<point x="374" y="387" type="curve"/>
			<point x="377" y="403"/>
			<point x="378" y="418"/>
			<point x="378" y="431" type="curve" smooth="yes"/>
			<point x="378" y="474"/>
			<point x="369" y="494"/>
			<point x="333" y="494" type="curve" smooth="yes"/>
			<point x="310" y="494"/>
			<point x="282" y="492"/>
			<point x="270" y="487" type="curve"/>
			<point x="270" y="481" type="line"/>
			<point x="300" y="481"/>
			<point x="318" y="464"/>
			<point x="320" y="393" type="curve"/>
			<point x="292" y="397"/>
			<point x="264" y="402"/>
		</contour>
		<contour>
			<point x="55" y="30" type="curve" smooth="yes"/>
			<point x="55" y="65"/>
			<point x="117" y="89"/>
			<point x="210" y="98" type="curve"/>
			<point x="173" y="44"/>
			<point x="130" y="5"/>
			<point x="86" y="5" type="curve" smooth="yes"/>
			<point x="67" y="5"/>
			<point x="55" y="17"/>
		</contour>
		<contour>
			<point x="276" y="140" type="curve"/>
			<point x="317" y="205"/>
			<point x="348" y="280"/>
			<point x="365" y="345" type="curve"/>
			<point x="410" y="341"/>
			<point x="451" y="341"/>
			<point x="487" y="342" type="curve"/>
			<point x="446" y="277"/>
			<point x="415" y="202"/>
			<point x="398" y="138" type="curve"/>
			<point x="354" y="141"/>
			<point x="312" y="142"/>
		</contour>
		<contour>
			<point x="553" y="384" type="curve"/>
			<point x="590" y="438"/>
			<point x="634" y="477"/>
			<point x="677" y="477" type="curve" smooth="yes"/>
			<point x="696" y="477"/>
			<point x="708" y="465"/>
			<point x="708" y="453" type="curve" smooth="yes"/>
			<point x="708" y="418"/>
			<point x="647" y="393"/>
		</contour>
	</outline>
</glyph>
<glyph name="dollar" format="2">
	<advance width="521"/>
	<unicode hex="0024"/>
	<outline>
		<contour>
			<point x="484" y="492" type="curve"/>
			<point x="489" y="483" type="line"/>
			<point x="559" y="527"/>
			<point x="611" y="580"/>
			<point x="611" y="640" type="curve" smooth="yes"/>
			<point x="611" y="683"/>
			<point x="582" y="716"/>
			<point x="526" y="728" type="curve"/>
			<point x="542" y="765"/>
			<point x="557" y="801"/>
			<point x="571" y="837" type="curve"/>
			<point x="541" y="842" type="line"/>
			<point x="531" y="811"/>
			<point x="518" y="774"/>
			<point x="502" y="731" type="curve"/>
			<point x="485" y="732" type="line" smooth="yes"/>
			<point x="480" y="732"/>
			<point x="476" y="732"/>
			<point x="471" y="731" type="curve"/>
			<point x="510" y="830" type="line"/>
			<point x="485" y="835" type="line"/>
			<point x="475" y="806"/>
			<point x="462" y="770"/>
			<point x="446" y="729" type="curve"/>
			<point x="315" y="716"/>
			<point x="211" y="631"/>
			<point x="211" y="513" type="curve" smooth="yes"/>
			<point x="211" y="449"/>
			<point x="246" y="402"/>
			<point x="287" y="358" type="curve"/>
			<point x="228" y="221"/>
			<point x="185" y="125"/>
			<point x="139" y="25" type="curve"/>
			<point x="84" y="49"/>
			<point x="58" y="97"/>
			<point x="58" y="145" type="curve" smooth="yes"/>
			<point x="58" y="215"/>
			<point x="112" y="271"/>
			<point x="132" y="282" type="curve"/>
			<point x="125" y="294" type="line"/>
			<point x="72" y="264"/>
			<point x="18" y="199"/>
			<point x="18" y="130" type="curve" smooth="yes"/>
			<point x="18" y="69"/>
			<point x="53" y="19"/>
			<point x="127" y="-2" type="curve"/>
			<point x="77" y="-109" type="line"/>
			<point x="108" y="-115" type="line"/>
			<point x="121" y="-83"/>
			<point x="135" y="-47"/>
			<point x="152" y="-7" type="curve"/>
			<point x="163" y="-9"/>
			<point x="174" y="-10"/>
			<point x="187" y="-11" type="curve"/>
			<point x="146" y="-106" type="line"/>
			<point x="173" y="-111" type="line"/>
			<point x="184" y="-81"/>
			<point x="197" y="-48"/>
			<point x="212" y="-12" type="curve"/>
			<point x="369" y="-9"/>
			<point x="478" y="114"/>
			<point x="478" y="215" type="curve" smooth="yes"/>
			<point x="478" y="291"/>
			<point x="429" y="338"/>
			<point x="380" y="385" type="curve"/>
			<point x="431" y="504"/>
			<point x="475" y="606"/>
			<point x="515" y="700" type="curve"/>
			<point x="549" y="683"/>
			<point x="561" y="652"/>
			<point x="561" y="624" type="curve" smooth="yes"/>
			<point x="561" y="567"/>
			<point x="531" y="527"/>
		</contour>
		<contour>
			<point x="162" y="17" type="curve"/>
			<point x="203" y="116"/>
			<point x="252" y="230"/>
			<point x="303" y="341" type="curve"/>
			<point x="326" y="317" type="line"/>
			<point x="274" y="196"/>
			<point x="237" y="108"/>
			<point x="196" y="11" type="curve"/>
			<point x="184" y="12"/>
			<point x="172" y="14"/>
		</contour>
		<contour>
			<point x="220" y="9" type="curve"/>
			<point x="258" y="100"/>
			<point x="302" y="203"/>
			<point x="343" y="298" type="curve"/>
			<point x="379" y="259"/>
			<point x="407" y="217"/>
			<point x="408" y="163" type="curve" smooth="yes"/>
			<point x="408" y="76"/>
			<point x="325" y="13"/>
			<point x="234" y="9" type="curve" smooth="yes"/>
			<point x="230" y="9"/>
			<point x="225" y="9"/>
		</contour>
		<contour>
			<point x="285" y="553" type="curve" smooth="yes"/>
			<point x="285" y="647"/>
			<point x="359" y="705"/>
			<point x="438" y="711" type="curve"/>
			<point x="410" y="639"/>
			<point x="371" y="549"/>
			<point x="325" y="445" type="curve"/>
			<point x="302" y="475"/>
			<point x="285" y="509"/>
		</contour>
		<contour>
			<point x="342" y="425" type="curve"/>
			<point x="388" y="526"/>
			<point x="428" y="622"/>
			<point x="464" y="712" type="curve"/>
			<point x="474" y="711"/>
			<point x="484" y="710"/>
			<point x="492" y="708" type="curve"/>
			<point x="460" y="626"/>
			<point x="416" y="524"/>
			<point x="363" y="402" type="curve"/>
			<point x="356" y="410"/>
			<point x="348" y="417"/>
		</contour>
	</outline>
</glyph>
<glyph name="percent" format="2">
	<advance width="912"/>
	<unicode hex="0025"/>
	<outline>
		<contour>
			<point x="553" y="881" type="line"/>
			<point x="537" y="895"/>
			<point x="508" y="912"/>
			<point x="460" y="912" type="curve" smooth="yes"/>
			<point x="330" y="912"/>
			<point x="216" y="788"/>
			<point x="216" y="676" type="curve" smooth="yes"/>
			<point x="216" y="603"/>
			<point x="262" y="554"/>
			<point x="334" y="554" type="curve" smooth="yes"/>
			<point x="387" y="554"/>
			<point x="447" y="581"/>
			<point x="492" y="624" type="curve"/>
			<point x="587" y="635"/>
			<point x="698" y="706"/>
			<point x="826" y="835" type="curve"/>
			<point x="829" y="833" type="line"/>
			<point x="578" y="480"/>
			<point x="217" y="22"/>
			<point x="217" y="3" type="curve" smooth="yes"/>
			<point x="217" y="-9"/>
			<point x="235" y="2"/>
			<point x="249" y="2" type="curve" smooth="yes"/>
			<point x="258" y="2"/>
			<point x="272" y="-5"/>
			<point x="278" y="4" type="curve" smooth="yes"/>
			<point x="692" y="598"/>
			<point x="912" y="891"/>
			<point x="912" y="900" type="curve" smooth="yes"/>
			<point x="912" y="906"/>
			<point x="888" y="899"/>
			<point x="882" y="899" type="curve" smooth="yes"/>
			<point x="879" y="899"/>
			<point x="875" y="903"/>
			<point x="873" y="902" type="curve" smooth="yes"/>
			<point x="860" y="897"/>
			<point x="683" y="696"/>
			<point x="530" y="669" type="curve"/>
			<point x="549" y="698"/>
			<point x="560" y="731"/>
			<point x="560" y="766" type="curve" smooth="yes"/>
			<point x="560" y="816"/>
			<point x="529" y="861"/>
			<point x="464" y="861" type="curve" smooth="yes"/>
			<point x="394" y="861"/>
			<point x="341" y="804"/>
			<point x="341" y="734" type="curve" smooth="yes"/>
			<point x="341" y="665"/>
			<point x="397" y="629"/>
			<point x="453" y="624" type="curve"/>
			<point x="428" y="611"/>
			<point x="402" y="603"/>
			<point x="377" y="603" type="curve" smooth="yes"/>
			<point x="311" y="603"/>
			<point x="270" y="644"/>
			<point x="270" y="713" type="curve" smooth="yes"/>
			<point x="270" y="800"/>
			<point x="350" y="899"/>
			<point x="465" y="899" type="curve" smooth="yes"/>
			<point x="507" y="899"/>
			<point x="533" y="885"/>
			<point x="546" y="874" type="curve"/>
		</contour>
		<contour>
			<point x="383" y="761" type="curve" smooth="yes"/>
			<point x="383" y="806"/>
			<point x="416" y="850"/>
			<point x="469" y="850" type="curve" smooth="yes"/>
			<point x="514" y="850"/>
			<point x="548" y="816"/>
			<point x="548" y="766" type="curve" smooth="yes"/>
			<point x="548" y="727"/>
			<point x="532" y="693"/>
			<point x="508" y="666" type="curve"/>
			<point x="498" y="666" type="line" smooth="yes"/>
			<point x="421" y="666"/>
			<point x="383" y="708"/>
		</contour>
		<contour>
			<point x="503" y="106" type="curve" smooth="yes"/>
			<point x="503" y="27"/>
			<point x="559" y="-12"/>
			<point x="617" y="-12" type="curve" smooth="yes"/>
			<point x="712" y="-12"/>
			<point x="814" y="74"/>
			<point x="834" y="173" type="curve"/>
			<point x="852" y="186"/>
			<point x="869" y="204"/>
			<point x="886" y="224" type="curve"/>
			<point x="881" y="228" type="line"/>
			<point x="869" y="215"/>
			<point x="854" y="202"/>
			<point x="837" y="192" type="curve"/>
			<point x="838" y="197"/>
			<point x="838" y="203"/>
			<point x="838" y="209" type="curve" smooth="yes"/>
			<point x="838" y="272"/>
			<point x="796" y="304"/>
			<point x="753" y="302" type="curve" smooth="yes"/>
			<point x="709" y="301"/>
			<point x="664" y="268"/>
			<point x="664" y="216" type="curve" smooth="yes"/>
			<point x="664" y="177"/>
			<point x="701" y="142"/>
			<point x="749" y="142" type="curve" smooth="yes"/>
			<point x="776" y="142"/>
			<point x="800" y="150"/>
			<point x="820" y="163" type="curve"/>
			<point x="800" y="91"/>
			<point x="732" y="30"/>
			<point x="659" y="30" type="curve" smooth="yes"/>
			<point x="597" y="30"/>
			<point x="564" y="72"/>
			<point x="564" y="132" type="curve" smooth="yes"/>
			<point x="564" y="243"/>
			<point x="671" y="330"/>
			<point x="743" y="330" type="curve" smooth="yes"/>
			<point x="782" y="330"/>
			<point x="799" y="321"/>
			<point x="816" y="309" type="curve"/>
			<point x="822" y="315" type="line"/>
			<point x="801" y="330"/>
			<point x="783" y="339"/>
			<point x="743" y="339" type="curve" smooth="yes"/>
			<point x="640" y="339"/>
			<point x="503" y="223"/>
		</contour>
		<contour>
			<point x="708" y="229" type="curve" smooth="yes"/>
			<point x="708" y="261"/>
			<point x="728" y="284"/>
			<point x="762" y="285" type="curve" smooth="yes"/>
			<point x="793" y="286"/>
			<point x="827" y="260"/>
			<point x="827" y="207" type="curve" smooth="yes"/>
			<point x="827" y="199"/>
			<point x="826" y="192"/>
			<point x="825" y="185" type="curve"/>
			<point x="811" y="178"/>
			<point x="795" y="174"/>
			<point x="779" y="174" type="curve" smooth="yes"/>
			<point x="738" y="174"/>
			<point x="708" y="192"/>
		</contour>
	</outline>
</glyph>
<glyph name="ampersand" format="2">
	<advance width="844"/>
	<unicode hex="0026"/>
	<outline>
		<contour>
			<point x="643" y="597" type="curve"/>
			<point x="648" y="588" type="line"/>
			<point x="623" y="581"/>
			<point x="597" y="561"/>
			<point x="597" y="535" type="curve" smooth="yes"/>
			<point x="597" y="515"/>
			<point x="615" y="487"/>
			<point x="670" y="487" type="curve" smooth="yes"/>
			<point x="738" y="489"/>
			<point x="783" y="554"/>
			<point x="783" y="603" type="curve" smooth="yes"/>
			<point x="782" y="672"/>
			<point x="711" y="718"/>
			<point x="610" y="718" type="curve" smooth="yes"/>
			<point x="439" y="718"/>
			<point x="338" y="617"/>
			<point x="338" y="520" type="curve" smooth="yes"/>
			<point x="338" y="503"/>
			<point x="341" y="489"/>
			<point x="346" y="477" type="curve"/>
			<point x="368" y="480"/>
			<point x="390" y="482"/>
			<point x="411" y="482" type="curve" smooth="yes"/>
			<point x="487" y="482"/>
			<point x="525" y="459"/>
			<point x="525" y="431" type="curve" smooth="yes"/>
			<point x="525" y="410"/>
			<point x="507" y="390"/>
			<point x="448" y="390" type="curve" smooth="yes"/>
			<point x="407" y="390"/>
			<point x="350" y="405"/>
			<point x="313" y="438" type="curve"/>
			<point x="182" y="394"/>
			<point x="86" y="284"/>
			<point x="86" y="157" type="curve" smooth="yes"/>
			<point x="86" y="68"/>
			<point x="150" y="8"/>
			<point x="297" y="8" type="curve" smooth="yes"/>
			<point x="460" y="8"/>
			<point x="571" y="96"/>
			<point x="595" y="174" type="curve"/>
			<point x="542" y="181"/>
			<point x="495" y="198"/>
			<point x="454" y="214" type="curve"/>
			<point x="411" y="188"/>
			<point x="363" y="159"/>
			<point x="308" y="159" type="curve" smooth="yes"/>
			<point x="269" y="159"/>
			<point x="240" y="176"/>
			<point x="240" y="203" type="curve" smooth="yes"/>
			<point x="240" y="244"/>
			<point x="281" y="264"/>
			<point x="327" y="264" type="curve" smooth="yes"/>
			<point x="366" y="264"/>
			<point x="409" y="246"/>
			<point x="458" y="228" type="curve"/>
			<point x="498" y="254"/>
			<point x="539" y="281"/>
			<point x="589" y="281" type="curve" smooth="yes"/>
			<point x="634" y="281"/>
			<point x="669" y="254"/>
			<point x="669" y="217" type="curve" smooth="yes"/>
			<point x="669" y="209"/>
			<point x="667" y="200"/>
			<point x="665" y="191" type="curve"/>
			<point x="753" y="200"/>
			<point x="821" y="253"/>
			<point x="821" y="325" type="curve" smooth="yes"/>
			<point x="821" y="372"/>
			<point x="793" y="402"/>
			<point x="752" y="402" type="curve" smooth="yes"/>
			<point x="722" y="402"/>
			<point x="696" y="383"/>
			<point x="696" y="355" type="curve" smooth="yes"/>
			<point x="696" y="330"/>
			<point x="717" y="318"/>
			<point x="747" y="325" type="curve"/>
			<point x="750" y="318" type="line"/>
			<point x="700" y="303"/>
			<point x="665" y="318"/>
			<point x="665" y="352" type="curve" smooth="yes"/>
			<point x="665" y="377"/>
			<point x="691" y="411"/>
			<point x="755" y="411" type="curve" smooth="yes"/>
			<point x="804" y="411"/>
			<point x="873" y="384"/>
			<point x="873" y="321" type="curve" smooth="yes"/>
			<point x="873" y="243"/>
			<point x="784" y="176"/>
			<point x="656" y="171" type="curve"/>
			<point x="613" y="88"/>
			<point x="461" y="-12"/>
			<point x="261" y="-12" type="curve" smooth="yes"/>
			<point x="78" y="-12"/>
			<point x="-11" y="47"/>
			<point x="-11" y="154" type="curve" smooth="yes"/>
			<point x="-11" y="304"/>
			<point x="136" y="423"/>
			<point x="292" y="465" type="curve"/>
			<point x="282" y="481"/>
			<point x="276" y="499"/>
			<point x="276" y="521" type="curve" smooth="yes"/>
			<point x="276" y="631"/>
			<point x="410" y="732"/>
			<point x="619" y="730" type="curve" smooth="yes"/>
			<point x="757" y="729"/>
			<point x="845" y="670"/>
			<point x="845" y="599" type="curve" smooth="yes"/>
			<point x="845" y="524"/>
			<point x="750" y="474"/>
			<point x="656" y="474" type="curve" smooth="yes"/>
			<point x="608" y="474"/>
			<point x="566" y="490"/>
			<point x="566" y="526" type="curve" smooth="yes"/>
			<point x="566" y="552"/>
			<point x="593" y="583"/>
		</contour>
		<contour>
			<point x="292" y="212" type="curve" smooth="yes"/>
			<point x="292" y="195"/>
			<point x="307" y="180"/>
			<point x="339" y="180" type="curve" smooth="yes"/>
			<point x="377" y="180"/>
			<point x="410" y="197"/>
			<point x="442" y="218" type="curve"/>
			<point x="403" y="233"/>
			<point x="370" y="245"/>
			<point x="343" y="245" type="curve" smooth="yes"/>
			<point x="305" y="245"/>
			<point x="292" y="229"/>
		</contour>
		<contour>
			<point x="359" y="451" type="curve"/>
			<point x="385" y="416"/>
			<point x="430" y="403"/>
			<point x="467" y="403" type="curve" smooth="yes"/>
			<point x="497" y="403"/>
			<point x="507" y="417"/>
			<point x="507" y="429" type="curve" smooth="yes"/>
			<point x="507" y="447"/>
			<point x="482" y="459"/>
			<point x="443" y="459" type="curve" smooth="yes"/>
			<point x="414" y="459"/>
			<point x="386" y="456"/>
		</contour>
		<contour>
			<point x="470" y="223" type="curve"/>
			<point x="509" y="210"/>
			<point x="552" y="196"/>
			<point x="599" y="192" type="curve"/>
			<point x="600" y="196"/>
			<point x="600" y="201"/>
			<point x="600" y="205" type="curve" smooth="yes"/>
			<point x="600" y="236"/>
			<point x="582" y="254"/>
			<point x="549" y="254" type="curve" smooth="yes"/>
			<point x="525" y="254"/>
			<point x="499" y="240"/>
		</contour>
	</outline>
</glyph>
<glyph name="quotesingle" format="2">
	<advance width="29"/>
	<unicode hex="0027"/>
	<outline>
		<contour>
			<point x="88" y="543" type="curve" smooth="yes"/>
			<point x="149" y="543"/>
			<point x="244" y="653"/>
			<point x="245" y="703" type="curve" smooth="yes"/>
			<point x="245" y="719"/>
			<point x="235" y="732"/>
			<point x="220" y="732" type="curve" smooth="yes"/>
			<point x="207" y="732"/>
			<point x="189" y="725"/>
			<point x="189" y="703" type="curve" smooth="yes"/>
			<point x="189" y="697"/>
			<point x="190" y="690"/>
			<point x="190" y="684" type="curve" smooth="yes"/>
			<point x="190" y="669"/>
			<point x="186" y="649"/>
			<point x="165" y="614" type="curve" smooth="yes"/>
			<point x="127" y="553"/>
			<point x="79" y="550"/>
			<point x="81" y="546" type="curve" smooth="yes"/>
			<point x="81" y="544"/>
			<point x="83" y="543"/>
			<point x="86" y="543" type="curve" smooth="yes"/>
			<point x="86" y="543"/>
			<point x="87" y="543"/>
		</contour>
	</outline>
</glyph>
<glyph name="parenleft" format="2">
	<advance width="305"/>
	<unicode hex="0028"/>
	<outline>
		<contour>
			<point x="422" y="900" type="line"/>
			<point x="197" y="770"/>
			<point x="0" y="494"/>
			<point x="0" y="194" type="curve" smooth="yes"/>
			<point x="0" y="-4"/>
			<point x="59" y="-98"/>
			<point x="117" y="-179" type="curve"/>
			<point x="131" y="-163" type="line"/>
			<point x="80" y="-68"/>
			<point x="50" y="9"/>
			<point x="50" y="189" type="curve" smooth="yes"/>
			<point x="50" y="481"/>
			<point x="253" y="787"/>
			<point x="431" y="888" type="curve"/>
		</contour>
	</outline>
</glyph>
<glyph name="parenright" format="2">
	<advance width="395"/>
	<unicode hex="0029"/>
	<outline>
		<contour>
			<point x="-27" y="-179" type="line"/>
			<point x="199" y="-49"/>
			<point x="395" y="227"/>
			<point x="395" y="526" type="curve" smooth="yes"/>
			<point x="395" y="724"/>
			<point x="336" y="819"/>
			<point x="278" y="900" type="curve"/>
			<point x="264" y="884" type="line"/>
			<point x="315" y="788"/>
			<point x="346" y="712"/>
			<point x="346" y="531" type="curve" smooth="yes"/>
			<point x="346" y="240"/>
			<point x="142" y="-66"/>
			<point x="-36" y="-167" type="curve"/>
		</contour>
	</outline>
</glyph>
<glyph name="asterisk" format="2">
	<advance width="360"/>
	<unicode hex="002A"/>
	<outline>
		<contour>
			<point x="337" y="712" type="curve"/>
			<point x="336" y="715"/>
			<point x="332" y="716"/>
			<point x="330" y="714" type="curve" smooth="yes"/>
			<point x="326" y="712"/>
			<point x="347" y="683"/>
			<point x="330" y="626" type="curve"/>
			<point x="288" y="681"/>
			<point x="230" y="724"/>
			<point x="218" y="690" type="curve"/>
			<point x="215" y="680"/>
			<point x="217" y="662"/>
			<point x="230" y="657" type="curve" smooth="yes"/>
			<point x="251" y="652"/>
			<point x="276" y="647"/>
			<point x="314" y="611" type="curve"/>
			<point x="256" y="595"/>
			<point x="230" y="606"/>
			<point x="207" y="611" type="curve"/>
			<point x="194" y="616"/>
			<point x="184" y="600"/>
			<point x="181" y="589" type="curve" smooth="yes"/>
			<point x="174" y="554"/>
			<point x="250" y="562"/>
			<point x="316" y="589" type="curve"/>
			<point x="297" y="548"/>
			<point x="276" y="534"/>
			<point x="261" y="521" type="curve" smooth="yes"/>
			<point x="251" y="513"/>
			<point x="256" y="495"/>
			<point x="264" y="487" type="curve" smooth="yes"/>
			<point x="287" y="462"/>
			<point x="321" y="519"/>
			<point x="339" y="583" type="curve"/>
			<point x="372" y="539"/>
			<point x="366" y="508"/>
			<point x="369" y="508" type="curve" smooth="yes"/>
			<point x="372" y="507"/>
			<point x="374" y="509"/>
			<point x="375" y="513" type="curve" smooth="yes"/>
			<point x="382" y="535"/>
			<point x="369" y="570"/>
			<point x="346" y="603" type="curve"/>
			<point x="378" y="620"/>
			<point x="402" y="640"/>
			<point x="407" y="660" type="curve"/>
			<point x="408" y="664"/>
			<point x="407" y="667"/>
			<point x="404" y="667" type="curve"/>
			<point x="401" y="668"/>
			<point x="391" y="642"/>
			<point x="348" y="622" type="curve"/>
			<point x="354" y="660"/>
			<point x="352" y="696"/>
		</contour>
	</outline>
</glyph>
<glyph name="plus" format="2">
	<advance width="420"/>
	<unicode hex="002B"/>
	<outline>
		<contour>
			<point x="266" y="354" type="curve" smooth="yes"/>
			<point x="259" y="352"/>
			<point x="206" y="272"/>
			<point x="177" y="175" type="curve"/>
			<point x="118" y="179"/>
			<point x="54" y="205"/>
			<point x="49" y="205" type="curve" smooth="yes"/>
			<point x="45" y="205"/>
			<point x="44" y="203"/>
			<point x="41" y="200" type="curve" smooth="yes"/>
			<point x="39" y="198"/>
			<point x="34" y="197"/>
			<point x="37" y="192" type="curve" smooth="yes"/>
			<point x="40" y="187"/>
			<point x="109" y="148"/>
			<point x="168" y="140" type="curve"/>
			<point x="162" y="114"/>
			<point x="158" y="86"/>
			<point x="158" y="60" type="curve" smooth="yes"/>
			<point x="158" y="49"/>
			<point x="158" y="-1"/>
			<point x="169" y="-1" type="curve" smooth="yes"/>
			<point x="174" y="-1"/>
			<point x="176" y="1"/>
			<point x="181" y="1" type="curve" smooth="yes"/>
			<point x="185" y="1"/>
			<point x="186" y="-1"/>
			<point x="190" y="0" type="curve" smooth="yes"/>
			<point x="194" y="1"/>
			<point x="193" y="58"/>
			<point x="216" y="140" type="curve"/>
			<point x="278" y="147"/>
			<point x="344" y="173"/>
			<point x="402" y="204" type="curve"/>
			<point x="400" y="210" type="line"/>
			<point x="341" y="189"/>
			<point x="283" y="179"/>
			<point x="228" y="176" type="curve"/>
			<point x="268" y="289"/>
			<point x="316" y="330"/>
			<point x="316" y="350" type="curve" smooth="yes"/>
			<point x="316" y="357"/>
			<point x="309" y="360"/>
			<point x="303" y="360" type="curve" smooth="yes"/>
			<point x="295" y="360"/>
			<point x="287" y="355"/>
			<point x="282" y="355" type="curve" smooth="yes"/>
			<point x="276" y="355"/>
			<point x="270" y="356"/>
		</contour>
	</outline>
</glyph>
<glyph name="comma" format="2">
	<advance width="109"/>
	<unicode hex="002C"/>
	<outline>
		<contour>
			<point x="-104" y="-109" type="curve" smooth="yes"/>
			<point x="-44" y="-142"/>
			<point x="154" y="-17"/>
			<point x="100" y="12" type="curve" smooth="yes"/>
			<point x="90" y="19"/>
			<point x="72" y="20"/>
			<point x="66" y="7" type="curve" smooth="yes"/>
			<point x="55" y="-12"/>
			<point x="45" y="-40"/>
			<point x="-6" y="-73" type="curve" smooth="yes"/>
			<point x="-67" y="-115"/>
			<point x="-106" y="-99"/>
			<point x="-107" y="-102" type="curve" smooth="yes"/>
			<point x="-109" y="-104"/>
			<point x="-107" y="-107"/>
		</contour>
	</outline>
</glyph>
<glyph name="hyphen" format="2">
	<advance width="413"/>
	<unicode hex="002D"/>
	<outline>
		<contour>
			<point x="66" y="217" type="curve" smooth="yes"/>
			<point x="68" y="210"/>
			<point x="74" y="206"/>
			<point x="78" y="206" type="curve" smooth="yes"/>
			<point x="84" y="206"/>
			<point x="89" y="215"/>
			<point x="120" y="215" type="curve" smooth="yes"/>
			<point x="165" y="215"/>
			<point x="212" y="193"/>
			<point x="293" y="193" type="curve" smooth="yes"/>
			<point x="312" y="193"/>
			<point x="341" y="193"/>
			<point x="341" y="202" type="curve" smooth="yes"/>
			<point x="341" y="209"/>
			<point x="334" y="210"/>
			<point x="334" y="234" type="curve" smooth="yes"/>
			<point x="334" y="238"/>
			<point x="330" y="238"/>
			<point x="328" y="238" type="curve" smooth="yes"/>
			<point x="326" y="238"/>
			<point x="264" y="225"/>
			<point x="233" y="225" type="curve" smooth="yes"/>
			<point x="177" y="225"/>
			<point x="144" y="235"/>
			<point x="109" y="235" type="curve" smooth="yes"/>
			<point x="89" y="235"/>
			<point x="63" y="228"/>
		</contour>
	</outline>
</glyph>
<glyph name="period" format="2">
	<advance width="227"/>
	<unicode hex="002E"/>
	<outline>
		<contour>
			<point x="105" y="0" type="curve" smooth="yes"/>
			<point x="142" y="0"/>
			<point x="173" y="30"/>
			<point x="173" y="57" type="curve" smooth="yes"/>
			<point x="173" y="75"/>
			<point x="171" y="84"/>
			<point x="166" y="86" type="curve" smooth="yes"/>
			<point x="163" y="88"/>
			<point x="159" y="82"/>
			<point x="156" y="75" type="curve" smooth="yes"/>
			<point x="151" y="63"/>
			<point x="138" y="58"/>
			<point x="126" y="58" type="curve" smooth="yes"/>
			<point x="107" y="58"/>
			<point x="94" y="63"/>
			<point x="82" y="63" type="curve" smooth="yes"/>
			<point x="73" y="63"/>
			<point x="65" y="58"/>
			<point x="62" y="40" type="curve" smooth="yes"/>
			<point x="58" y="19"/>
			<point x="82" y="0"/>
		</contour>
	</outline>
</glyph>
<glyph name="slash" format="2">
	<advance width="381"/>
	<unicode hex="002F"/>
	<outline>
		<contour>
			<point x="19" y="-180" type="curve"/>
			<point x="22" y="-181"/>
			<point x="28" y="-179"/>
			<point x="32" y="-179" type="curve" smooth="yes"/>
			<point x="37" y="-179"/>
			<point x="38" y="-181"/>
			<point x="42" y="-181" type="curve" smooth="yes"/>
			<point x="57" y="-181"/>
			<point x="332" y="383"/>
			<point x="449" y="618" type="curve" smooth="yes"/>
			<point x="533" y="785"/>
			<point x="584" y="892"/>
			<point x="579" y="899" type="curve" smooth="yes"/>
			<point x="577" y="901"/>
			<point x="570" y="899"/>
			<point x="567" y="899" type="curve" smooth="yes"/>
			<point x="562" y="899"/>
			<point x="557" y="902"/>
			<point x="550" y="900" type="curve" smooth="yes"/>
			<point x="542" y="897"/>
			<point x="442" y="703"/>
			<point x="354" y="525" type="curve" smooth="yes"/>
			<point x="277" y="372"/>
			<point x="147" y="105"/>
			<point x="104" y="16" type="curve" smooth="yes"/>
			<point x="58" y="-79"/>
			<point x="9" y="-177"/>
		</contour>
	</outline>
</glyph>
<glyph name="zero" format="2">
	<advance width="553"/>
	<unicode hex="0030"/>
	<outline>
		<contour>
			<point x="482" y="323" type="curve"/>
			<point x="495" y="317" type="line"/>
			<point x="588" y="478"/>
			<point x="650" y="649"/>
			<point x="650" y="772" type="curve" smooth="yes"/>
			<point x="650" y="842"/>
			<point x="612" y="910"/>
			<point x="528" y="910" type="curve" smooth="yes"/>
			<point x="341" y="910"/>
			<point x="-14" y="417"/>
			<point x="1" y="138" type="curve" smooth="yes"/>
			<point x="5" y="46"/>
			<point x="60" y="-12"/>
			<point x="151" y="-12" type="curve" smooth="yes"/>
			<point x="400" y="-12"/>
			<point x="684" y="433"/>
			<point x="697" y="788" type="curve"/>
			<point x="680" y="789" type="line"/>
			<point x="665" y="489"/>
			<point x="431" y="58"/>
			<point x="198" y="58" type="curve" smooth="yes"/>
			<point x="120" y="58"/>
			<point x="68" y="93"/>
			<point x="68" y="202" type="curve" smooth="yes"/>
			<point x="68" y="421"/>
			<point x="289" y="825"/>
			<point x="495" y="825" type="curve" smooth="yes"/>
			<point x="565" y="825"/>
			<point x="596" y="771"/>
			<point x="596" y="701" type="curve" smooth="yes"/>
			<point x="596" y="622"/>
			<point x="571" y="489"/>
		</contour>
	</outline>
</glyph>
<glyph name="one" format="2">
	<advance width="454"/>
	<unicode hex="0031"/>
	<outline>
		<contour>
			<point x="271" y="14" type="curve" smooth="yes"/>
			<point x="301" y="14"/>
			<point x="325" y="27"/>
			<point x="345" y="53" type="curve"/>
			<point x="354" y="47" type="line"/>
			<point x="328" y="7"/>
			<point x="289" y="-12"/>
			<point x="239" y="-12" type="curve" smooth="yes"/>
			<point x="180" y="-12"/>
			<point x="132" y="18"/>
			<point x="132" y="87" type="curve" smooth="yes"/>
			<point x="132" y="209"/>
			<point x="300" y="480"/>
			<point x="456" y="678" type="curve"/>
			<point x="322" y="595"/>
			<point x="174" y="522"/>
			<point x="108" y="522" type="curve" smooth="yes"/>
			<point x="61" y="522"/>
			<point x="36" y="539"/>
			<point x="36" y="573" type="curve" smooth="yes"/>
			<point x="36" y="618"/>
			<point x="102" y="660"/>
			<point x="161" y="686" type="curve"/>
			<point x="166" y="680" type="line"/>
			<point x="107" y="649"/>
			<point x="94" y="624"/>
			<point x="94" y="602" type="curve" smooth="yes"/>
			<point x="94" y="582"/>
			<point x="110" y="567"/>
			<point x="138" y="567" type="curve" smooth="yes"/>
			<point x="220" y="567"/>
			<point x="371" y="647"/>
			<point x="496" y="727" type="curve"/>
			<point x="586" y="835"/>
			<point x="667" y="912"/>
			<point x="703" y="912" type="curve" smooth="yes"/>
			<point x="717" y="912"/>
			<point x="724" y="904"/>
			<point x="724" y="896" type="curve" smooth="yes"/>
			<point x="724" y="868"/>
			<point x="635" y="795"/>
			<point x="523" y="721" type="curve"/>
			<point x="381" y="525"/>
			<point x="212" y="221"/>
			<point x="215" y="81" type="curve" smooth="yes"/>
			<point x="215" y="37"/>
			<point x="241" y="14"/>
		</contour>
		<contour>
			<point x="560" y="770" type="curve"/>
			<point x="642" y="827"/>
			<point x="701" y="879"/>
			<point x="701" y="894" type="curve" smooth="yes"/>
			<point x="701" y="897"/>
			<point x="700" y="899"/>
			<point x="697" y="899" type="curve" smooth="yes"/>
			<point x="672" y="899"/>
			<point x="621" y="848"/>
		</contour>
	</outline>
</glyph>
<glyph name="two" format="2">
	<advance width="944"/>
	<unicode hex="0032"/>
	<outline>
		<contour>
			<point x="638" y="671" type="curve"/>
			<point x="646" y="666" type="line"/>
			<point x="598" y="578"/>
			<point x="492" y="499"/>
			<point x="417" y="499" type="curve" smooth="yes"/>
			<point x="384" y="499"/>
			<point x="338" y="523"/>
			<point x="338" y="579" type="curve" smooth="yes"/>
			<point x="338" y="728"/>
			<point x="585" y="912"/>
			<point x="762" y="912" type="curve" smooth="yes"/>
			<point x="830" y="912"/>
			<point x="872" y="877"/>
			<point x="872" y="816" type="curve" smooth="yes"/>
			<point x="872" y="672"/>
			<point x="547" y="301"/>
			<point x="308" y="109" type="curve"/>
			<point x="385" y="78"/>
			<point x="474" y="29"/>
			<point x="571" y="28" type="curve" smooth="yes"/>
			<point x="718" y="27"/>
			<point x="795" y="105"/>
			<point x="795" y="197" type="curve" smooth="yes"/>
			<point x="795" y="245"/>
			<point x="762" y="268"/>
			<point x="726" y="268" type="curve" smooth="yes"/>
			<point x="672" y="268"/>
			<point x="614" y="220"/>
			<point x="594" y="140" type="curve"/>
			<point x="585" y="148" type="line"/>
			<point x="590" y="205"/>
			<point x="665" y="319"/>
			<point x="760" y="319" type="curve" smooth="yes"/>
			<point x="814" y="319"/>
			<point x="842" y="282"/>
			<point x="842" y="240" type="curve" smooth="yes"/>
			<point x="842" y="112"/>
			<point x="703" y="-13"/>
			<point x="536" y="-12" type="curve" smooth="yes"/>
			<point x="444" y="-11"/>
			<point x="353" y="40"/>
			<point x="272" y="81" type="curve"/>
			<point x="198" y="24"/>
			<point x="134" y="-12"/>
			<point x="96" y="-12" type="curve" smooth="yes"/>
			<point x="63" y="-12"/>
			<point x="36" y="10"/>
			<point x="36" y="50" type="curve" smooth="yes"/>
			<point x="36" y="99"/>
			<point x="76" y="152"/>
			<point x="156" y="152" type="curve" smooth="yes"/>
			<point x="191" y="152"/>
			<point x="231" y="138"/>
			<point x="276" y="121" type="curve"/>
			<point x="496" y="276"/>
			<point x="797" y="616"/>
			<point x="797" y="754" type="curve" smooth="yes"/>
			<point x="797" y="822"/>
			<point x="746" y="862"/>
			<point x="677" y="862" type="curve" smooth="yes"/>
			<point x="556" y="862"/>
			<point x="400" y="736"/>
			<point x="400" y="637" type="curve" smooth="yes"/>
			<point x="400" y="588"/>
			<point x="428" y="561"/>
			<point x="469" y="561" type="curve" smooth="yes"/>
			<point x="524" y="561"/>
			<point x="595" y="594"/>
		</contour>
		<contour>
			<point x="62" y="85" type="curve" smooth="yes"/>
			<point x="62" y="61"/>
			<point x="82" y="42"/>
			<point x="105" y="42" type="curve" smooth="yes"/>
			<point x="139" y="42"/>
			<point x="186" y="63"/>
			<point x="240" y="96" type="curve"/>
			<point x="197" y="117"/>
			<point x="158" y="132"/>
			<point x="124" y="132" type="curve" smooth="yes"/>
			<point x="91" y="132"/>
			<point x="62" y="110"/>
		</contour>
	</outline>
</glyph>
<glyph name="three" format="2">
	<advance width="708"/>
	<unicode hex="0033"/>
	<outline>
		<contour>
			<point x="406" y="704" type="curve"/>
			<point x="399" y="711" type="line"/>
			<point x="370" y="679"/>
			<point x="333" y="652"/>
			<point x="292" y="652" type="curve" smooth="yes"/>
			<point x="261" y="652"/>
			<point x="237" y="669"/>
			<point x="237" y="706" type="curve" smooth="yes"/>
			<point x="237" y="777"/>
			<point x="374" y="884"/>
			<point x="491" y="884" type="curve" smooth="yes"/>
			<point x="581" y="884"/>
			<point x="628" y="834"/>
			<point x="626" y="765" type="curve" smooth="yes"/>
			<point x="622" y="642"/>
			<point x="518" y="552"/>
			<point x="410" y="498" type="curve"/>
			<point x="381" y="505"/>
			<point x="348" y="508"/>
			<point x="315" y="508" type="curve" smooth="yes"/>
			<point x="222" y="508"/>
			<point x="172" y="477"/>
			<point x="172" y="449" type="curve" smooth="yes"/>
			<point x="172" y="437"/>
			<point x="185" y="428"/>
			<point x="205" y="428" type="curve" smooth="yes"/>
			<point x="255" y="428"/>
			<point x="320" y="443"/>
			<point x="386" y="469" type="curve"/>
			<point x="459" y="441"/>
			<point x="500" y="382"/>
			<point x="500" y="318" type="curve" smooth="yes"/>
			<point x="500" y="132"/>
			<point x="325" y="6"/>
			<point x="153" y="6" type="curve" smooth="yes"/>
			<point x="86" y="6"/>
			<point x="30" y="45"/>
			<point x="30" y="143" type="curve" smooth="yes"/>
			<point x="30" y="232"/>
			<point x="88" y="315"/>
			<point x="157" y="315" type="curve" smooth="yes"/>
			<point x="199" y="315"/>
			<point x="231" y="284"/>
			<point x="231" y="244" type="curve" smooth="yes"/>
			<point x="231" y="215"/>
			<point x="218" y="163"/>
			<point x="151" y="114" type="curve"/>
			<point x="158" y="108" type="line"/>
			<point x="229" y="159"/>
			<point x="278" y="201"/>
			<point x="278" y="251" type="curve" smooth="yes"/>
			<point x="278" y="302"/>
			<point x="230" y="329"/>
			<point x="184" y="329" type="curve" smooth="yes"/>
			<point x="87" y="329"/>
			<point x="-29" y="258"/>
			<point x="-29" y="125" type="curve" smooth="yes"/>
			<point x="-29" y="45"/>
			<point x="32" y="-12"/>
			<point x="137" y="-12" type="curve" smooth="yes"/>
			<point x="322" y="-12"/>
			<point x="582" y="119"/>
			<point x="582" y="328" type="curve" smooth="yes"/>
			<point x="582" y="408"/>
			<point x="523" y="465"/>
			<point x="438" y="492" type="curve"/>
			<point x="577" y="559"/>
			<point x="708" y="671"/>
			<point x="708" y="796" type="curve" smooth="yes"/>
			<point x="708" y="869"/>
			<point x="633" y="912"/>
			<point x="549" y="912" type="curve" smooth="yes"/>
			<point x="379" y="912"/>
			<point x="194" y="773"/>
			<point x="194" y="657" type="curve" smooth="yes"/>
			<point x="194" y="624"/>
			<point x="218" y="600"/>
			<point x="254" y="601" type="curve" smooth="yes"/>
			<point x="297" y="603"/>
			<point x="358" y="649"/>
		</contour>
		<contour>
			<point x="189" y="454" type="curve" smooth="yes"/>
			<point x="189" y="472"/>
			<point x="226" y="488"/>
			<point x="271" y="488" type="curve" smooth="yes"/>
			<point x="305" y="488"/>
			<point x="335" y="484"/>
			<point x="362" y="477" type="curve"/>
			<point x="303" y="453"/>
			<point x="248" y="441"/>
			<point x="213" y="441" type="curve" smooth="yes"/>
			<point x="196" y="441"/>
			<point x="189" y="446"/>
		</contour>
	</outline>
</glyph>
<glyph name="four" format="2">
	<advance width="865"/>
	<unicode hex="0034"/>
	<outline>
		<contour>
			<point x="827" y="891" type="curve" smooth="yes"/>
			<point x="827" y="896"/>
			<point x="824" y="900"/>
			<point x="819" y="900" type="curve" smooth="yes"/>
			<point x="791" y="900"/>
			<point x="741" y="830"/>
			<point x="687" y="730" type="curve"/>
			<point x="770" y="804"/>
			<point x="827" y="867"/>
		</contour>
		<contour>
			<point x="0" y="325" type="curve" smooth="yes"/>
			<point x="0" y="356"/>
			<point x="59" y="380"/>
			<point x="127" y="379" type="curve" smooth="yes"/>
			<point x="148" y="378"/>
			<point x="172" y="375"/>
			<point x="199" y="371" type="curve"/>
			<point x="320" y="437"/>
			<point x="492" y="564"/>
			<point x="626" y="677" type="curve"/>
			<point x="706" y="811"/>
			<point x="785" y="912"/>
			<point x="825" y="912" type="curve" smooth="yes"/>
			<point x="840" y="912"/>
			<point x="847" y="904"/>
			<point x="847" y="892" type="curve" smooth="yes"/>
			<point x="847" y="863"/>
			<point x="772" y="782"/>
			<point x="666" y="689" type="curve"/>
			<point x="610" y="575"/>
			<point x="552" y="433"/>
			<point x="514" y="309" type="curve"/>
			<point x="554" y="302"/>
			<point x="593" y="299"/>
			<point x="628" y="299" type="curve" smooth="yes"/>
			<point x="644" y="299"/>
			<point x="658" y="300"/>
			<point x="671" y="300" type="curve"/>
			<point x="676" y="334"/>
			<point x="692" y="357"/>
			<point x="721" y="357" type="curve" smooth="yes"/>
			<point x="738" y="357"/>
			<point x="753" y="346"/>
			<point x="753" y="325" type="curve" smooth="yes"/>
			<point x="753" y="297"/>
			<point x="733" y="275"/>
			<point x="678" y="266" type="curve"/>
			<point x="678" y="258"/>
			<point x="678" y="249"/>
			<point x="678" y="240" type="curve"/>
			<point x="671" y="239" type="line"/>
			<point x="670" y="248"/>
			<point x="669" y="256"/>
			<point x="669" y="265" type="curve"/>
			<point x="653" y="263"/>
			<point x="635" y="262"/>
			<point x="614" y="262" type="curve" smooth="yes"/>
			<point x="578" y="262"/>
			<point x="541" y="266"/>
			<point x="503" y="273" type="curve"/>
			<point x="482" y="197"/>
			<point x="469" y="129"/>
			<point x="470" y="81" type="curve" smooth="yes"/>
			<point x="471" y="37"/>
			<point x="497" y="14"/>
			<point x="527" y="14" type="curve" smooth="yes"/>
			<point x="557" y="14"/>
			<point x="580" y="27"/>
			<point x="600" y="53" type="curve"/>
			<point x="609" y="47" type="line"/>
			<point x="584" y="7"/>
			<point x="545" y="-12"/>
			<point x="495" y="-12" type="curve" smooth="yes"/>
			<point x="436" y="-12"/>
			<point x="387" y="18"/>
			<point x="387" y="87" type="curve" smooth="yes"/>
			<point x="387" y="135"/>
			<point x="406" y="207"/>
			<point x="436" y="287" type="curve"/>
			<point x="354" y="307"/>
			<point x="274" y="335"/>
			<point x="211" y="351" type="curve"/>
			<point x="144" y="312"/>
			<point x="89" y="289"/>
			<point x="55" y="289" type="curve" smooth="yes"/>
			<point x="22" y="289"/>
			<point x="0" y="303"/>
		</contour>
		<contour>
			<point x="53" y="341" type="curve" smooth="yes"/>
			<point x="53" y="330"/>
			<point x="63" y="325"/>
			<point x="81" y="325" type="curve" smooth="yes"/>
			<point x="102" y="325"/>
			<point x="136" y="338"/>
			<point x="178" y="359" type="curve"/>
			<point x="158" y="364"/>
			<point x="140" y="366"/>
			<point x="125" y="366" type="curve" smooth="yes"/>
			<point x="83" y="366"/>
			<point x="53" y="356"/>
		</contour>
		<contour>
			<point x="233" y="364" type="curve"/>
			<point x="297" y="352"/>
			<point x="374" y="334"/>
			<point x="449" y="320" type="curve"/>
			<point x="489" y="420"/>
			<point x="544" y="533"/>
			<point x="600" y="632" type="curve"/>
			<point x="483" y="534"/>
			<point x="345" y="432"/>
		</contour>
		<contour>
			<point x="684" y="302" type="curve"/>
			<point x="721" y="307"/>
			<point x="743" y="318"/>
			<point x="743" y="333" type="curve" smooth="yes"/>
			<point x="743" y="343"/>
			<point x="734" y="351"/>
			<point x="724" y="351" type="curve" smooth="yes"/>
			<point x="706" y="351"/>
			<point x="692" y="329"/>
		</contour>
	</outline>
</glyph>
<glyph name="five" format="2">
	<advance width="675"/>
	<unicode hex="0035"/>
	<outline>
		<contour>
			<point x="742" y="900" type="curve"/>
			<point x="747" y="893" type="line"/>
			<point x="616" y="817"/>
			<point x="480" y="757"/>
			<point x="347" y="759" type="curve"/>
			<point x="336" y="707"/>
			<point x="315" y="647"/>
			<point x="288" y="593" type="curve"/>
			<point x="337" y="608"/>
			<point x="387" y="617"/>
			<point x="429" y="617" type="curve" smooth="yes"/>
			<point x="534" y="617"/>
			<point x="624" y="568"/>
			<point x="624" y="454" type="curve" smooth="yes"/>
			<point x="624" y="246"/>
			<point x="290" y="-13"/>
			<point x="111" y="-13" type="curve" smooth="yes"/>
			<point x="9" y="-13"/>
			<point x="-39" y="52"/>
			<point x="-36" y="130" type="curve" smooth="yes"/>
			<point x="-32" y="256"/>
			<point x="76" y="332"/>
			<point x="163" y="332" type="curve" smooth="yes"/>
			<point x="226" y="332"/>
			<point x="249" y="304"/>
			<point x="249" y="271" type="curve" smooth="yes"/>
			<point x="249" y="239"/>
			<point x="217" y="202"/>
			<point x="179" y="168" type="curve"/>
			<point x="171" y="173" type="line"/>
			<point x="201" y="202"/>
			<point x="212" y="230"/>
			<point x="212" y="255" type="curve" smooth="yes"/>
			<point x="212" y="287"/>
			<point x="194" y="315"/>
			<point x="141" y="315" type="curve" smooth="yes"/>
			<point x="76" y="315"/>
			<point x="8" y="247"/>
			<point x="8" y="159" type="curve" smooth="yes"/>
			<point x="8" y="86"/>
			<point x="68" y="42"/>
			<point x="153" y="42" type="curve" smooth="yes"/>
			<point x="296" y="42"/>
			<point x="542" y="179"/>
			<point x="542" y="405" type="curve" smooth="yes"/>
			<point x="542" y="508"/>
			<point x="460" y="589"/>
			<point x="369" y="589" type="curve" smooth="yes"/>
			<point x="337" y="589"/>
			<point x="307" y="584"/>
			<point x="279" y="576" type="curve"/>
			<point x="238" y="499"/>
			<point x="184" y="439"/>
			<point x="134" y="439" type="curve" smooth="yes"/>
			<point x="117" y="439"/>
			<point x="106" y="451"/>
			<point x="106" y="464" type="curve" smooth="yes"/>
			<point x="106" y="511"/>
			<point x="181" y="558"/>
			<point x="268" y="587" type="curve"/>
			<point x="294" y="639"/>
			<point x="319" y="702"/>
			<point x="332" y="760" type="curve"/>
			<point x="261" y="764"/>
			<point x="223" y="798"/>
			<point x="223" y="840" type="curve" smooth="yes"/>
			<point x="223" y="870"/>
			<point x="257" y="912"/>
			<point x="297" y="912" type="curve" smooth="yes"/>
			<point x="336" y="912"/>
			<point x="356" y="882"/>
			<point x="356" y="832" type="curve" smooth="yes"/>
			<point x="356" y="824"/>
			<point x="356" y="815"/>
			<point x="355" y="806" type="curve"/>
			<point x="366" y="805"/>
			<point x="378" y="804"/>
			<point x="391" y="804" type="curve" smooth="yes"/>
			<point x="462" y="804"/>
			<point x="621" y="837"/>
		</contour>
		<contour>
			<point x="161" y="490" type="curve" smooth="yes"/>
			<point x="161" y="480"/>
			<point x="170" y="477"/>
			<point x="179" y="477" type="curve" smooth="yes"/>
			<point x="198" y="477"/>
			<point x="228" y="515"/>
			<point x="258" y="569" type="curve"/>
			<point x="201" y="548"/>
			<point x="161" y="514"/>
		</contour>
		<contour>
			<point x="267" y="858" type="curve" smooth="yes"/>
			<point x="267" y="831"/>
			<point x="294" y="814"/>
			<point x="341" y="807" type="curve"/>
			<point x="341" y="817"/>
			<point x="342" y="827"/>
			<point x="342" y="836" type="curve" smooth="yes"/>
			<point x="342" y="880"/>
			<point x="320" y="896"/>
			<point x="303" y="896" type="curve" smooth="yes"/>
			<point x="286" y="896"/>
			<point x="267" y="881"/>
		</contour>
	</outline>
</glyph>
<glyph name="six" format="2">
	<advance width="498"/>
	<unicode hex="0036"/>
	<outline>
		<contour>
			<point x="76" y="240" type="curve"/>
			<point x="85" y="237" type="line"/>
			<point x="158" y="424"/>
			<point x="276" y="498"/>
			<point x="358" y="498" type="curve" smooth="yes"/>
			<point x="429" y="498"/>
			<point x="477" y="449"/>
			<point x="474" y="359" type="curve" smooth="yes"/>
			<point x="468" y="204"/>
			<point x="312" y="62"/>
			<point x="197" y="62" type="curve" smooth="yes"/>
			<point x="136" y="62"/>
			<point x="58" y="91"/>
			<point x="58" y="226" type="curve" smooth="yes"/>
			<point x="58" y="440"/>
			<point x="337" y="862"/>
			<point x="536" y="862" type="curve" smooth="yes"/>
			<point x="580" y="862"/>
			<point x="617" y="837"/>
			<point x="617" y="780" type="curve" smooth="yes"/>
			<point x="617" y="738"/>
			<point x="595" y="683"/>
			<point x="546" y="629" type="curve"/>
			<point x="553" y="622" type="line"/>
			<point x="611" y="683"/>
			<point x="660" y="750"/>
			<point x="660" y="825" type="curve" smooth="yes"/>
			<point x="660" y="876"/>
			<point x="621" y="912"/>
			<point x="564" y="912" type="curve" smooth="yes"/>
			<point x="330" y="912"/>
			<point x="0" y="374"/>
			<point x="0" y="146" type="curve" smooth="yes"/>
			<point x="0" y="42"/>
			<point x="51" y="-9"/>
			<point x="125" y="-9" type="curve" smooth="yes"/>
			<point x="277" y="-9"/>
			<point x="523" y="230"/>
			<point x="523" y="418" type="curve" smooth="yes"/>
			<point x="523" y="474"/>
			<point x="479" y="542"/>
			<point x="387" y="542" type="curve" smooth="yes"/>
			<point x="288" y="542"/>
			<point x="150" y="438"/>
		</contour>
	</outline>
</glyph>
<glyph name="seven" format="2">
	<advance width="438"/>
	<unicode hex="0037"/>
	<outline>
		<contour>
			<point x="739" y="899" type="curve" smooth="yes"/>
			<point x="777" y="899"/>
			<point x="798" y="881"/>
			<point x="798" y="851" type="curve" smooth="yes"/>
			<point x="798" y="812"/>
			<point x="757" y="774"/>
			<point x="672" y="774" type="curve" smooth="yes"/>
			<point x="633" y="774"/>
			<point x="595" y="778"/>
			<point x="560" y="786" type="curve"/>
			<point x="468" y="700"/>
			<point x="369" y="560"/>
			<point x="300" y="422" type="curve"/>
			<point x="365" y="428"/>
			<point x="449" y="449"/>
			<point x="527" y="498" type="curve"/>
			<point x="533" y="491" type="line"/>
			<point x="453" y="432"/>
			<point x="356" y="382"/>
			<point x="275" y="369" type="curve"/>
			<point x="233" y="275"/>
			<point x="199" y="185"/>
			<point x="199" y="116" type="curve" smooth="yes"/>
			<point x="199" y="54"/>
			<point x="227" y="21"/>
			<point x="259" y="21" type="curve" smooth="yes"/>
			<point x="284" y="21"/>
			<point x="305" y="27"/>
			<point x="333" y="56" type="curve"/>
			<point x="342" y="50" type="line"/>
			<point x="312" y="11"/>
			<point x="270" y="-12"/>
			<point x="225" y="-12" type="curve" smooth="yes"/>
			<point x="156" y="-12"/>
			<point x="125" y="38"/>
			<point x="125" y="94" type="curve" smooth="yes"/>
			<point x="125" y="166"/>
			<point x="159" y="265"/>
			<point x="213" y="368" type="curve"/>
			<point x="123" y="377"/>
			<point x="85" y="438"/>
			<point x="85" y="490" type="curve" smooth="yes"/>
			<point x="85" y="491" type="line"/>
			<point x="57" y="497"/>
			<point x="40" y="514"/>
			<point x="40" y="541" type="curve" smooth="yes"/>
			<point x="40" y="587"/>
			<point x="92" y="623"/>
			<point x="148" y="636" type="curve"/>
			<point x="152" y="629" type="line"/>
			<point x="102" y="617"/>
			<point x="66" y="591"/>
			<point x="66" y="552" type="curve" smooth="yes"/>
			<point x="66" y="536"/>
			<point x="74" y="523"/>
			<point x="89" y="518" type="curve"/>
			<point x="96" y="548"/>
			<point x="117" y="564"/>
			<point x="139" y="564" type="curve" smooth="yes"/>
			<point x="157" y="564"/>
			<point x="171" y="553"/>
			<point x="171" y="534" type="curve" smooth="yes"/>
			<point x="171" y="508"/>
			<point x="141" y="489"/>
			<point x="106" y="489" type="curve" smooth="yes"/>
			<point x="102" y="489" type="line"/>
			<point x="109" y="451"/>
			<point x="152" y="419"/>
			<point x="240" y="418" type="curve"/>
			<point x="320" y="557"/>
			<point x="430" y="698"/>
			<point x="535" y="792" type="curve"/>
			<point x="402" y="824"/>
			<point x="287" y="891"/>
			<point x="173" y="891" type="curve" smooth="yes"/>
			<point x="109" y="891"/>
			<point x="63" y="863"/>
			<point x="63" y="822" type="curve" smooth="yes"/>
			<point x="63" y="788"/>
			<point x="102" y="759"/>
			<point x="150" y="759" type="curve" smooth="yes"/>
			<point x="171" y="759"/>
			<point x="201" y="765"/>
			<point x="227" y="780" type="curve"/>
			<point x="233" y="771" type="line"/>
			<point x="207" y="754"/>
			<point x="167" y="734"/>
			<point x="114" y="734" type="curve" smooth="yes"/>
			<point x="50" y="734"/>
			<point x="0" y="770"/>
			<point x="0" y="816" type="curve" smooth="yes"/>
			<point x="0" y="883"/>
			<point x="69" y="912"/>
			<point x="157" y="912" type="curve" smooth="yes"/>
			<point x="271" y="912"/>
			<point x="415" y="844"/>
			<point x="577" y="827" type="curve"/>
			<point x="636" y="872"/>
			<point x="692" y="899"/>
		</contour>
		<contour>
			<point x="101" y="515" type="curve"/>
			<point x="107" y="515" type="line" smooth="yes"/>
			<point x="127" y="515"/>
			<point x="145" y="526"/>
			<point x="145" y="538" type="curve" smooth="yes"/>
			<point x="145" y="546"/>
			<point x="139" y="550"/>
			<point x="132" y="550" type="curve" smooth="yes"/>
			<point x="118" y="550"/>
			<point x="105" y="538"/>
		</contour>
		<contour>
			<point x="605" y="824" type="curve"/>
			<point x="619" y="823"/>
			<point x="634" y="822"/>
			<point x="649" y="822" type="curve" smooth="yes"/>
			<point x="716" y="822"/>
			<point x="743" y="834"/>
			<point x="743" y="853" type="curve" smooth="yes"/>
			<point x="743" y="864"/>
			<point x="734" y="872"/>
			<point x="715" y="872" type="curve" smooth="yes"/>
			<point x="683" y="872"/>
			<point x="645" y="854"/>
		</contour>
	</outline>
</glyph>
<glyph name="eight" format="2">
	<advance width="479"/>
	<unicode hex="0038"/>
	<outline>
		<contour>
			<point x="535" y="889" type="curve" smooth="yes"/>
			<point x="486" y="889"/>
			<point x="359" y="841"/>
			<point x="359" y="676" type="curve" smooth="yes"/>
			<point x="359" y="627"/>
			<point x="370" y="581"/>
			<point x="385" y="536" type="curve"/>
			<point x="509" y="616"/>
			<point x="614" y="698"/>
			<point x="614" y="809" type="curve" smooth="yes"/>
			<point x="614" y="850"/>
			<point x="591" y="889"/>
		</contour>
		<contour>
			<point x="0" y="127" type="curve" smooth="yes"/>
			<point x="0" y="291"/>
			<point x="161" y="395"/>
			<point x="318" y="494" type="curve"/>
			<point x="307" y="534"/>
			<point x="299" y="576"/>
			<point x="299" y="625" type="curve" smooth="yes"/>
			<point x="299" y="780"/>
			<point x="406" y="912"/>
			<point x="534" y="912" type="curve" smooth="yes"/>
			<point x="611" y="912"/>
			<point x="641" y="863"/>
			<point x="641" y="811" type="curve" smooth="yes"/>
			<point x="641" y="685"/>
			<point x="525" y="596"/>
			<point x="395" y="512" type="curve"/>
			<point x="426" y="430"/>
			<point x="466" y="353"/>
			<point x="466" y="269" type="curve" smooth="yes"/>
			<point x="466" y="105"/>
			<point x="318" y="-12"/>
			<point x="147" y="-12" type="curve" smooth="yes"/>
			<point x="68" y="-12"/>
			<point x="0" y="37"/>
		</contour>
		<contour>
			<point x="27" y="136" type="curve" smooth="yes"/>
			<point x="27" y="71"/>
			<point x="66" y="14"/>
			<point x="150" y="14" type="curve" smooth="yes"/>
			<point x="281" y="14"/>
			<point x="376" y="105"/>
			<point x="376" y="240" type="curve" smooth="yes"/>
			<point x="376" y="326"/>
			<point x="347" y="394"/>
			<point x="325" y="468" type="curve"/>
			<point x="174" y="374"/>
			<point x="27" y="279"/>
		</contour>
	</outline>
</glyph>
<glyph name="nine" format="2">
	<advance width="534"/>
	<unicode hex="0039"/>
	<outline>
		<contour>
			<point x="614" y="598" type="curve"/>
			<point x="626" y="595" type="line"/>
			<point x="596" y="464"/>
			<point x="487" y="359"/>
			<point x="393" y="359" type="curve" smooth="yes"/>
			<point x="303" y="359"/>
			<point x="241" y="439"/>
			<point x="241" y="535" type="curve" smooth="yes"/>
			<point x="241" y="703"/>
			<point x="405" y="915"/>
			<point x="566" y="915" type="curve" smooth="yes"/>
			<point x="649" y="915"/>
			<point x="706" y="852"/>
			<point x="706" y="741" type="curve" smooth="yes"/>
			<point x="706" y="548"/>
			<point x="461" y="-12"/>
			<point x="156" y="-12" type="curve" smooth="yes"/>
			<point x="100" y="-12"/>
			<point x="55" y="26"/>
			<point x="54" y="82" type="curve" smooth="yes"/>
			<point x="53" y="136"/>
			<point x="80" y="182"/>
			<point x="133" y="242" type="curve"/>
			<point x="143" y="233" type="line"/>
			<point x="108" y="186"/>
			<point x="91" y="153"/>
			<point x="92" y="118" type="curve" smooth="yes"/>
			<point x="93" y="77"/>
			<point x="130" y="50"/>
			<point x="186" y="50" type="curve" smooth="yes"/>
			<point x="409" y="50"/>
			<point x="657" y="447"/>
			<point x="657" y="664" type="curve" smooth="yes"/>
			<point x="657" y="801"/>
			<point x="593" y="850"/>
			<point x="522" y="850" type="curve" smooth="yes"/>
			<point x="410" y="850"/>
			<point x="289" y="739"/>
			<point x="289" y="593" type="curve" smooth="yes"/>
			<point x="289" y="490"/>
			<point x="356" y="423"/>
			<point x="420" y="423" type="curve" smooth="yes"/>
			<point x="506" y="423"/>
			<point x="593" y="513"/>
		</contour>
	</outline>
</glyph>
<glyph name="colon" format="2">
	<advance width="269"/>
	<unicode hex="003A"/>
	<outline>
		<contour>
			<point x="80" y="0" type="curve" smooth="yes"/>
			<point x="117" y="0"/>
			<point x="148" y="30"/>
			<point x="148" y="66" type="curve" smooth="yes"/>
			<point x="148" y="78"/>
			<point x="145" y="87"/>
			<point x="140" y="89" type="curve" smooth="yes"/>
			<point x="138" y="91"/>
			<point x="134" y="85"/>
			<point x="131" y="78" type="curve" smooth="yes"/>
			<point x="126" y="66"/>
			<point x="112" y="58"/>
			<point x="101" y="58" type="curve" smooth="yes"/>
			<point x="82" y="58"/>
			<point x="68" y="63"/>
			<point x="57" y="63" type="curve" smooth="yes"/>
			<point x="48" y="63"/>
			<point x="40" y="58"/>
			<point x="37" y="40" type="curve" smooth="yes"/>
			<point x="32" y="19"/>
			<point x="57" y="0"/>
		</contour>
		<contour>
			<point x="201" y="219" type="curve" smooth="yes"/>
			<point x="238" y="219"/>
			<point x="269" y="248"/>
			<point x="269" y="284" type="curve" smooth="yes"/>
			<point x="269" y="297"/>
			<point x="266" y="306"/>
			<point x="261" y="308" type="curve" smooth="yes"/>
			<point x="258" y="310"/>
			<point x="255" y="304"/>
			<point x="252" y="297" type="curve" smooth="yes"/>
			<point x="247" y="285"/>
			<point x="233" y="276"/>
			<point x="222" y="276" type="curve" smooth="yes"/>
			<point x="203" y="276"/>
			<point x="189" y="282"/>
			<point x="178" y="282" type="curve" smooth="yes"/>
			<point x="168" y="282"/>
			<point x="161" y="277"/>
			<point x="158" y="258" type="curve" smooth="yes"/>
			<point x="153" y="238"/>
			<point x="178" y="219"/>
		</contour>
	</outline>
</glyph>
<glyph name="semicolon" format="2">
	<advance width="359"/>
	<unicode hex="003B"/>
	<outline>
		<contour>
			<point x="201" y="219" type="curve" smooth="yes"/>
			<point x="238" y="219"/>
			<point x="269" y="248"/>
			<point x="269" y="284" type="curve" smooth="yes"/>
			<point x="269" y="297"/>
			<point x="266" y="306"/>
			<point x="261" y="308" type="curve" smooth="yes"/>
			<point x="258" y="310"/>
			<point x="255" y="304"/>
			<point x="252" y="297" type="curve" smooth="yes"/>
			<point x="247" y="285"/>
			<point x="233" y="276"/>
			<point x="222" y="276" type="curve" smooth="yes"/>
			<point x="203" y="276"/>
			<point x="189" y="282"/>
			<point x="178" y="282" type="curve" smooth="yes"/>
			<point x="168" y="282"/>
			<point x="161" y="277"/>
			<point x="158" y="258" type="curve" smooth="yes"/>
			<point x="153" y="238"/>
			<point x="178" y="219"/>
		</contour>
		<contour>
			<point x="-139" y="-127" type="curve" smooth="yes"/>
			<point x="-71" y="-165"/>
			<point x="156" y="-22"/>
			<point x="94" y="12" type="curve" smooth="yes"/>
			<point x="82" y="19"/>
			<point x="62" y="20"/>
			<point x="54" y="6" type="curve" smooth="yes"/>
			<point x="43" y="-17"/>
			<point x="32" y="-48"/>
			<point x="-27" y="-87" type="curve" smooth="yes"/>
			<point x="-97" y="-135"/>
			<point x="-141" y="-115"/>
			<point x="-143" y="-120" type="curve" smooth="yes"/>
			<point x="-145" y="-122"/>
			<point x="-142" y="-125"/>
		</contour>
	</outline>
</glyph>
<glyph name="less" format="2">
	<advance width="386"/>
	<unicode hex="003C"/>
	<outline>
		<contour>
			<point x="240" y="-3" type="curve" smooth="yes"/>
			<point x="240" y="36"/>
			<point x="163" y="109"/>
			<point x="63" y="171" type="curve"/>
			<point x="182" y="188"/>
			<point x="332" y="311"/>
			<point x="332" y="354" type="curve" smooth="yes"/>
			<point x="332" y="366"/>
			<point x="318" y="371"/>
			<point x="307" y="371" type="curve" smooth="yes"/>
			<point x="294" y="371"/>
			<point x="286" y="361"/>
			<point x="279" y="341" type="curve" smooth="yes"/>
			<point x="273" y="321"/>
			<point x="234" y="278"/>
			<point x="173" y="239" type="curve" smooth="yes"/>
			<point x="126" y="210"/>
			<point x="65" y="186"/>
			<point x="46" y="190" type="curve" smooth="yes"/>
			<point x="42" y="191"/>
			<point x="40" y="192"/>
			<point x="37" y="192" type="curve" smooth="yes"/>
			<point x="28" y="192"/>
			<point x="26" y="184"/>
			<point x="24" y="167" type="curve" smooth="yes"/>
			<point x="22" y="158"/>
			<point x="18" y="149"/>
			<point x="18" y="142" type="curve" smooth="yes"/>
			<point x="18" y="136"/>
			<point x="20" y="131"/>
			<point x="27" y="130" type="curve" smooth="yes"/>
			<point x="49" y="128"/>
			<point x="89" y="120"/>
			<point x="140" y="87" type="curve" smooth="yes"/>
			<point x="197" y="50"/>
			<point x="231" y="-11"/>
			<point x="235" y="-12" type="curve" smooth="yes"/>
			<point x="240" y="-12"/>
			<point x="240" y="-8"/>
		</contour>
	</outline>
</glyph>
<glyph name="equal" format="2">
	<advance width="361"/>
	<unicode hex="003D"/>
	<outline>
		<contour>
			<point x="19" y="250" type="curve" smooth="yes"/>
			<point x="20" y="254"/>
			<point x="24" y="258"/>
			<point x="30" y="258" type="curve" smooth="yes"/>
			<point x="40" y="258"/>
			<point x="42" y="257"/>
			<point x="67" y="257" type="curve" smooth="yes"/>
			<point x="96" y="257"/>
			<point x="128" y="260"/>
			<point x="164" y="260" type="curve" smooth="yes"/>
			<point x="246" y="260"/>
			<point x="328" y="232"/>
			<point x="335" y="215" type="curve" smooth="yes"/>
			<point x="338" y="208"/>
			<point x="333" y="204"/>
			<point x="328" y="204" type="curve" smooth="yes"/>
			<point x="310" y="204"/>
			<point x="279" y="223"/>
			<point x="187" y="225" type="curve" smooth="yes"/>
			<point x="139" y="227"/>
			<point x="58" y="216"/>
			<point x="47" y="216" type="curve" smooth="yes"/>
			<point x="34" y="216"/>
			<point x="24" y="225"/>
			<point x="22" y="231" type="curve" smooth="yes"/>
			<point x="19" y="237"/>
			<point x="17" y="246"/>
		</contour>
		<contour>
			<point x="30" y="138" type="curve" smooth="yes"/>
			<point x="34" y="130"/>
			<point x="51" y="125"/>
			<point x="61" y="125" type="curve" smooth="yes"/>
			<point x="94" y="125"/>
			<point x="183" y="127"/>
			<point x="233" y="127" type="curve" smooth="yes"/>
			<point x="304" y="127"/>
			<point x="340" y="114"/>
			<point x="343" y="125" type="curve" smooth="yes"/>
			<point x="345" y="136"/>
			<point x="269" y="163"/>
			<point x="121" y="159" type="curve" smooth="yes"/>
			<point x="64" y="158"/>
			<point x="44" y="162"/>
			<point x="33" y="151" type="curve" smooth="yes"/>
			<point x="28" y="145"/>
			<point x="28" y="144"/>
		</contour>
	</outline>
</glyph>
<glyph name="greater" format="2">
	<advance width="494"/>
	<unicode hex="003E"/>
	<outline>
		<contour>
			<point x="163" y="-3" type="curve" smooth="yes"/>
			<point x="163" y="-8"/>
			<point x="164" y="-12"/>
			<point x="169" y="-12" type="curve" smooth="yes"/>
			<point x="173" y="-11"/>
			<point x="207" y="50"/>
			<point x="264" y="87" type="curve" smooth="yes"/>
			<point x="315" y="120"/>
			<point x="355" y="128"/>
			<point x="377" y="130" type="curve" smooth="yes"/>
			<point x="384" y="131"/>
			<point x="386" y="136"/>
			<point x="386" y="142" type="curve" smooth="yes"/>
			<point x="386" y="149"/>
			<point x="382" y="158"/>
			<point x="380" y="167" type="curve" smooth="yes"/>
			<point x="378" y="184"/>
			<point x="376" y="192"/>
			<point x="366" y="192" type="curve" smooth="yes"/>
			<point x="364" y="192"/>
			<point x="361" y="191"/>
			<point x="358" y="190" type="curve" smooth="yes"/>
			<point x="339" y="186"/>
			<point x="278" y="210"/>
			<point x="231" y="239" type="curve" smooth="yes"/>
			<point x="170" y="278"/>
			<point x="131" y="321"/>
			<point x="125" y="341" type="curve" smooth="yes"/>
			<point x="118" y="361"/>
			<point x="110" y="371"/>
			<point x="97" y="371" type="curve" smooth="yes"/>
			<point x="86" y="371"/>
			<point x="72" y="366"/>
			<point x="72" y="354" type="curve" smooth="yes"/>
			<point x="72" y="311"/>
			<point x="222" y="188"/>
			<point x="341" y="171" type="curve"/>
			<point x="240" y="109"/>
			<point x="163" y="36"/>
		</contour>
	</outline>
</glyph>
<glyph name="question" format="2">
	<advance width="471"/>
	<unicode hex="003F"/>
	<outline>
		<contour>
			<point x="480" y="696" type="line"/>
			<point x="446" y="661"/>
			<point x="392" y="624"/>
			<point x="361" y="624" type="curve" smooth="yes"/>
			<point x="320" y="624"/>
			<point x="302" y="648"/>
			<point x="302" y="684" type="curve" smooth="yes"/>
			<point x="302" y="781"/>
			<point x="411" y="872"/>
			<point x="495" y="872" type="curve" smooth="yes"/>
			<point x="575" y="872"/>
			<point x="615" y="810"/>
			<point x="615" y="738" type="curve" smooth="yes"/>
			<point x="615" y="475"/>
			<point x="65" y="377"/>
			<point x="65" y="183" type="curve" smooth="yes"/>
			<point x="65" y="148"/>
			<point x="86" y="114"/>
			<point x="126" y="114" type="curve" smooth="yes"/>
			<point x="180" y="114"/>
			<point x="230" y="161"/>
			<point x="283" y="212" type="curve"/>
			<point x="275" y="220" type="line"/>
			<point x="235" y="181"/>
			<point x="202" y="168"/>
			<point x="176" y="168" type="curve" smooth="yes"/>
			<point x="146" y="168"/>
			<point x="123" y="195"/>
			<point x="123" y="220" type="curve" smooth="yes"/>
			<point x="123" y="397"/>
			<point x="680" y="474"/>
			<point x="680" y="768" type="curve" smooth="yes"/>
			<point x="680" y="850"/>
			<point x="639" y="912"/>
			<point x="553" y="912" type="curve" smooth="yes"/>
			<point x="413" y="912"/>
			<point x="239" y="739"/>
			<point x="239" y="627" type="curve" smooth="yes"/>
			<point x="239" y="595"/>
			<point x="258" y="575"/>
			<point x="289" y="575" type="curve" smooth="yes"/>
			<point x="343" y="575"/>
			<point x="451" y="646"/>
			<point x="487" y="690" type="curve"/>
		</contour>
		<contour>
			<point x="54" y="70" type="curve" smooth="yes"/>
			<point x="19" y="70"/>
			<point x="-11" y="41"/>
			<point x="-11" y="6" type="curve" smooth="yes"/>
			<point x="-11" y="1"/>
			<point x="-9" y="-9"/>
			<point x="-4" y="-11" type="curve" smooth="yes"/>
			<point x="-1" y="-12"/>
			<point x="1" y="-7"/>
			<point x="4" y="-3" type="curve" smooth="yes"/>
			<point x="8" y="4"/>
			<point x="22" y="7"/>
			<point x="24" y="7" type="curve" smooth="yes"/>
			<point x="45" y="7"/>
			<point x="48" y="0"/>
			<point x="67" y="0" type="curve" smooth="yes"/>
			<point x="82" y="0"/>
			<point x="96" y="13"/>
			<point x="96" y="32" type="curve" smooth="yes"/>
			<point x="96" y="51"/>
			<point x="76" y="70"/>
		</contour>
	</outline>
</glyph>
<glyph name="at" format="2">
	<advance width="729"/>
	<unicode hex="0040"/>
	<outline>
		<contour>
			<point x="482" y="341" type="curve" smooth="yes"/>
			<point x="369" y="341"/>
			<point x="222" y="228"/>
			<point x="222" y="101" type="curve" smooth="yes"/>
			<point x="222" y="53"/>
			<point x="258" y="16"/>
			<point x="310" y="16" type="curve" smooth="yes"/>
			<point x="362" y="16"/>
			<point x="410" y="48"/>
			<point x="441" y="74" type="curve"/>
			<point x="446" y="74" type="line"/>
			<point x="423" y="24"/>
			<point x="455" y="-10"/>
			<point x="500" y="-10" type="curve" smooth="yes"/>
			<point x="608" y="-10"/>
			<point x="711" y="168"/>
			<point x="711" y="297" type="curve" smooth="yes"/>
			<point x="711" y="416"/>
			<point x="630" y="470"/>
			<point x="523" y="470" type="curve" smooth="yes"/>
			<point x="305" y="470"/>
			<point x="18" y="249"/>
			<point x="18" y="10" type="curve" smooth="yes"/>
			<point x="18" y="-107"/>
			<point x="108" y="-176"/>
			<point x="238" y="-176" type="curve" smooth="yes"/>
			<point x="291" y="-176"/>
			<point x="339" y="-163"/>
			<point x="374" y="-140" type="curve"/>
			<point x="388" y="-145"/>
			<point x="402" y="-147"/>
			<point x="414" y="-147" type="curve" smooth="yes"/>
			<point x="485" y="-147"/>
			<point x="552" y="-101"/>
			<point x="591" y="-73" type="curve"/>
			<point x="585" y="-66" type="line"/>
			<point x="539" y="-91"/>
			<point x="495" y="-116"/>
			<point x="435" y="-116" type="curve" smooth="yes"/>
			<point x="426" y="-116"/>
			<point x="415" y="-115"/>
			<point x="407" y="-113" type="curve"/>
			<point x="423" y="-94"/>
			<point x="433" y="-71"/>
			<point x="433" y="-46" type="curve" smooth="yes"/>
			<point x="433" y="-22"/>
			<point x="415" y="-6"/>
			<point x="393" y="-6" type="curve" smooth="yes"/>
			<point x="357" y="-6"/>
			<point x="330" y="-42"/>
			<point x="330" y="-81" type="curve" smooth="yes"/>
			<point x="330" y="-99"/>
			<point x="336" y="-112"/>
			<point x="345" y="-122" type="curve"/>
			<point x="323" y="-128"/>
			<point x="298" y="-131"/>
			<point x="271" y="-131" type="curve" smooth="yes"/>
			<point x="163" y="-131"/>
			<point x="86" y="-75"/>
			<point x="86" y="35" type="curve" smooth="yes"/>
			<point x="86" y="257"/>
			<point x="329" y="443"/>
			<point x="536" y="443" type="curve" smooth="yes"/>
			<point x="611" y="443"/>
			<point x="680" y="397"/>
			<point x="680" y="297" type="curve" smooth="yes"/>
			<point x="680" y="171"/>
			<point x="590" y="27"/>
			<point x="528" y="27" type="curve" smooth="yes"/>
			<point x="505" y="27"/>
			<point x="486" y="41"/>
			<point x="486" y="71" type="curve" smooth="yes"/>
			<point x="486" y="128"/>
			<point x="567" y="202"/>
			<point x="567" y="275" type="curve" smooth="yes"/>
			<point x="567" y="316"/>
			<point x="528" y="341"/>
		</contour>
		<contour>
			<point x="273" y="130" type="curve" smooth="yes"/>
			<point x="273" y="226"/>
			<point x="397" y="317"/>
			<point x="473" y="317" type="curve" smooth="yes"/>
			<point x="506" y="317"/>
			<point x="531" y="299"/>
			<point x="531" y="266" type="curve" smooth="yes"/>
			<point x="531" y="199"/>
			<point x="421" y="66"/>
			<point x="337" y="66" type="curve" smooth="yes"/>
			<point x="308" y="66"/>
			<point x="273" y="87"/>
		</contour>
		<contour>
			<point x="364" y="-69" type="curve" smooth="yes"/>
			<point x="364" y="-37"/>
			<point x="383" y="-21"/>
			<point x="397" y="-21" type="curve" smooth="yes"/>
			<point x="408" y="-21"/>
			<point x="418" y="-30"/>
			<point x="418" y="-47" type="curve" smooth="yes"/>
			<point x="418" y="-71"/>
			<point x="405" y="-90"/>
			<point x="384" y="-104" type="curve"/>
			<point x="372" y="-96"/>
			<point x="364" y="-85"/>
		</contour>
	</outline>
</glyph>
<glyph name="A" format="2">
	<advance width="995"/>
	<unicode hex="0041"/>
	<outline>
		<contour>
			<point x="616" y="90" type="curve" smooth="yes"/>
			<point x="616" y="32"/>
			<point x="643" y="-12"/>
			<point x="699" y="-12" type="curve" smooth="yes"/>
			<point x="874" y="-12"/>
			<point x="995" y="211"/>
			<point x="995" y="312" type="curve" smooth="yes"/>
			<point x="995" y="350"/>
			<point x="973" y="365"/>
			<point x="948" y="365" type="curve" smooth="yes"/>
			<point x="895" y="365"/>
			<point x="828" y="256"/>
			<point x="795" y="171" type="curve"/>
			<point x="804" y="171" type="line"/>
			<point x="842" y="255"/>
			<point x="894" y="308"/>
			<point x="927" y="308" type="curve" smooth="yes"/>
			<point x="942" y="308"/>
			<point x="956" y="296"/>
			<point x="956" y="267" type="curve" smooth="yes"/>
			<point x="956" y="208"/>
			<point x="883" y="48"/>
			<point x="753" y="48" type="curve" smooth="yes"/>
			<point x="711" y="48"/>
			<point x="680" y="73"/>
			<point x="680" y="143" type="curve" smooth="yes"/>
			<point x="680" y="184"/>
			<point x="690" y="238"/>
			<point x="706" y="297" type="curve"/>
			<point x="760" y="313"/>
			<point x="821" y="343"/>
			<point x="863" y="390" type="curve"/>
			<point x="855" y="395" type="line"/>
			<point x="809" y="354"/>
			<point x="767" y="333"/>
			<point x="714" y="324" type="curve"/>
			<point x="735" y="394"/>
			<point x="763" y="470"/>
			<point x="795" y="544" type="curve"/>
			<point x="928" y="709"/>
			<point x="1023" y="855"/>
			<point x="1023" y="893" type="curve" smooth="yes"/>
			<point x="1023" y="905"/>
			<point x="1017" y="912"/>
			<point x="1007" y="912" type="curve" smooth="yes"/>
			<point x="961" y="912"/>
			<point x="864" y="748"/>
			<point x="766" y="554" type="curve"/>
			<point x="698" y="475"/>
			<point x="619" y="388"/>
			<point x="541" y="313" type="curve"/>
			<point x="495" y="309"/>
			<point x="433" y="286"/>
			<point x="339" y="218" type="curve"/>
			<point x="344" y="210" type="line"/>
			<point x="406" y="250"/>
			<point x="451" y="269"/>
			<point x="506" y="277" type="curve"/>
			<point x="379" y="148"/>
			<point x="240" y="50"/>
			<point x="164" y="50" type="curve" smooth="yes"/>
			<point x="110" y="50"/>
			<point x="94" y="99"/>
			<point x="94" y="124" type="curve" smooth="yes"/>
			<point x="94" y="230"/>
			<point x="179" y="300"/>
			<point x="241" y="300" type="curve" smooth="yes"/>
			<point x="266" y="300"/>
			<point x="274" y="284"/>
			<point x="274" y="266" type="curve" smooth="yes"/>
			<point x="274" y="243"/>
			<point x="246" y="198"/>
			<point x="183" y="154" type="curve"/>
			<point x="188" y="146" type="line"/>
			<point x="269" y="204"/>
			<point x="313" y="252"/>
			<point x="313" y="298" type="curve" smooth="yes"/>
			<point x="313" y="333"/>
			<point x="290" y="356"/>
			<point x="259" y="356" type="curve" smooth="yes"/>
			<point x="168" y="356"/>
			<point x="36" y="184"/>
			<point x="36" y="69" type="curve" smooth="yes"/>
			<point x="36" y="8"/>
			<point x="76" y="-12"/>
			<point x="112" y="-12" type="curve" smooth="yes"/>
			<point x="229" y="-12"/>
			<point x="400" y="120"/>
			<point x="562" y="283" type="curve"/>
			<point x="582" y="284"/>
			<point x="606" y="284"/>
			<point x="632" y="285" type="curve" smooth="yes"/>
			<point x="640" y="285"/>
			<point x="649" y="286"/>
			<point x="659" y="287" type="curve"/>
			<point x="633" y="208"/>
			<point x="616" y="138"/>
		</contour>
		<contour>
			<point x="593" y="314" type="curve"/>
			<point x="638" y="361"/>
			<point x="683" y="411"/>
			<point x="725" y="460" type="curve"/>
			<point x="704" y="412"/>
			<point x="685" y="364"/>
			<point x="669" y="318" type="curve"/>
			<point x="646" y="315"/>
			<point x="621" y="315"/>
		</contour>
		<contour>
			<point x="833" y="629" type="curve"/>
			<point x="903" y="779"/>
			<point x="976" y="899"/>
			<point x="1002" y="899" type="curve" smooth="yes"/>
			<point x="1007" y="899"/>
			<point x="1009" y="896"/>
			<point x="1009" y="887" type="curve" smooth="yes"/>
			<point x="1009" y="860"/>
			<point x="937" y="756"/>
		</contour>
	</outline>
</glyph>
<glyph name="B" format="2">
	<advance width="996"/>
	<unicode hex="0042"/>
	<outline>
		<contour>
			<point x="200" y="266" type="curve" smooth="yes"/>
			<point x="248" y="266"/>
			<point x="282" y="230"/>
			<point x="321" y="186" type="curve"/>
			<point x="453" y="370"/>
			<point x="575" y="698"/>
			<point x="713" y="842" type="curve"/>
			<point x="703" y="842"/>
			<point x="694" y="842"/>
			<point x="684" y="842" type="curve" smooth="yes"/>
			<point x="626" y="842"/>
			<point x="573" y="829"/>
			<point x="535" y="807" type="curve"/>
			<point x="527" y="736"/>
			<point x="492" y="675"/>
			<point x="440" y="675" type="curve" smooth="yes"/>
			<point x="428" y="675"/>
			<point x="420" y="684"/>
			<point x="420" y="695" type="curve" smooth="yes"/>
			<point x="420" y="732"/>
			<point x="456" y="784"/>
			<point x="526" y="822" type="curve"/>
			<point x="528" y="839"/>
			<point x="529" y="857"/>
			<point x="528" y="875" type="curve"/>
			<point x="535" y="875" type="line"/>
			<point x="537" y="860"/>
			<point x="537" y="844"/>
			<point x="536" y="829" type="curve"/>
			<point x="588" y="854"/>
			<point x="655" y="872"/>
			<point x="739" y="872" type="curve" smooth="yes"/>
			<point x="746" y="872" type="line"/>
			<point x="777" y="897"/>
			<point x="809" y="912"/>
			<point x="843" y="912" type="curve" smooth="yes"/>
			<point x="889" y="912"/>
			<point x="933" y="891"/>
			<point x="977" y="843" type="curve"/>
			<point x="969" y="836" type="line"/>
			<point x="939" y="863"/>
			<point x="911" y="883"/>
			<point x="875" y="883" type="curve" smooth="yes"/>
			<point x="852" y="883"/>
			<point x="829" y="877"/>
			<point x="808" y="866" type="curve"/>
			<point x="933" y="844"/>
			<point x="996" y="760"/>
			<point x="996" y="674" type="curve" smooth="yes"/>
			<point x="996" y="580"/>
			<point x="926" y="504"/>
			<point x="842" y="459" type="curve"/>
			<point x="909" y="413"/>
			<point x="951" y="346"/>
			<point x="951" y="272" type="curve" smooth="yes"/>
			<point x="951" y="84"/>
			<point x="762" y="-12"/>
			<point x="602" y="-12" type="curve" smooth="yes"/>
			<point x="449" y="-12"/>
			<point x="371" y="41"/>
			<point x="315" y="94" type="curve"/>
			<point x="256" y="30"/>
			<point x="189" y="-12"/>
			<point x="112" y="-12" type="curve" smooth="yes"/>
			<point x="76" y="-12"/>
			<point x="36" y="8"/>
			<point x="36" y="69" type="curve" smooth="yes"/>
			<point x="36" y="184"/>
			<point x="139" y="266"/>
		</contour>
		<contour>
			<point x="66" y="118" type="curve" smooth="yes"/>
			<point x="66" y="78"/>
			<point x="92" y="53"/>
			<point x="143" y="53" type="curve" smooth="yes"/>
			<point x="190" y="53"/>
			<point x="235" y="84"/>
			<point x="279" y="132" type="curve"/>
			<point x="241" y="171"/>
			<point x="210" y="202"/>
			<point x="158" y="202" type="curve" smooth="yes"/>
			<point x="114" y="202"/>
			<point x="66" y="166"/>
		</contour>
		<contour>
			<point x="356" y="144" type="curve"/>
			<point x="413" y="81"/>
			<point x="486" y="15"/>
			<point x="613" y="15" type="curve" smooth="yes"/>
			<point x="739" y="15"/>
			<point x="886" y="107"/>
			<point x="886" y="276" type="curve" smooth="yes"/>
			<point x="886" y="353"/>
			<point x="856" y="408"/>
			<point x="813" y="444" type="curve"/>
			<point x="762" y="421"/>
			<point x="710" y="409"/>
			<point x="665" y="409" type="curve" smooth="yes"/>
			<point x="588" y="409"/>
			<point x="544" y="420"/>
			<point x="526" y="443" type="curve"/>
			<point x="474" y="336"/>
			<point x="419" y="228"/>
		</contour>
		<contour>
			<point x="467" y="733" type="curve" smooth="yes"/>
			<point x="467" y="725"/>
			<point x="470" y="722"/>
			<point x="474" y="722" type="curve" smooth="yes"/>
			<point x="488" y="722"/>
			<point x="510" y="754"/>
			<point x="521" y="799" type="curve"/>
			<point x="487" y="779"/>
			<point x="467" y="754"/>
		</contour>
		<contour>
			<point x="545" y="456" type="curve" smooth="yes"/>
			<point x="545" y="438"/>
			<point x="587" y="431"/>
			<point x="635" y="431" type="curve" smooth="yes"/>
			<point x="677" y="431"/>
			<point x="729" y="444"/>
			<point x="776" y="468" type="curve"/>
			<point x="736" y="490"/>
			<point x="689" y="500"/>
			<point x="644" y="500" type="curve" smooth="yes"/>
			<point x="580" y="500"/>
			<point x="545" y="470"/>
		</contour>
		<contour>
			<point x="561" y="513" type="curve"/>
			<point x="577" y="518"/>
			<point x="598" y="521"/>
			<point x="626" y="521" type="curve" smooth="yes"/>
			<point x="691" y="521"/>
			<point x="752" y="507"/>
			<point x="802" y="482" type="curve"/>
			<point x="869" y="522"/>
			<point x="924" y="585"/>
			<point x="924" y="663" type="curve" smooth="yes"/>
			<point x="924" y="740"/>
			<point x="868" y="811"/>
			<point x="762" y="834" type="curve"/>
			<point x="690" y="769"/>
			<point x="626" y="646"/>
		</contour>
	</outline>
</glyph>
<glyph name="C" format="2">
	<advance width="841"/>
	<unicode hex="0043"/>
	<outline>
		<contour>
			<point x="63" y="210" type="curve" smooth="yes"/>
			<point x="63" y="270"/>
			<point x="90" y="343"/>
			<point x="135" y="420" type="curve"/>
			<point x="44" y="431"/>
			<point x="1" y="482"/>
			<point x="0" y="551" type="curve" smooth="yes"/>
			<point x="-1" y="637"/>
			<point x="74" y="718"/>
			<point x="157" y="768" type="curve"/>
			<point x="162" y="795"/>
			<point x="186" y="830"/>
			<point x="287" y="876" type="curve"/>
			<point x="296" y="868" type="line"/>
			<point x="250" y="844"/>
			<point x="210" y="820"/>
			<point x="197" y="790" type="curve"/>
			<point x="238" y="809"/>
			<point x="279" y="821"/>
			<point x="310" y="821" type="curve" smooth="yes"/>
			<point x="334" y="821"/>
			<point x="351" y="813"/>
			<point x="351" y="793" type="curve" smooth="yes"/>
			<point x="351" y="762"/>
			<point x="292" y="703"/>
			<point x="218" y="703" type="curve" smooth="yes"/>
			<point x="185" y="703"/>
			<point x="159" y="717"/>
			<point x="156" y="750" type="curve"/>
			<point x="96" y="703"/>
			<point x="50" y="636"/>
			<point x="50" y="568" type="curve" smooth="yes"/>
			<point x="50" y="500"/>
			<point x="86" y="465"/>
			<point x="154" y="450" type="curve"/>
			<point x="301" y="674"/>
			<point x="594" y="912"/>
			<point x="816" y="912" type="curve" smooth="yes"/>
			<point x="898" y="912"/>
			<point x="949" y="869"/>
			<point x="949" y="798" type="curve" smooth="yes"/>
			<point x="949" y="598"/>
			<point x="642" y="427"/>
			<point x="217" y="418" type="curve"/>
			<point x="181" y="346"/>
			<point x="161" y="276"/>
			<point x="161" y="218" type="curve" smooth="yes"/>
			<point x="161" y="96"/>
			<point x="216" y="15"/>
			<point x="359" y="15" type="curve" smooth="yes"/>
			<point x="586" y="15"/>
			<point x="750" y="168"/>
			<point x="750" y="285" type="curve" smooth="yes"/>
			<point x="750" y="316"/>
			<point x="729" y="332"/>
			<point x="710" y="332" type="curve" smooth="yes"/>
			<point x="665" y="332"/>
			<point x="621" y="292"/>
			<point x="580" y="254" type="curve"/>
			<point x="571" y="263" type="line"/>
			<point x="613" y="302"/>
			<point x="675" y="371"/>
			<point x="756" y="371" type="curve" smooth="yes"/>
			<point x="804" y="371"/>
			<point x="829" y="341"/>
			<point x="829" y="310" type="curve" smooth="yes"/>
			<point x="829" y="156"/>
			<point x="579" y="-12"/>
			<point x="342" y="-12" type="curve" smooth="yes"/>
			<point x="145" y="-12"/>
			<point x="63" y="82"/>
		</contour>
		<contour>
			<point x="194" y="772" type="line" smooth="yes"/>
			<point x="193" y="746"/>
			<point x="223" y="742"/>
			<point x="244" y="742" type="curve" smooth="yes"/>
			<point x="289" y="742"/>
			<point x="336" y="774"/>
			<point x="336" y="794" type="curve" smooth="yes"/>
			<point x="336" y="804"/>
			<point x="324" y="810"/>
			<point x="309" y="810" type="curve" smooth="yes"/>
			<point x="273" y="810"/>
			<point x="233" y="797"/>
			<point x="194" y="774" type="curve"/>
		</contour>
		<contour>
			<point x="229" y="441" type="curve"/>
			<point x="245" y="441"/>
			<point x="262" y="441"/>
			<point x="281" y="441" type="curve" smooth="yes"/>
			<point x="549" y="446"/>
			<point x="894" y="636"/>
			<point x="894" y="811" type="curve" smooth="yes"/>
			<point x="894" y="859"/>
			<point x="857" y="888"/>
			<point x="799" y="888" type="curve" smooth="yes"/>
			<point x="586" y="888"/>
			<point x="343" y="658"/>
		</contour>
	</outline>
</glyph>
<glyph name="D" format="2">
	<advance width="954"/>
	<unicode hex="0044"/>
	<outline>
		<contour>
			<point x="925" y="544" type="curve" smooth="yes"/>
			<point x="925" y="691"/>
			<point x="857" y="803"/>
			<point x="726" y="834" type="curve"/>
			<point x="578" y="700"/>
			<point x="469" y="328"/>
			<point x="305" y="125" type="curve"/>
			<point x="345" y="71"/>
			<point x="400" y="22"/>
			<point x="508" y="22" type="curve" smooth="yes"/>
			<point x="717" y="22"/>
			<point x="925" y="268"/>
		</contour>
		<contour>
			<point x="0" y="69" type="curve" smooth="yes"/>
			<point x="0" y="184"/>
			<point x="103" y="266"/>
			<point x="164" y="266" type="curve" smooth="yes"/>
			<point x="216" y="266"/>
			<point x="243" y="225"/>
			<point x="273" y="175" type="curve"/>
			<point x="413" y="356"/>
			<point x="540" y="695"/>
			<point x="679" y="841" type="curve"/>
			<point x="669" y="842"/>
			<point x="659" y="842"/>
			<point x="648" y="842" type="curve" smooth="yes"/>
			<point x="590" y="842"/>
			<point x="537" y="829"/>
			<point x="499" y="807" type="curve"/>
			<point x="491" y="736"/>
			<point x="456" y="675"/>
			<point x="404" y="675" type="curve" smooth="yes"/>
			<point x="392" y="675"/>
			<point x="384" y="684"/>
			<point x="384" y="695" type="curve" smooth="yes"/>
			<point x="384" y="732"/>
			<point x="419" y="785"/>
			<point x="489" y="823" type="curve"/>
			<point x="491" y="840"/>
			<point x="493" y="857"/>
			<point x="492" y="875" type="curve"/>
			<point x="499" y="875" type="line"/>
			<point x="501" y="860"/>
			<point x="501" y="844"/>
			<point x="500" y="829" type="curve"/>
			<point x="552" y="854"/>
			<point x="619" y="872"/>
			<point x="703" y="872" type="curve" smooth="yes"/>
			<point x="711" y="872" type="line"/>
			<point x="743" y="897"/>
			<point x="775" y="912"/>
			<point x="807" y="912" type="curve" smooth="yes"/>
			<point x="853" y="912"/>
			<point x="897" y="891"/>
			<point x="941" y="843" type="curve"/>
			<point x="933" y="836" type="line"/>
			<point x="903" y="863"/>
			<point x="875" y="883"/>
			<point x="839" y="883" type="curve" smooth="yes"/>
			<point x="814" y="883"/>
			<point x="791" y="877"/>
			<point x="769" y="865" type="curve"/>
			<point x="924" y="829"/>
			<point x="1004" y="670"/>
			<point x="1004" y="542" type="curve" smooth="yes"/>
			<point x="1004" y="235"/>
			<point x="716" y="-12"/>
			<point x="472" y="-12" type="curve" smooth="yes"/>
			<point x="354" y="-12"/>
			<point x="297" y="29"/>
			<point x="260" y="75" type="curve"/>
			<point x="205" y="22"/>
			<point x="145" y="-12"/>
			<point x="76" y="-12" type="curve" smooth="yes"/>
			<point x="40" y="-12"/>
			<point x="0" y="8"/>
		</contour>
		<contour>
			<point x="30" y="118" type="curve" smooth="yes"/>
			<point x="30" y="78"/>
			<point x="53" y="57"/>
			<point x="100" y="57" type="curve" smooth="yes"/>
			<point x="144" y="57"/>
			<point x="186" y="81"/>
			<point x="228" y="123" type="curve"/>
			<point x="200" y="168"/>
			<point x="179" y="207"/>
			<point x="122" y="207" type="curve" smooth="yes"/>
			<point x="78" y="207"/>
			<point x="30" y="166"/>
		</contour>
		<contour>
			<point x="431" y="733" type="curve" smooth="yes"/>
			<point x="431" y="725"/>
			<point x="434" y="722"/>
			<point x="438" y="722" type="curve" smooth="yes"/>
			<point x="452" y="722"/>
			<point x="474" y="754"/>
			<point x="485" y="799" type="curve"/>
			<point x="451" y="779"/>
			<point x="431" y="754"/>
		</contour>
	</outline>
</glyph>
<glyph name="E" format="2">
	<advance width="937"/>
	<unicode hex="0045"/>
	<outline>
		<contour>
			<point x="466" y="876" type="curve"/>
			<point x="474" y="868" type="line"/>
			<point x="429" y="844"/>
			<point x="390" y="822"/>
			<point x="377" y="793" type="curve"/>
			<point x="413" y="811"/>
			<point x="455" y="821"/>
			<point x="491" y="821" type="curve" smooth="yes"/>
			<point x="513" y="821"/>
			<point x="528" y="813"/>
			<point x="528" y="793" type="curve" smooth="yes"/>
			<point x="528" y="762"/>
			<point x="470" y="703"/>
			<point x="397" y="703" type="curve" smooth="yes"/>
			<point x="372" y="703"/>
			<point x="351" y="711"/>
			<point x="341" y="729" type="curve"/>
			<point x="330" y="714"/>
			<point x="323" y="697"/>
			<point x="323" y="678" type="curve" smooth="yes"/>
			<point x="323" y="646"/>
			<point x="354" y="621"/>
			<point x="416" y="621" type="curve" smooth="yes"/>
			<point x="426" y="621" type="line"/>
			<point x="508" y="804"/>
			<point x="846" y="920"/>
			<point x="1028" y="912" type="curve" smooth="yes"/>
			<point x="1089" y="909"/>
			<point x="1132" y="891"/>
			<point x="1132" y="855" type="curve" smooth="yes"/>
			<point x="1132" y="773"/>
			<point x="840" y="623"/>
			<point x="469" y="600" type="curve"/>
			<point x="459" y="582"/>
			<point x="454" y="564"/>
			<point x="454" y="547" type="curve"/>
			<point x="532" y="566"/>
			<point x="611" y="575"/>
			<point x="685" y="575" type="curve" smooth="yes"/>
			<point x="724" y="575"/>
			<point x="781" y="563"/>
			<point x="781" y="528" type="curve" smooth="yes"/>
			<point x="781" y="464"/>
			<point x="664" y="444"/>
			<point x="602" y="444" type="curve" smooth="yes"/>
			<point x="523" y="444"/>
			<point x="463" y="464"/>
			<point x="431" y="492" type="curve"/>
			<point x="261" y="426"/>
			<point x="87" y="307"/>
			<point x="87" y="153" type="curve" smooth="yes"/>
			<point x="87" y="73"/>
			<point x="168" y="17"/>
			<point x="357" y="17" type="curve" smooth="yes"/>
			<point x="609" y="17"/>
			<point x="869" y="179"/>
			<point x="869" y="262" type="curve" smooth="yes"/>
			<point x="869" y="289"/>
			<point x="842" y="300"/>
			<point x="809" y="300" type="curve" smooth="yes"/>
			<point x="762" y="300"/>
			<point x="688" y="271"/>
			<point x="653" y="238" type="curve"/>
			<point x="672" y="235"/>
			<point x="698" y="220"/>
			<point x="698" y="195" type="curve" smooth="yes"/>
			<point x="698" y="172"/>
			<point x="683" y="157"/>
			<point x="660" y="157" type="curve" smooth="yes"/>
			<point x="637" y="157"/>
			<point x="618" y="174"/>
			<point x="618" y="197" type="curve" smooth="yes"/>
			<point x="618" y="206"/>
			<point x="622" y="216"/>
			<point x="628" y="225" type="curve"/>
			<point x="609" y="223"/>
			<point x="587" y="215"/>
			<point x="559" y="191" type="curve"/>
			<point x="552" y="197" type="line"/>
			<point x="577" y="217"/>
			<point x="600" y="235"/>
			<point x="638" y="238" type="curve"/>
			<point x="678" y="282"/>
			<point x="770" y="316"/>
			<point x="836" y="316" type="curve" smooth="yes"/>
			<point x="888" y="316"/>
			<point x="927" y="305"/>
			<point x="927" y="246" type="curve" smooth="yes"/>
			<point x="927" y="115"/>
			<point x="597" y="-11"/>
			<point x="409" y="-11" type="curve" smooth="yes"/>
			<point x="170" y="-11"/>
			<point x="-1" y="49"/>
			<point x="0" y="179" type="curve" smooth="yes"/>
			<point x="1" y="351"/>
			<point x="194" y="476"/>
			<point x="408" y="536" type="curve"/>
			<point x="408" y="540" type="line" smooth="yes"/>
			<point x="408" y="560"/>
			<point x="411" y="580"/>
			<point x="418" y="598" type="curve"/>
			<point x="376" y="598" type="line" smooth="yes"/>
			<point x="306" y="596"/>
			<point x="274" y="623"/>
			<point x="272" y="656" type="curve" smooth="yes"/>
			<point x="270" y="700"/>
			<point x="297" y="739"/>
			<point x="336" y="768" type="curve"/>
			<point x="340" y="794"/>
			<point x="364" y="829"/>
		</contour>
		<contour>
			<point x="375" y="760" type="curve"/>
			<point x="383" y="744"/>
			<point x="405" y="742"/>
			<point x="423" y="742" type="curve" smooth="yes"/>
			<point x="468" y="742"/>
			<point x="512" y="771"/>
			<point x="512" y="791" type="curve" smooth="yes"/>
			<point x="512" y="801"/>
			<point x="504" y="804"/>
			<point x="493" y="804" type="curve" smooth="yes"/>
			<point x="471" y="804"/>
			<point x="416" y="788"/>
		</contour>
		<contour>
			<point x="466" y="505" type="curve"/>
			<point x="485" y="478"/>
			<point x="526" y="469"/>
			<point x="579" y="469" type="curve" smooth="yes"/>
			<point x="664" y="469"/>
			<point x="743" y="506"/>
			<point x="743" y="534" type="curve" smooth="yes"/>
			<point x="743" y="546"/>
			<point x="729" y="554"/>
			<point x="701" y="554" type="curve" smooth="yes"/>
			<point x="644" y="554"/>
			<point x="557" y="537"/>
		</contour>
		<contour>
			<point x="484" y="624" type="curve"/>
			<point x="772" y="647"/>
			<point x="1060" y="804"/>
			<point x="1060" y="863" type="curve" smooth="yes"/>
			<point x="1060" y="884"/>
			<point x="1044" y="895"/>
			<point x="1012" y="895" type="curve" smooth="yes"/>
			<point x="822" y="895"/>
			<point x="570" y="745"/>
		</contour>
		<contour>
			<point x="635" y="205" type="curve" smooth="yes"/>
			<point x="635" y="198"/>
			<point x="641" y="190"/>
			<point x="648" y="190" type="curve" smooth="yes"/>
			<point x="654" y="190"/>
			<point x="660" y="194"/>
			<point x="660" y="203" type="curve" smooth="yes"/>
			<point x="660" y="211"/>
			<point x="653" y="221"/>
			<point x="642" y="224" type="curve"/>
			<point x="637" y="218"/>
			<point x="635" y="212"/>
		</contour>
	</outline>
</glyph>
<glyph name="F" format="2">
	<advance width="523"/>
	<unicode hex="0046"/>
	<outline>
		<contour>
			<point x="701" y="811" type="curve" smooth="yes"/>
			<point x="701" y="800" type="line"/>
			<point x="806" y="842"/>
			<point x="904" y="912"/>
			<point x="1011" y="912" type="curve" smooth="yes"/>
			<point x="1063" y="912"/>
			<point x="1099" y="877"/>
			<point x="1099" y="834" type="curve" smooth="yes"/>
			<point x="1099" y="786"/>
			<point x="1054" y="758"/>
			<point x="1004" y="758" type="curve" smooth="yes"/>
			<point x="973" y="758"/>
			<point x="964" y="769"/>
			<point x="958" y="775" type="curve"/>
			<point x="965" y="781" type="line"/>
			<point x="972" y="772"/>
			<point x="989" y="767"/>
			<point x="1002" y="767" type="curve" smooth="yes"/>
			<point x="1045" y="767"/>
			<point x="1072" y="783"/>
			<point x="1072" y="816" type="curve" smooth="yes"/>
			<point x="1072" y="852"/>
			<point x="1024" y="876"/>
			<point x="984" y="876" type="curve" smooth="yes"/>
			<point x="896" y="876"/>
			<point x="793" y="811"/>
			<point x="697" y="765" type="curve"/>
			<point x="684" y="692"/>
			<point x="644" y="590"/>
			<point x="589" y="484" type="curve"/>
			<point x="617" y="477"/>
			<point x="648" y="472"/>
			<point x="681" y="472" type="curve" smooth="yes"/>
			<point x="780" y="472"/>
			<point x="896" y="500"/>
			<point x="921" y="577" type="curve"/>
			<point x="907" y="571"/>
			<point x="894" y="567"/>
			<point x="879" y="567" type="curve" smooth="yes"/>
			<point x="818" y="567"/>
			<point x="797" y="594"/>
			<point x="797" y="620" type="curve" smooth="yes"/>
			<point x="797" y="657"/>
			<point x="827" y="675"/>
			<point x="864" y="675" type="curve" smooth="yes"/>
			<point x="910" y="675"/>
			<point x="935" y="646"/>
			<point x="942" y="614" type="curve"/>
			<point x="980" y="633"/>
			<point x="1011" y="672"/>
			<point x="1026" y="693" type="curve"/>
			<point x="1034" y="685" type="line"/>
			<point x="1012" y="656"/>
			<point x="980" y="616"/>
			<point x="944" y="591" type="curve"/>
			<point x="940" y="478"/>
			<point x="835" y="430"/>
			<point x="721" y="428" type="curve" smooth="yes"/>
			<point x="667" y="428"/>
			<point x="618" y="440"/>
			<point x="574" y="456" type="curve"/>
			<point x="446" y="227"/>
			<point x="246" y="-12"/>
			<point x="76" y="-12" type="curve" smooth="yes"/>
			<point x="40" y="-12"/>
			<point x="0" y="8"/>
			<point x="0" y="69" type="curve" smooth="yes"/>
			<point x="0" y="184"/>
			<point x="132" y="356"/>
			<point x="223" y="356" type="curve" smooth="yes"/>
			<point x="254" y="356"/>
			<point x="277" y="333"/>
			<point x="277" y="298" type="curve" smooth="yes"/>
			<point x="277" y="252"/>
			<point x="233" y="204"/>
			<point x="152" y="146" type="curve"/>
			<point x="147" y="154" type="line"/>
			<point x="210" y="198"/>
			<point x="238" y="243"/>
			<point x="238" y="266" type="curve" smooth="yes"/>
			<point x="238" y="284"/>
			<point x="230" y="300"/>
			<point x="205" y="300" type="curve" smooth="yes"/>
			<point x="143" y="300"/>
			<point x="45" y="231"/>
			<point x="45" y="117" type="curve" smooth="yes"/>
			<point x="45" y="79"/>
			<point x="68" y="59"/>
			<point x="107" y="59" type="curve" smooth="yes"/>
			<point x="230" y="59"/>
			<point x="409" y="271"/>
			<point x="524" y="477" type="curve"/>
			<point x="495" y="491"/>
			<point x="469" y="505"/>
			<point x="445" y="518" type="curve"/>
			<point x="422" y="480"/>
			<point x="390" y="450"/>
			<point x="349" y="450" type="curve" smooth="yes"/>
			<point x="323" y="450"/>
			<point x="299" y="465"/>
			<point x="299" y="495" type="curve" smooth="yes"/>
			<point x="299" y="544"/>
			<point x="333" y="570"/>
			<point x="374" y="570" type="curve" smooth="yes"/>
			<point x="392" y="570"/>
			<point x="417" y="559"/>
			<point x="446" y="544" type="curve"/>
			<point x="451" y="552"/>
			<point x="455" y="560"/>
			<point x="459" y="569" type="curve"/>
			<point x="467" y="565" type="line"/>
			<point x="464" y="557"/>
			<point x="460" y="547"/>
			<point x="456" y="539" type="curve"/>
			<point x="480" y="526"/>
			<point x="507" y="513"/>
			<point x="537" y="501" type="curve"/>
			<point x="585" y="588"/>
			<point x="619" y="673"/>
			<point x="631" y="738" type="curve"/>
			<point x="602" y="727"/>
			<point x="573" y="721"/>
			<point x="546" y="721" type="curve" smooth="yes"/>
			<point x="467" y="721"/>
			<point x="421" y="757"/>
			<point x="421" y="799" type="curve" smooth="yes"/>
			<point x="421" y="876"/>
			<point x="522" y="912"/>
			<point x="574" y="912" type="curve" smooth="yes"/>
			<point x="660" y="912"/>
			<point x="701" y="883"/>
		</contour>
		<contour>
			<point x="317" y="521" type="curve" smooth="yes"/>
			<point x="317" y="498"/>
			<point x="338" y="486"/>
			<point x="366" y="486" type="curve" smooth="yes"/>
			<point x="393" y="486"/>
			<point x="415" y="502"/>
			<point x="433" y="524" type="curve"/>
			<point x="402" y="539"/>
			<point x="377" y="549"/>
			<point x="354" y="549" type="curve" smooth="yes"/>
			<point x="330" y="549"/>
			<point x="317" y="536"/>
		</contour>
		<contour>
			<point x="469" y="830" type="curve" smooth="yes"/>
			<point x="469" y="788"/>
			<point x="506" y="768"/>
			<point x="560" y="768" type="curve" smooth="yes"/>
			<point x="586" y="768"/>
			<point x="612" y="772"/>
			<point x="637" y="778" type="curve"/>
			<point x="637" y="787" type="line" smooth="yes"/>
			<point x="639" y="841"/>
			<point x="608" y="884"/>
			<point x="541" y="884" type="curve" smooth="yes"/>
			<point x="508" y="884"/>
			<point x="469" y="863"/>
		</contour>
		<contour>
			<point x="845" y="636" type="curve" smooth="yes"/>
			<point x="845" y="626"/>
			<point x="857" y="603"/>
			<point x="899" y="603" type="curve" smooth="yes"/>
			<point x="908" y="603"/>
			<point x="917" y="605"/>
			<point x="925" y="607" type="curve"/>
			<point x="925" y="649"/>
			<point x="896" y="662"/>
			<point x="874" y="662" type="curve" smooth="yes"/>
			<point x="856" y="662"/>
			<point x="845" y="651"/>
		</contour>
	</outline>
</glyph>
<glyph name="G" format="2">
	<advance width="902"/>
	<unicode hex="0047"/>
	<outline>
		<contour>
			<point x="258" y="878" type="curve"/>
			<point x="268" y="875" type="line"/>
			<point x="257" y="834"/>
			<point x="283" y="816"/>
			<point x="308" y="809" type="curve"/>
			<point x="382" y="870"/>
			<point x="462" y="912"/>
			<point x="516" y="912" type="curve" smooth="yes"/>
			<point x="539" y="912"/>
			<point x="549" y="899"/>
			<point x="549" y="883" type="curve" smooth="yes"/>
			<point x="549" y="833"/>
			<point x="464" y="776"/>
			<point x="366" y="776" type="curve" smooth="yes"/>
			<point x="354" y="776"/>
			<point x="337" y="778"/>
			<point x="322" y="783" type="curve"/>
			<point x="243" y="712"/>
			<point x="184" y="636"/>
			<point x="184" y="563" type="curve" smooth="yes"/>
			<point x="184" y="534"/>
			<point x="192" y="506"/>
			<point x="213" y="495" type="curve"/>
			<point x="375" y="711"/>
			<point x="759" y="912"/>
			<point x="935" y="912" type="curve" smooth="yes"/>
			<point x="986" y="912"/>
			<point x="1014" y="888"/>
			<point x="1014" y="847" type="curve" smooth="yes"/>
			<point x="1014" y="678"/>
			<point x="495" y="411"/>
			<point x="252" y="411" type="curve" smooth="yes"/>
			<point x="243" y="411"/>
			<point x="234" y="412"/>
			<point x="225" y="413" type="curve"/>
			<point x="208" y="388"/>
			<point x="202" y="353"/>
			<point x="202" y="326" type="curve" smooth="yes"/>
			<point x="202" y="258"/>
			<point x="257" y="210"/>
			<point x="366" y="210" type="curve" smooth="yes"/>
			<point x="451" y="210"/>
			<point x="559" y="248"/>
			<point x="652" y="289" type="curve"/>
			<point x="765" y="426"/>
			<point x="854" y="532"/>
			<point x="911" y="532" type="curve" smooth="yes"/>
			<point x="933" y="532"/>
			<point x="938" y="518"/>
			<point x="938" y="510" type="curve" smooth="yes"/>
			<point x="938" y="456"/>
			<point x="842" y="373"/>
			<point x="719" y="302" type="curve"/>
			<point x="662" y="228"/>
			<point x="596" y="140"/>
			<point x="524" y="55" type="curve"/>
			<point x="567" y="44"/>
			<point x="608" y="35"/>
			<point x="651" y="35" type="curve" smooth="yes"/>
			<point x="737" y="35"/>
			<point x="806" y="89"/>
			<point x="821" y="145" type="curve"/>
			<point x="783" y="150"/>
			<point x="763" y="177"/>
			<point x="763" y="199" type="curve" smooth="yes"/>
			<point x="763" y="222"/>
			<point x="779" y="235"/>
			<point x="798" y="235" type="curve" smooth="yes"/>
			<point x="818" y="235"/>
			<point x="843" y="217"/>
			<point x="843" y="167" type="curve" smooth="yes"/>
			<point x="843" y="164"/>
			<point x="843" y="161"/>
			<point x="842" y="158" type="curve"/>
			<point x="858" y="159"/>
			<point x="873" y="170"/>
			<point x="882" y="179" type="curve"/>
			<point x="886" y="172" type="line"/>
			<point x="873" y="158"/>
			<point x="855" y="148"/>
			<point x="841" y="145" type="curve"/>
			<point x="827" y="81"/>
			<point x="748" y="11"/>
			<point x="619" y="11" type="curve" smooth="yes"/>
			<point x="568" y="11"/>
			<point x="528" y="14"/>
			<point x="492" y="18" type="curve"/>
			<point x="316" y="-185"/>
			<point x="112" y="-372"/>
			<point x="-71" y="-372" type="curve" smooth="yes"/>
			<point x="-161" y="-372"/>
			<point x="-216" y="-330"/>
			<point x="-216" y="-244" type="curve" smooth="yes"/>
			<point x="-216" y="-31"/>
			<point x="47" y="102"/>
			<point x="261" y="102" type="curve" smooth="yes"/>
			<point x="342" y="102"/>
			<point x="408" y="86"/>
			<point x="467" y="71" type="curve"/>
			<point x="521" y="130"/>
			<point x="571" y="192"/>
			<point x="618" y="249" type="curve"/>
			<point x="510" y="199"/>
			<point x="396" y="163"/>
			<point x="312" y="163" type="curve" smooth="yes"/>
			<point x="194" y="163"/>
			<point x="143" y="212"/>
			<point x="143" y="307" type="curve" smooth="yes"/>
			<point x="143" y="348"/>
			<point x="156" y="390"/>
			<point x="176" y="431" type="curve"/>
			<point x="141" y="451"/>
			<point x="117" y="487"/>
			<point x="117" y="526" type="curve" smooth="yes"/>
			<point x="117" y="608"/>
			<point x="197" y="715"/>
			<point x="291" y="795" type="curve"/>
			<point x="264" y="811"/>
			<point x="244" y="837"/>
		</contour>
		<contour>
			<point x="-186" y="-217" type="curve" smooth="yes"/>
			<point x="-186" y="-260"/>
			<point x="-158" y="-307"/>
			<point x="-94" y="-307" type="curve" smooth="yes"/>
			<point x="87" y="-307"/>
			<point x="267" y="-147"/>
			<point x="427" y="26" type="curve"/>
			<point x="372" y="34"/>
			<point x="318" y="42"/>
			<point x="239" y="42" type="curve" smooth="yes"/>
			<point x="-30" y="42"/>
			<point x="-186" y="-93"/>
		</contour>
		<contour>
			<point x="254" y="475" type="curve"/>
			<point x="264" y="472"/>
			<point x="279" y="471"/>
			<point x="303" y="471" type="curve" smooth="yes"/>
			<point x="516" y="471"/>
			<point x="984" y="751"/>
			<point x="984" y="861" type="curve" smooth="yes"/>
			<point x="984" y="883"/>
			<point x="970" y="896"/>
			<point x="936" y="896" type="curve" smooth="yes"/>
			<point x="803" y="896"/>
			<point x="392" y="696"/>
		</contour>
		<contour>
			<point x="346" y="805" type="curve"/>
			<point x="459" y="806"/>
			<point x="537" y="850"/>
			<point x="537" y="888" type="curve" smooth="yes"/>
			<point x="537" y="896"/>
			<point x="530" y="900"/>
			<point x="520" y="900" type="curve" smooth="yes"/>
			<point x="476" y="900"/>
			<point x="408" y="860"/>
		</contour>
		<contour>
			<point x="747" y="339" type="curve"/>
			<point x="849" y="397"/>
			<point x="924" y="464"/>
			<point x="924" y="504" type="curve" smooth="yes"/>
			<point x="924" y="515"/>
			<point x="917" y="518"/>
			<point x="910" y="518" type="curve" smooth="yes"/>
			<point x="886" y="518"/>
			<point x="828" y="444"/>
		</contour>
		<contour>
			<point x="775" y="204" type="curve" smooth="yes"/>
			<point x="775" y="181"/>
			<point x="790" y="162"/>
			<point x="824" y="158" type="curve"/>
			<point x="824" y="162"/>
			<point x="824" y="166"/>
			<point x="824" y="170" type="curve" smooth="yes"/>
			<point x="824" y="199"/>
			<point x="812" y="220"/>
			<point x="792" y="220" type="curve" smooth="yes"/>
			<point x="783" y="220"/>
			<point x="775" y="212"/>
		</contour>
	</outline>
</glyph>
<glyph name="H" format="2">
	<advance width="897"/>
	<unicode hex="0048"/>
	<outline>
		<contour>
			<point x="1135" y="847" type="curve" smooth="yes"/>
			<point x="1135" y="687"/>
			<point x="935" y="570"/>
			<point x="685" y="474" type="curve"/>
			<point x="609" y="351"/>
			<point x="552" y="226"/>
			<point x="552" y="156" type="curve" smooth="yes"/>
			<point x="552" y="80"/>
			<point x="593" y="48"/>
			<point x="642" y="48" type="curve" smooth="yes"/>
			<point x="747" y="48"/>
			<point x="819" y="149"/>
			<point x="819" y="207" type="curve" smooth="yes"/>
			<point x="819" y="243"/>
			<point x="791" y="263"/>
			<point x="756" y="262" type="curve" smooth="yes"/>
			<point x="732" y="261"/>
			<point x="702" y="243"/>
			<point x="669" y="197" type="curve"/>
			<point x="661" y="204" type="line"/>
			<point x="682" y="239"/>
			<point x="718" y="315"/>
			<point x="786" y="315" type="curve" smooth="yes"/>
			<point x="822" y="315"/>
			<point x="852" y="285"/>
			<point x="852" y="240" type="curve" smooth="yes"/>
			<point x="852" y="120"/>
			<point x="703" y="-12"/>
			<point x="575" y="-12" type="curve" smooth="yes"/>
			<point x="508" y="-12"/>
			<point x="470" y="26"/>
			<point x="472" y="94" type="curve" smooth="yes"/>
			<point x="475" y="169"/>
			<point x="543" y="311"/>
			<point x="635" y="456" type="curve"/>
			<point x="606" y="445" type="line" smooth="yes"/>
			<point x="575" y="434"/>
			<point x="544" y="424"/>
			<point x="514" y="413" type="curve"/>
			<point x="396" y="197"/>
			<point x="253" y="-12"/>
			<point x="76" y="-12" type="curve" smooth="yes"/>
			<point x="40" y="-12"/>
			<point x="0" y="8"/>
			<point x="0" y="69" type="curve" smooth="yes"/>
			<point x="0" y="243"/>
			<point x="230" y="349"/>
			<point x="481" y="438" type="curve"/>
			<point x="528" y="524"/>
			<point x="573" y="614"/>
			<point x="617" y="692" type="curve"/>
			<point x="538" y="661"/>
			<point x="454" y="640"/>
			<point x="393" y="640" type="curve" smooth="yes"/>
			<point x="359" y="640"/>
			<point x="338" y="656"/>
			<point x="338" y="690" type="curve" smooth="yes"/>
			<point x="338" y="703"/>
			<point x="343" y="717"/>
			<point x="353" y="733" type="curve"/>
			<point x="326" y="734"/>
			<point x="309" y="748"/>
			<point x="309" y="768" type="curve" smooth="yes"/>
			<point x="309" y="796"/>
			<point x="330" y="820"/>
			<point x="365" y="840" type="curve"/>
			<point x="371" y="831" type="line"/>
			<point x="345" y="815"/>
			<point x="327" y="796"/>
			<point x="327" y="775" type="curve" smooth="yes"/>
			<point x="327" y="759"/>
			<point x="343" y="750"/>
			<point x="364" y="750" type="curve"/>
			<point x="396" y="792"/>
			<point x="450" y="833"/>
			<point x="501" y="833" type="curve" smooth="yes"/>
			<point x="514" y="833"/>
			<point x="526" y="826"/>
			<point x="526" y="811" type="curve" smooth="yes"/>
			<point x="526" y="770"/>
			<point x="463" y="742"/>
			<point x="387" y="734" type="curve"/>
			<point x="384" y="729"/>
			<point x="383" y="724"/>
			<point x="383" y="719" type="curve" smooth="yes"/>
			<point x="383" y="702"/>
			<point x="400" y="687"/>
			<point x="426" y="687" type="curve" smooth="yes"/>
			<point x="477" y="687"/>
			<point x="567" y="712"/>
			<point x="648" y="746" type="curve"/>
			<point x="706" y="843"/>
			<point x="762" y="911"/>
			<point x="819" y="911" type="curve" smooth="yes"/>
			<point x="847" y="911"/>
			<point x="860" y="891"/>
			<point x="860" y="874" type="curve" smooth="yes"/>
			<point x="860" y="825"/>
			<point x="775" y="762"/>
			<point x="671" y="715" type="curve"/>
			<point x="631" y="640"/>
			<point x="587" y="549"/>
			<point x="538" y="457" type="curve"/>
			<point x="567" y="467" type="line" smooth="yes"/>
			<point x="600" y="478"/>
			<point x="633" y="490"/>
			<point x="665" y="501" type="curve"/>
			<point x="805" y="710"/>
			<point x="985" y="911"/>
			<point x="1079" y="911" type="curve" smooth="yes"/>
			<point x="1114" y="911"/>
			<point x="1135" y="891"/>
		</contour>
		<contour>
			<point x="78" y="135" type="curve" smooth="yes"/>
			<point x="78" y="107"/>
			<point x="98" y="76"/>
			<point x="133" y="76" type="curve" smooth="yes"/>
			<point x="254" y="76"/>
			<point x="360" y="222"/>
			<point x="456" y="393" type="curve"/>
			<point x="252" y="320"/>
			<point x="78" y="246"/>
		</contour>
		<contour>
			<point x="399" y="755" type="curve"/>
			<point x="446" y="764"/>
			<point x="511" y="788"/>
			<point x="511" y="811" type="curve" smooth="yes"/>
			<point x="511" y="816"/>
			<point x="508" y="820"/>
			<point x="499" y="820" type="curve" smooth="yes"/>
			<point x="476" y="820"/>
			<point x="425" y="788"/>
		</contour>
		<contour>
			<point x="702" y="770" type="curve"/>
			<point x="775" y="806"/>
			<point x="832" y="845"/>
			<point x="832" y="873" type="curve" smooth="yes"/>
			<point x="832" y="884"/>
			<point x="827" y="889"/>
			<point x="816" y="889" type="curve" smooth="yes"/>
			<point x="783" y="889"/>
			<point x="744" y="842"/>
		</contour>
		<contour>
			<point x="715" y="520" type="curve"/>
			<point x="901" y="592"/>
			<point x="1055" y="678"/>
			<point x="1055" y="780" type="curve" smooth="yes"/>
			<point x="1055" y="804"/>
			<point x="1038" y="819"/>
			<point x="1019" y="819" type="curve" smooth="yes"/>
			<point x="948" y="819"/>
			<point x="819" y="678"/>
		</contour>
	</outline>
</glyph>
<glyph name="J" format="2">
	<advance width="761"/>
	<unicode hex="004A"/>
	<outline>
		<contour>
			<point x="301" y="584" type="curve"/>
			<point x="295" y="578" type="line"/>
			<point x="304" y="564"/>
			<point x="320" y="550"/>
			<point x="355" y="550" type="curve" smooth="yes"/>
			<point x="432" y="550"/>
			<point x="514" y="652"/>
			<point x="536" y="731" type="curve"/>
			<point x="568" y="723"/>
			<point x="612" y="719"/>
			<point x="670" y="719" type="curve" smooth="yes"/>
			<point x="692" y="719"/>
			<point x="715" y="721"/>
			<point x="738" y="725" type="curve"/>
			<point x="646" y="572"/>
			<point x="541" y="351"/>
			<point x="426" y="153" type="curve"/>
			<point x="390" y="163"/>
			<point x="352" y="171"/>
			<point x="309" y="171" type="curve" smooth="yes"/>
			<point x="288" y="171"/>
			<point x="268" y="168"/>
			<point x="247" y="164" type="curve"/>
			<point x="230" y="186"/>
			<point x="204" y="197"/>
			<point x="176" y="197" type="curve" smooth="yes"/>
			<point x="2" y="197"/>
			<point x="-180" y="-50"/>
			<point x="-180" y="-214" type="curve" smooth="yes"/>
			<point x="-180" y="-298"/>
			<point x="-141" y="-372"/>
			<point x="-49" y="-372" type="curve" smooth="yes"/>
			<point x="139" y="-372"/>
			<point x="314" y="-152"/>
			<point x="466" y="105" type="curve"/>
			<point x="486" y="102"/>
			<point x="506" y="100"/>
			<point x="527" y="100" type="curve" smooth="yes"/>
			<point x="595" y="100"/>
			<point x="676" y="141"/>
			<point x="696" y="203" type="curve"/>
			<point x="711" y="204"/>
			<point x="730" y="215"/>
			<point x="744" y="230" type="curve"/>
			<point x="740" y="237" type="line"/>
			<point x="731" y="227"/>
			<point x="714" y="217"/>
			<point x="700" y="215" type="curve"/>
			<point x="700" y="221"/>
			<point x="701" y="227"/>
			<point x="701" y="233" type="curve" smooth="yes"/>
			<point x="701" y="274"/>
			<point x="676" y="292"/>
			<point x="656" y="292" type="curve" smooth="yes"/>
			<point x="637" y="292"/>
			<point x="621" y="279"/>
			<point x="621" y="257" type="curve" smooth="yes"/>
			<point x="621" y="235"/>
			<point x="640" y="207"/>
			<point x="679" y="203" type="curve"/>
			<point x="665" y="150"/>
			<point x="606" y="127"/>
			<point x="563" y="127" type="curve" smooth="yes"/>
			<point x="537" y="127"/>
			<point x="511" y="131"/>
			<point x="486" y="138" type="curve"/>
			<point x="610" y="353"/>
			<point x="718" y="588"/>
			<point x="801" y="739" type="curve"/>
			<point x="887" y="765"/>
			<point x="962" y="814"/>
			<point x="962" y="874" type="curve" smooth="yes"/>
			<point x="962" y="891"/>
			<point x="950" y="911"/>
			<point x="921" y="911" type="curve" smooth="yes"/>
			<point x="876" y="911"/>
			<point x="825" y="858"/>
			<point x="769" y="774" type="curve"/>
			<point x="731" y="767"/>
			<point x="689" y="762"/>
			<point x="646" y="762" type="curve" smooth="yes"/>
			<point x="610" y="762"/>
			<point x="572" y="765"/>
			<point x="541" y="770" type="curve"/>
			<point x="539" y="808"/>
			<point x="516" y="831"/>
			<point x="491" y="831" type="curve" smooth="yes"/>
			<point x="472" y="831"/>
			<point x="459" y="819"/>
			<point x="459" y="798" type="curve" smooth="yes"/>
			<point x="459" y="772"/>
			<point x="473" y="752"/>
			<point x="509" y="738" type="curve"/>
			<point x="487" y="659"/>
			<point x="408" y="573"/>
			<point x="334" y="573" type="curve" smooth="yes"/>
			<point x="316" y="573"/>
			<point x="308" y="577"/>
		</contour>
		<contour>
			<point x="-136" y="-164" type="curve" smooth="yes"/>
			<point x="-136" y="-12"/>
			<point x="22" y="153"/>
			<point x="162" y="155" type="curve" smooth="yes"/>
			<point x="175" y="155"/>
			<point x="186" y="153"/>
			<point x="196" y="149" type="curve"/>
			<point x="115" y="119"/>
			<point x="48" y="59"/>
			<point x="48" y="-15" type="curve" smooth="yes"/>
			<point x="48" y="-56"/>
			<point x="75" y="-86"/>
			<point x="112" y="-86" type="curve" smooth="yes"/>
			<point x="190" y="-86"/>
			<point x="270" y="7"/>
			<point x="270" y="91" type="curve" smooth="yes"/>
			<point x="270" y="107"/>
			<point x="268" y="121"/>
			<point x="264" y="133" type="curve"/>
			<point x="271" y="134"/>
			<point x="279" y="134"/>
			<point x="286" y="134" type="curve" smooth="yes"/>
			<point x="329" y="134"/>
			<point x="366" y="125"/>
			<point x="405" y="117" type="curve"/>
			<point x="271" y="-106"/>
			<point x="124" y="-289"/>
			<point x="-33" y="-289" type="curve" smooth="yes"/>
			<point x="-99" y="-289"/>
			<point x="-136" y="-238"/>
		</contour>
		<contour>
			<point x="69" y="2" type="curve" smooth="yes"/>
			<point x="69" y="63"/>
			<point x="136" y="112"/>
			<point x="224" y="128" type="curve"/>
			<point x="235" y="113"/>
			<point x="241" y="91"/>
			<point x="241" y="66" type="curve" smooth="yes"/>
			<point x="241" y="-5"/>
			<point x="183" y="-53"/>
			<point x="129" y="-53" type="curve" smooth="yes"/>
			<point x="87" y="-53"/>
			<point x="69" y="-24"/>
		</contour>
		<contour>
			<point x="472" y="806" type="curve" smooth="yes"/>
			<point x="472" y="814"/>
			<point x="476" y="819"/>
			<point x="484" y="819" type="curve" smooth="yes"/>
			<point x="494" y="819"/>
			<point x="516" y="806"/>
			<point x="516" y="780" type="curve" smooth="yes"/>
			<point x="516" y="776" type="line"/>
			<point x="489" y="783"/>
			<point x="472" y="793"/>
		</contour>
		<contour>
			<point x="633" y="261" type="curve" smooth="yes"/>
			<point x="633" y="269"/>
			<point x="640" y="278"/>
			<point x="650" y="278" type="curve" smooth="yes"/>
			<point x="670" y="278"/>
			<point x="682" y="256"/>
			<point x="682" y="228" type="curve" smooth="yes"/>
			<point x="682" y="223"/>
			<point x="682" y="220"/>
			<point x="682" y="215" type="curve"/>
			<point x="648" y="220"/>
			<point x="633" y="239"/>
		</contour>
		<contour>
			<point x="830" y="789" type="curve"/>
			<point x="869" y="856"/>
			<point x="903" y="896"/>
			<point x="928" y="896" type="curve" smooth="yes"/>
			<point x="938" y="896"/>
			<point x="946" y="890"/>
			<point x="946" y="881" type="curve" smooth="yes"/>
			<point x="946" y="845"/>
			<point x="898" y="811"/>
		</contour>
	</outline>
</glyph>
<glyph name="K" format="2">
	<advance width="1084"/>
	<unicode hex="004B"/>
	<outline>
		<contour>
			<point x="1112" y="840" type="curve"/>
			<point x="1121" y="833" type="line"/>
			<point x="1076" y="801"/>
			<point x="1066" y="777"/>
			<point x="1066" y="759" type="curve" smooth="yes"/>
			<point x="1066" y="742"/>
			<point x="1079" y="730"/>
			<point x="1102" y="730" type="curve" smooth="yes"/>
			<point x="1139" y="730"/>
			<point x="1177" y="763"/>
			<point x="1177" y="806" type="curve" smooth="yes"/>
			<point x="1177" y="837"/>
			<point x="1160" y="866"/>
			<point x="1128" y="866" type="curve" smooth="yes"/>
			<point x="1000" y="866"/>
			<point x="849" y="565"/>
			<point x="654" y="452" type="curve"/>
			<point x="657" y="427"/>
			<point x="658" y="397"/>
			<point x="658" y="363" type="curve" smooth="yes"/>
			<point x="658" y="105"/>
			<point x="722" y="32"/>
			<point x="848" y="32" type="curve" smooth="yes"/>
			<point x="935" y="31"/>
			<point x="996" y="108"/>
			<point x="996" y="190" type="curve" smooth="yes"/>
			<point x="996" y="234"/>
			<point x="963" y="261"/>
			<point x="930" y="261" type="curve" smooth="yes"/>
			<point x="898" y="261"/>
			<point x="858" y="243"/>
			<point x="792" y="152" type="curve"/>
			<point x="784" y="159" type="line"/>
			<point x="842" y="251"/>
			<point x="899" y="312"/>
			<point x="966" y="312" type="curve" smooth="yes"/>
			<point x="1020" y="312"/>
			<point x="1045" y="267"/>
			<point x="1045" y="217" type="curve" smooth="yes"/>
			<point x="1045" y="135"/>
			<point x="943" y="-12"/>
			<point x="777" y="-12" type="curve" smooth="yes"/>
			<point x="654" y="-12"/>
			<point x="598" y="92"/>
			<point x="598" y="303" type="curve" smooth="yes"/>
			<point x="598" y="351"/>
			<point x="598" y="392"/>
			<point x="595" y="424" type="curve"/>
			<point x="568" y="415"/>
			<point x="539" y="409"/>
			<point x="510" y="409" type="curve" smooth="yes"/>
			<point x="509" y="409" type="line"/>
			<point x="388" y="194"/>
			<point x="244" y="-12"/>
			<point x="76" y="-12" type="curve" smooth="yes"/>
			<point x="40" y="-12"/>
			<point x="0" y="8"/>
			<point x="0" y="69" type="curve" smooth="yes"/>
			<point x="0" y="184"/>
			<point x="132" y="356"/>
			<point x="223" y="356" type="curve" smooth="yes"/>
			<point x="254" y="356"/>
			<point x="277" y="333"/>
			<point x="277" y="298" type="curve" smooth="yes"/>
			<point x="277" y="252"/>
			<point x="233" y="204"/>
			<point x="152" y="146" type="curve"/>
			<point x="147" y="154" type="line"/>
			<point x="210" y="198"/>
			<point x="238" y="243"/>
			<point x="238" y="266" type="curve" smooth="yes"/>
			<point x="238" y="284"/>
			<point x="230" y="300"/>
			<point x="205" y="300" type="curve" smooth="yes"/>
			<point x="143" y="300"/>
			<point x="37" y="231"/>
			<point x="37" y="117" type="curve" smooth="yes"/>
			<point x="37" y="75"/>
			<point x="62" y="52"/>
			<point x="107" y="52" type="curve" smooth="yes"/>
			<point x="236" y="52"/>
			<point x="354" y="230"/>
			<point x="464" y="424" type="curve"/>
			<point x="447" y="438"/>
			<point x="440" y="459"/>
			<point x="440" y="477" type="curve" smooth="yes"/>
			<point x="440" y="521"/>
			<point x="485" y="559"/>
			<point x="543" y="568" type="curve"/>
			<point x="566" y="611"/>
			<point x="588" y="652"/>
			<point x="611" y="690" type="curve"/>
			<point x="534" y="660"/>
			<point x="453" y="640"/>
			<point x="393" y="640" type="curve" smooth="yes"/>
			<point x="359" y="640"/>
			<point x="338" y="656"/>
			<point x="338" y="690" type="curve" smooth="yes"/>
			<point x="338" y="703"/>
			<point x="343" y="717"/>
			<point x="353" y="733" type="curve"/>
			<point x="326" y="734"/>
			<point x="309" y="748"/>
			<point x="309" y="768" type="curve" smooth="yes"/>
			<point x="309" y="796"/>
			<point x="330" y="820"/>
			<point x="365" y="840" type="curve"/>
			<point x="371" y="831" type="line"/>
			<point x="345" y="815"/>
			<point x="327" y="796"/>
			<point x="327" y="775" type="curve" smooth="yes"/>
			<point x="327" y="759"/>
			<point x="343" y="750"/>
			<point x="364" y="750" type="curve"/>
			<point x="396" y="792"/>
			<point x="450" y="833"/>
			<point x="501" y="833" type="curve" smooth="yes"/>
			<point x="514" y="833"/>
			<point x="526" y="826"/>
			<point x="526" y="811" type="curve" smooth="yes"/>
			<point x="526" y="769"/>
			<point x="459" y="740"/>
			<point x="378" y="734" type="curve"/>
			<point x="377" y="729"/>
			<point x="376" y="724"/>
			<point x="376" y="719" type="curve" smooth="yes"/>
			<point x="376" y="702"/>
			<point x="400" y="687"/>
			<point x="426" y="687" type="curve" smooth="yes"/>
			<point x="476" y="687"/>
			<point x="563" y="711"/>
			<point x="644" y="745" type="curve"/>
			<point x="706" y="842"/>
			<point x="763" y="911"/>
			<point x="819" y="911" type="curve" smooth="yes"/>
			<point x="847" y="911"/>
			<point x="860" y="891"/>
			<point x="860" y="874" type="curve" smooth="yes"/>
			<point x="860" y="825"/>
			<point x="776" y="764"/>
			<point x="674" y="716" type="curve"/>
			<point x="649" y="671"/>
			<point x="622" y="620"/>
			<point x="594" y="567" type="curve"/>
			<point x="616" y="560"/>
			<point x="633" y="542"/>
			<point x="644" y="505" type="curve"/>
			<point x="837" y="608"/>
			<point x="1031" y="912"/>
			<point x="1170" y="912" type="curve" smooth="yes"/>
			<point x="1206" y="912"/>
			<point x="1221" y="883"/>
			<point x="1221" y="852" type="curve" smooth="yes"/>
			<point x="1221" y="758"/>
			<point x="1114" y="692"/>
			<point x="1066" y="692" type="curve" smooth="yes"/>
			<point x="1035" y="692"/>
			<point x="1020" y="701"/>
			<point x="1020" y="727" type="curve" smooth="yes"/>
			<point x="1020" y="746"/>
			<point x="1043" y="788"/>
		</contour>
		<contour>
			<point x="387" y="752" type="curve"/>
			<point x="434" y="760"/>
			<point x="511" y="786"/>
			<point x="511" y="811" type="curve" smooth="yes"/>
			<point x="511" y="816"/>
			<point x="508" y="820"/>
			<point x="499" y="820" type="curve" smooth="yes"/>
			<point x="462" y="820"/>
			<point x="409" y="788"/>
		</contour>
		<contour>
			<point x="476" y="508" type="curve" smooth="yes"/>
			<point x="476" y="497"/>
			<point x="484" y="487"/>
			<point x="495" y="480" type="curve"/>
			<point x="508" y="504"/>
			<point x="521" y="527"/>
			<point x="533" y="550" type="curve"/>
			<point x="528" y="550" type="line" smooth="yes"/>
			<point x="499" y="550"/>
			<point x="476" y="529"/>
		</contour>
		<contour>
			<point x="544" y="473" type="line"/>
			<point x="559" y="474"/>
			<point x="575" y="478"/>
			<point x="590" y="482" type="curve"/>
			<point x="586" y="503"/>
			<point x="581" y="518"/>
			<point x="574" y="528" type="curve"/>
		</contour>
		<contour>
			<point x="707" y="773" type="curve"/>
			<point x="782" y="809"/>
			<point x="841" y="850"/>
			<point x="841" y="878" type="curve" smooth="yes"/>
			<point x="841" y="889"/>
			<point x="835" y="894"/>
			<point x="825" y="894" type="curve" smooth="yes"/>
			<point x="791" y="894"/>
			<point x="752" y="847"/>
		</contour>
	</outline>
</glyph>
<glyph name="L" format="2">
	<advance width="1051"/>
	<unicode hex="004C"/>
	<outline>
		<contour>
			<point x="985" y="765" type="curve" smooth="yes"/>
			<point x="985" y="820"/>
			<point x="955" y="854"/>
			<point x="906" y="854" type="curve" smooth="yes"/>
			<point x="723" y="854"/>
			<point x="566" y="480"/>
			<point x="384" y="223" type="curve"/>
			<point x="495" y="153"/>
			<point x="567" y="20"/>
			<point x="744" y="20" type="curve" smooth="yes"/>
			<point x="855" y="20"/>
			<point x="968" y="86"/>
			<point x="968" y="199" type="curve" smooth="yes"/>
			<point x="968" y="258"/>
			<point x="932" y="288"/>
			<point x="886" y="288" type="curve" smooth="yes"/>
			<point x="847" y="288"/>
			<point x="808" y="265"/>
			<point x="750" y="163" type="curve"/>
			<point x="740" y="167" type="line"/>
			<point x="786" y="256"/>
			<point x="824" y="337"/>
			<point x="916" y="337" type="curve" smooth="yes"/>
			<point x="960" y="337"/>
			<point x="1020" y="301"/>
			<point x="1020" y="228" type="curve" smooth="yes"/>
			<point x="1020" y="85"/>
			<point x="830" y="-12"/>
			<point x="687" y="-12" type="curve" smooth="yes"/>
			<point x="501" y="-12"/>
			<point x="428" y="97"/>
			<point x="339" y="162" type="curve"/>
			<point x="258" y="60"/>
			<point x="171" y="-12"/>
			<point x="75" y="-12" type="curve" smooth="yes"/>
			<point x="40" y="-12"/>
			<point x="0" y="8"/>
			<point x="0" y="69" type="curve" smooth="yes"/>
			<point x="0" y="169"/>
			<point x="117" y="266"/>
			<point x="243" y="266" type="curve" smooth="yes"/>
			<point x="287" y="266"/>
			<point x="323" y="256"/>
			<point x="355" y="240" type="curve"/>
			<point x="543" y="492"/>
			<point x="726" y="912"/>
			<point x="922" y="912" type="curve" smooth="yes"/>
			<point x="999" y="912"/>
			<point x="1051" y="867"/>
			<point x="1051" y="781" type="curve" smooth="yes"/>
			<point x="1051" y="664"/>
			<point x="935" y="568"/>
			<point x="844" y="568" type="curve" smooth="yes"/>
			<point x="809" y="568"/>
			<point x="779" y="590"/>
			<point x="779" y="626" type="curve" smooth="yes"/>
			<point x="779" y="641"/>
			<point x="782" y="655"/>
			<point x="787" y="670" type="curve"/>
			<point x="780" y="678"/>
			<point x="775" y="688"/>
			<point x="775" y="700" type="curve" smooth="yes"/>
			<point x="775" y="748"/>
			<point x="829" y="798"/>
			<point x="888" y="814" type="curve"/>
			<point x="891" y="806" type="line"/>
			<point x="835" y="791"/>
			<point x="797" y="755"/>
			<point x="797" y="718" type="curve" smooth="yes"/>
			<point x="797" y="710"/>
			<point x="798" y="703"/>
			<point x="800" y="698" type="curve"/>
			<point x="821" y="731"/>
			<point x="855" y="756"/>
			<point x="899" y="756" type="curve" smooth="yes"/>
			<point x="926" y="756"/>
			<point x="940" y="743"/>
			<point x="940" y="721" type="curve" smooth="yes"/>
			<point x="940" y="682"/>
			<point x="888" y="652"/>
			<point x="839" y="652" type="curve" smooth="yes"/>
			<point x="824" y="652"/>
			<point x="811" y="654"/>
			<point x="800" y="660" type="curve"/>
			<point x="800" y="654" type="line" smooth="yes"/>
			<point x="800" y="613"/>
			<point x="827" y="592"/>
			<point x="865" y="592" type="curve" smooth="yes"/>
			<point x="925" y="592"/>
			<point x="985" y="665"/>
		</contour>
		<contour>
			<point x="32" y="112" type="curve" smooth="yes"/>
			<point x="33" y="79"/>
			<point x="56" y="53"/>
			<point x="107" y="53" type="curve" smooth="yes"/>
			<point x="176" y="53"/>
			<point x="243" y="104"/>
			<point x="309" y="182" type="curve"/>
			<point x="279" y="199"/>
			<point x="247" y="210"/>
			<point x="208" y="210" type="curve" smooth="yes"/>
			<point x="107" y="210"/>
			<point x="32" y="166"/>
		</contour>
		<contour>
			<point x="807" y="686" type="curve"/>
			<point x="818" y="673"/>
			<point x="837" y="670"/>
			<point x="858" y="670" type="curve" smooth="yes"/>
			<point x="898" y="670"/>
			<point x="920" y="690"/>
			<point x="920" y="710" type="curve" smooth="yes"/>
			<point x="920" y="725"/>
			<point x="904" y="736"/>
			<point x="886" y="736" type="curve" smooth="yes"/>
			<point x="856" y="736"/>
			<point x="822" y="717"/>
		</contour>
	</outline>
</glyph>
<glyph name="M" format="2">
	<advance width="1104"/>
	<unicode hex="004D"/>
	<outline>
		<contour>
			<point x="107" y="45" type="curve" smooth="yes"/>
			<point x="68" y="47"/>
			<point x="45" y="79"/>
			<point x="45" y="117" type="curve" smooth="yes"/>
			<point x="45" y="231"/>
			<point x="143" y="300"/>
			<point x="205" y="300" type="curve" smooth="yes"/>
			<point x="230" y="300"/>
			<point x="238" y="284"/>
			<point x="238" y="266" type="curve" smooth="yes"/>
			<point x="238" y="243"/>
			<point x="210" y="198"/>
			<point x="147" y="154" type="curve"/>
			<point x="152" y="146" type="line"/>
			<point x="233" y="204"/>
			<point x="277" y="252"/>
			<point x="277" y="298" type="curve" smooth="yes"/>
			<point x="277" y="333"/>
			<point x="254" y="356"/>
			<point x="223" y="356" type="curve" smooth="yes"/>
			<point x="132" y="356"/>
			<point x="0" y="184"/>
			<point x="0" y="69" type="curve" smooth="yes"/>
			<point x="0" y="8"/>
			<point x="40" y="-12"/>
			<point x="76" y="-12" type="curve" smooth="yes"/>
			<point x="221" y="-12"/>
			<point x="416" y="173"/>
			<point x="580" y="377" type="curve"/>
			<point x="516" y="225"/>
			<point x="458" y="78"/>
			<point x="425" y="-12" type="curve"/>
			<point x="432" y="-12" type="line"/>
			<point x="577" y="155"/>
			<point x="693" y="294"/>
			<point x="784" y="410" type="curve"/>
			<point x="729" y="283"/>
			<point x="689" y="162"/>
			<point x="689" y="90" type="curve" smooth="yes"/>
			<point x="689" y="32"/>
			<point x="733" y="-12"/>
			<point x="793" y="-12" type="curve" smooth="yes"/>
			<point x="968" y="-12"/>
			<point x="1089" y="211"/>
			<point x="1089" y="312" type="curve" smooth="yes"/>
			<point x="1089" y="350"/>
			<point x="1067" y="365"/>
			<point x="1043" y="365" type="curve" smooth="yes"/>
			<point x="989" y="365"/>
			<point x="922" y="256"/>
			<point x="889" y="171" type="curve"/>
			<point x="899" y="171" type="line"/>
			<point x="936" y="255"/>
			<point x="989" y="308"/>
			<point x="1022" y="308" type="curve" smooth="yes"/>
			<point x="1037" y="308"/>
			<point x="1050" y="296"/>
			<point x="1050" y="267" type="curve" smooth="yes"/>
			<point x="1050" y="208"/>
			<point x="957" y="40"/>
			<point x="827" y="40" type="curve" smooth="yes"/>
			<point x="785" y="40"/>
			<point x="761" y="66"/>
			<point x="761" y="128" type="curve" smooth="yes"/>
			<point x="761" y="232"/>
			<point x="840" y="413"/>
			<point x="905" y="567" type="curve"/>
			<point x="1057" y="771"/>
			<point x="1104" y="868"/>
			<point x="1104" y="897" type="curve" smooth="yes"/>
			<point x="1104" y="906"/>
			<point x="1099" y="912"/>
			<point x="1092" y="912" type="curve" smooth="yes"/>
			<point x="1051" y="912"/>
			<point x="909" y="687"/>
			<point x="808" y="475" type="curve"/>
			<point x="744" y="397"/>
			<point x="645" y="270"/>
			<point x="551" y="168" type="curve"/>
			<point x="544" y="168" type="line"/>
			<point x="567" y="235"/>
			<point x="634" y="395"/>
			<point x="675" y="504" type="curve"/>
			<point x="799" y="678"/>
			<point x="894" y="847"/>
			<point x="894" y="893" type="curve" smooth="yes"/>
			<point x="894" y="905"/>
			<point x="888" y="912"/>
			<point x="878" y="912" type="curve" smooth="yes"/>
			<point x="832" y="912"/>
			<point x="727" y="714"/>
			<point x="631" y="501" type="curve"/>
			<point x="456" y="281"/>
			<point x="249" y="37"/>
		</contour>
		<contour>
			<point x="719" y="616" type="curve"/>
			<point x="778" y="763"/>
			<point x="845" y="899"/>
			<point x="873" y="899" type="curve" smooth="yes"/>
			<point x="878" y="899"/>
			<point x="881" y="896"/>
			<point x="881" y="887" type="curve" smooth="yes"/>
			<point x="881" y="856"/>
			<point x="810" y="741"/>
		</contour>
		<contour>
			<point x="938" y="643" type="curve"/>
			<point x="1004" y="786"/>
			<point x="1068" y="899"/>
			<point x="1087" y="899" type="curve" smooth="yes"/>
			<point x="1091" y="899"/>
			<point x="1093" y="896"/>
			<point x="1093" y="892" type="curve" smooth="yes"/>
			<point x="1093" y="878"/>
			<point x="1053" y="797"/>
		</contour>
	</outline>
</glyph>
<glyph name="N" format="2">
	<advance width="809"/>
	<unicode hex="004E"/>
	<outline>
		<contour>
			<point x="107" y="59" type="curve" smooth="yes"/>
			<point x="68" y="59"/>
			<point x="45" y="79"/>
			<point x="45" y="117" type="curve" smooth="yes"/>
			<point x="45" y="231"/>
			<point x="143" y="300"/>
			<point x="205" y="300" type="curve" smooth="yes"/>
			<point x="230" y="300"/>
			<point x="238" y="284"/>
			<point x="238" y="266" type="curve" smooth="yes"/>
			<point x="238" y="243"/>
			<point x="210" y="198"/>
			<point x="147" y="154" type="curve"/>
			<point x="152" y="146" type="line"/>
			<point x="233" y="204"/>
			<point x="277" y="252"/>
			<point x="277" y="298" type="curve" smooth="yes"/>
			<point x="277" y="333"/>
			<point x="254" y="356"/>
			<point x="223" y="356" type="curve" smooth="yes"/>
			<point x="132" y="356"/>
			<point x="0" y="184"/>
			<point x="0" y="69" type="curve" smooth="yes"/>
			<point x="0" y="8"/>
			<point x="40" y="-12"/>
			<point x="76" y="-12" type="curve" smooth="yes"/>
			<point x="269" y="-12"/>
			<point x="541" y="300"/>
			<point x="717" y="559" type="curve"/>
			<point x="667" y="374"/>
			<point x="621" y="150"/>
			<point x="582" y="-12" type="curve"/>
			<point x="592" y="-12" type="line"/>
			<point x="1036" y="648"/>
			<point x="1140" y="846"/>
			<point x="1279" y="846" type="curve" smooth="yes"/>
			<point x="1307" y="846"/>
			<point x="1327" y="824"/>
			<point x="1327" y="796" type="curve" smooth="yes"/>
			<point x="1327" y="729"/>
			<point x="1256" y="640"/>
			<point x="1210" y="640" type="curve" smooth="yes"/>
			<point x="1190" y="640"/>
			<point x="1179" y="649"/>
			<point x="1179" y="668" type="curve" smooth="yes"/>
			<point x="1179" y="702"/>
			<point x="1218" y="737"/>
			<point x="1253" y="748" type="curve"/>
			<point x="1248" y="756" type="line"/>
			<point x="1194" y="737"/>
			<point x="1154" y="693"/>
			<point x="1154" y="649" type="curve" smooth="yes"/>
			<point x="1154" y="626"/>
			<point x="1171" y="611"/>
			<point x="1192" y="611" type="curve" smooth="yes"/>
			<point x="1246" y="611"/>
			<point x="1364" y="738"/>
			<point x="1364" y="840" type="curve" smooth="yes"/>
			<point x="1364" y="884"/>
			<point x="1338" y="911"/>
			<point x="1297" y="911" type="curve" smooth="yes"/>
			<point x="1164" y="911"/>
			<point x="1043" y="707"/>
			<point x="721" y="235" type="curve"/>
			<point x="713" y="235" type="line"/>
			<point x="728" y="333"/>
			<point x="752" y="513"/>
			<point x="783" y="660" type="curve"/>
			<point x="851" y="771"/>
			<point x="894" y="861"/>
			<point x="894" y="893" type="curve" smooth="yes"/>
			<point x="894" y="905"/>
			<point x="888" y="912"/>
			<point x="878" y="912" type="curve" smooth="yes"/>
			<point x="834" y="912"/>
			<point x="787" y="801"/>
			<point x="742" y="648" type="curve"/>
			<point x="564" y="401"/>
			<point x="261" y="59"/>
		</contour>
		<contour>
			<point x="797" y="727" type="curve"/>
			<point x="820" y="827"/>
			<point x="846" y="899"/>
			<point x="873" y="899" type="curve" smooth="yes"/>
			<point x="878" y="899"/>
			<point x="881" y="896"/>
			<point x="881" y="887" type="curve" smooth="yes"/>
			<point x="881" y="865"/>
			<point x="849" y="805"/>
		</contour>
	</outline>
</glyph>
<glyph name="P" format="2">
	<advance width="456"/>
	<unicode hex="0050"/>
	<outline>
		<contour>
			<point x="477" y="875" type="curve"/>
			<point x="485" y="875" type="line"/>
			<point x="487" y="860"/>
			<point x="487" y="844"/>
			<point x="486" y="829" type="curve"/>
			<point x="538" y="854"/>
			<point x="605" y="872"/>
			<point x="688" y="872" type="curve" smooth="yes"/>
			<point x="696" y="872"/>
			<point x="703" y="872"/>
			<point x="711" y="871" type="curve"/>
			<point x="742" y="897"/>
			<point x="774" y="912"/>
			<point x="807" y="912" type="curve" smooth="yes"/>
			<point x="853" y="912"/>
			<point x="897" y="891"/>
			<point x="941" y="843" type="curve"/>
			<point x="933" y="836" type="line"/>
			<point x="903" y="863"/>
			<point x="875" y="883"/>
			<point x="839" y="883" type="curve" smooth="yes"/>
			<point x="814" y="883"/>
			<point x="791" y="876"/>
			<point x="769" y="864" type="curve"/>
			<point x="886" y="838"/>
			<point x="945" y="757"/>
			<point x="945" y="674" type="curve" smooth="yes"/>
			<point x="945" y="519"/>
			<point x="782" y="437"/>
			<point x="640" y="441" type="curve" smooth="yes"/>
			<point x="582" y="444"/>
			<point x="536" y="451"/>
			<point x="500" y="465" type="curve"/>
			<point x="383" y="233"/>
			<point x="258" y="-12"/>
			<point x="76" y="-12" type="curve" smooth="yes"/>
			<point x="40" y="-12"/>
			<point x="0" y="8"/>
			<point x="0" y="69" type="curve" smooth="yes"/>
			<point x="0" y="184"/>
			<point x="132" y="356"/>
			<point x="223" y="356" type="curve" smooth="yes"/>
			<point x="254" y="356"/>
			<point x="277" y="333"/>
			<point x="277" y="298" type="curve" smooth="yes"/>
			<point x="277" y="252"/>
			<point x="233" y="204"/>
			<point x="152" y="146" type="curve"/>
			<point x="147" y="154" type="line"/>
			<point x="210" y="198"/>
			<point x="238" y="243"/>
			<point x="238" y="266" type="curve" smooth="yes"/>
			<point x="238" y="284"/>
			<point x="230" y="300"/>
			<point x="205" y="300" type="curve" smooth="yes"/>
			<point x="143" y="300"/>
			<point x="45" y="231"/>
			<point x="45" y="117" type="curve" smooth="yes"/>
			<point x="45" y="79"/>
			<point x="69" y="56"/>
			<point x="104" y="56" type="curve" smooth="yes"/>
			<point x="242" y="56"/>
			<point x="354" y="270"/>
			<point x="464" y="483" type="curve"/>
			<point x="420" y="511"/>
			<point x="401" y="552"/>
			<point x="397" y="602" type="curve"/>
			<point x="408" y="602" type="line"/>
			<point x="408" y="563"/>
			<point x="426" y="526"/>
			<point x="473" y="502" type="curve"/>
			<point x="541" y="634"/>
			<point x="607" y="762"/>
			<point x="678" y="840" type="curve"/>
			<point x="664" y="842"/>
			<point x="649" y="842"/>
			<point x="634" y="842" type="curve" smooth="yes"/>
			<point x="576" y="842"/>
			<point x="523" y="828"/>
			<point x="485" y="807" type="curve"/>
			<point x="477" y="736"/>
			<point x="442" y="675"/>
			<point x="390" y="675" type="curve" smooth="yes"/>
			<point x="377" y="675"/>
			<point x="369" y="684"/>
			<point x="369" y="695" type="curve" smooth="yes"/>
			<point x="369" y="732"/>
			<point x="405" y="784"/>
			<point x="475" y="822" type="curve"/>
			<point x="477" y="839"/>
			<point x="479" y="857"/>
		</contour>
		<contour>
			<point x="416" y="733" type="curve" smooth="yes"/>
			<point x="416" y="725"/>
			<point x="420" y="722"/>
			<point x="424" y="722" type="curve" smooth="yes"/>
			<point x="438" y="722"/>
			<point x="459" y="754"/>
			<point x="470" y="799" type="curve"/>
			<point x="437" y="779"/>
			<point x="416" y="754"/>
		</contour>
		<contour>
			<point x="511" y="487" type="curve"/>
			<point x="544" y="477"/>
			<point x="588" y="472"/>
			<point x="642" y="472" type="curve" smooth="yes"/>
			<point x="737" y="472"/>
			<point x="866" y="526"/>
			<point x="866" y="670" type="curve" smooth="yes"/>
			<point x="866" y="732"/>
			<point x="819" y="802"/>
			<point x="724" y="830" type="curve"/>
			<point x="649" y="759"/>
			<point x="581" y="626"/>
		</contour>
	</outline>
</glyph>
<glyph name="Q" format="2">
	<advance width="837"/>
	<unicode hex="0051"/>
	<outline>
		<contour>
			<point x="348" y="576" type="curve"/>
			<point x="354" y="568" type="line"/>
			<point x="382" y="593"/>
			<point x="413" y="617"/>
			<point x="445" y="636" type="curve"/>
			<point x="444" y="629"/>
			<point x="444" y="621"/>
			<point x="444" y="613" type="curve" smooth="yes"/>
			<point x="444" y="546"/>
			<point x="480" y="494"/>
			<point x="549" y="494" type="curve" smooth="yes"/>
			<point x="633" y="494"/>
			<point x="688" y="554"/>
			<point x="688" y="614" type="curve" smooth="yes"/>
			<point x="688" y="671"/>
			<point x="654" y="703"/>
			<point x="582" y="703" type="curve" smooth="yes"/>
			<point x="546" y="703"/>
			<point x="510" y="690"/>
			<point x="474" y="672" type="curve"/>
			<point x="505" y="755"/>
			<point x="588" y="842"/>
			<point x="678" y="846" type="curve" smooth="yes"/>
			<point x="765" y="850"/>
			<point x="838" y="780"/>
			<point x="838" y="667" type="curve" smooth="yes"/>
			<point x="838" y="483"/>
			<point x="671" y="238"/>
			<point x="485" y="111" type="curve"/>
			<point x="410" y="246"/>
			<point x="405" y="472"/>
			<point x="244" y="472" type="curve" smooth="yes"/>
			<point x="155" y="472"/>
			<point x="0" y="368"/>
			<point x="0" y="193" type="curve" smooth="yes"/>
			<point x="0" y="55"/>
			<point x="95" y="-10"/>
			<point x="208" y="-12" type="curve" smooth="yes"/>
			<point x="288" y="-12"/>
			<point x="365" y="10"/>
			<point x="437" y="48" type="curve"/>
			<point x="471" y="12"/>
			<point x="518" y="-12"/>
			<point x="588" y="-12" type="curve" smooth="yes"/>
			<point x="685" y="-12"/>
			<point x="778" y="52"/>
			<point x="778" y="126" type="curve" smooth="yes"/>
			<point x="778" y="153"/>
			<point x="758" y="183"/>
			<point x="723" y="183" type="curve" smooth="yes"/>
			<point x="692" y="183"/>
			<point x="662" y="151"/>
			<point x="660" y="112" type="curve"/>
			<point x="669" y="109" type="line"/>
			<point x="675" y="141"/>
			<point x="693" y="156"/>
			<point x="710" y="156" type="curve" smooth="yes"/>
			<point x="732" y="156"/>
			<point x="745" y="136"/>
			<point x="745" y="114" type="curve" smooth="yes"/>
			<point x="745" y="48"/>
			<point x="695" y="13"/>
			<point x="634" y="13" type="curve" smooth="yes"/>
			<point x="571" y="13"/>
			<point x="530" y="42"/>
			<point x="500" y="86" type="curve"/>
			<point x="729" y="241"/>
			<point x="891" y="548"/>
			<point x="891" y="726" type="curve" smooth="yes"/>
			<point x="891" y="829"/>
			<point x="837" y="910"/>
			<point x="737" y="910" type="curve" smooth="yes"/>
			<point x="600" y="910"/>
			<point x="472" y="788"/>
			<point x="447" y="656" type="curve"/>
			<point x="413" y="634"/>
			<point x="379" y="606"/>
		</contour>
		<contour>
			<point x="66" y="237" type="curve" smooth="yes"/>
			<point x="65" y="379"/>
			<point x="150" y="446"/>
			<point x="216" y="446" type="curve" smooth="yes"/>
			<point x="357" y="446"/>
			<point x="326" y="203"/>
			<point x="418" y="71" type="curve"/>
			<point x="364" y="44"/>
			<point x="310" y="27"/>
			<point x="259" y="27" type="curve" smooth="yes"/>
			<point x="148" y="24"/>
			<point x="68" y="102"/>
		</contour>
		<contour>
			<point x="462" y="606" type="curve" smooth="yes"/>
			<point x="462" y="619"/>
			<point x="464" y="634"/>
			<point x="468" y="649" type="curve"/>
			<point x="495" y="664"/>
			<point x="522" y="673"/>
			<point x="545" y="673" type="curve" smooth="yes"/>
			<point x="595" y="673"/>
			<point x="624" y="645"/>
			<point x="624" y="603" type="curve" smooth="yes"/>
			<point x="624" y="553"/>
			<point x="583" y="516"/>
			<point x="544" y="516" type="curve" smooth="yes"/>
			<point x="505" y="516"/>
			<point x="464" y="546"/>
		</contour>
	</outline>
</glyph>
<glyph name="R" format="2">
	<advance width="1044"/>
	<unicode hex="0052"/>
	<outline>
		<contour>
			<point x="390" y="482" type="curve" smooth="yes"/>
			<point x="390" y="514"/>
			<point x="408" y="537"/>
			<point x="437" y="537" type="curve" smooth="yes"/>
			<point x="452" y="537"/>
			<point x="465" y="533"/>
			<point x="477" y="525" type="curve"/>
			<point x="542" y="648"/>
			<point x="608" y="768"/>
			<point x="676" y="840" type="curve"/>
			<point x="663" y="842"/>
			<point x="649" y="842"/>
			<point x="634" y="842" type="curve" smooth="yes"/>
			<point x="576" y="842"/>
			<point x="523" y="828"/>
			<point x="485" y="807" type="curve"/>
			<point x="477" y="736"/>
			<point x="442" y="675"/>
			<point x="390" y="675" type="curve" smooth="yes"/>
			<point x="377" y="675"/>
			<point x="369" y="684"/>
			<point x="369" y="695" type="curve" smooth="yes"/>
			<point x="369" y="732"/>
			<point x="405" y="784"/>
			<point x="475" y="822" type="curve"/>
			<point x="477" y="839"/>
			<point x="479" y="857"/>
			<point x="477" y="875" type="curve"/>
			<point x="485" y="875" type="line"/>
			<point x="487" y="860"/>
			<point x="487" y="844"/>
			<point x="486" y="829" type="curve"/>
			<point x="538" y="854"/>
			<point x="605" y="872"/>
			<point x="688" y="872" type="curve" smooth="yes"/>
			<point x="696" y="872"/>
			<point x="703" y="872"/>
			<point x="710" y="871" type="curve"/>
			<point x="742" y="897"/>
			<point x="774" y="912"/>
			<point x="807" y="912" type="curve" smooth="yes"/>
			<point x="853" y="912"/>
			<point x="897" y="891"/>
			<point x="941" y="843" type="curve"/>
			<point x="933" y="836" type="line"/>
			<point x="903" y="863"/>
			<point x="875" y="883"/>
			<point x="839" y="883" type="curve" smooth="yes"/>
			<point x="814" y="883"/>
			<point x="791" y="876"/>
			<point x="768" y="864" type="curve"/>
			<point x="886" y="839"/>
			<point x="945" y="757"/>
			<point x="945" y="674" type="curve" smooth="yes"/>
			<point x="945" y="508"/>
			<point x="717" y="364"/>
			<point x="554" y="359" type="curve"/>
			<point x="595" y="218"/>
			<point x="645" y="47"/>
			<point x="842" y="47" type="curve" smooth="yes"/>
			<point x="886" y="47"/>
			<point x="928" y="68"/>
			<point x="947" y="100" type="curve"/>
			<point x="915" y="104"/>
			<point x="887" y="145"/>
			<point x="887" y="174" type="curve" smooth="yes"/>
			<point x="887" y="195"/>
			<point x="899" y="204"/>
			<point x="912" y="204" type="curve" smooth="yes"/>
			<point x="941" y="204"/>
			<point x="966" y="174"/>
			<point x="966" y="135" type="curve" smooth="yes"/>
			<point x="966" y="127"/>
			<point x="966" y="120"/>
			<point x="963" y="112" type="curve"/>
			<point x="980" y="113"/>
			<point x="993" y="123"/>
			<point x="1002" y="131" type="curve"/>
			<point x="1008" y="124" type="line"/>
			<point x="997" y="115"/>
			<point x="982" y="102"/>
			<point x="959" y="99" type="curve"/>
			<point x="933" y="36"/>
			<point x="842" y="-13"/>
			<point x="783" y="-13" type="curve" smooth="yes"/>
			<point x="591" y="-13"/>
			<point x="549" y="213"/>
			<point x="508" y="361" type="curve"/>
			<point x="484" y="366"/>
			<point x="464" y="374"/>
			<point x="448" y="384" type="curve"/>
			<point x="341" y="179"/>
			<point x="227" y="-12"/>
			<point x="76" y="-12" type="curve" smooth="yes"/>
			<point x="40" y="-12"/>
			<point x="0" y="8"/>
			<point x="0" y="69" type="curve" smooth="yes"/>
			<point x="0" y="184"/>
			<point x="132" y="356"/>
			<point x="223" y="356" type="curve" smooth="yes"/>
			<point x="254" y="356"/>
			<point x="277" y="333"/>
			<point x="277" y="298" type="curve" smooth="yes"/>
			<point x="277" y="252"/>
			<point x="233" y="204"/>
			<point x="152" y="146" type="curve"/>
			<point x="147" y="154" type="line"/>
			<point x="210" y="198"/>
			<point x="238" y="243"/>
			<point x="238" y="266" type="curve" smooth="yes"/>
			<point x="238" y="284"/>
			<point x="230" y="300"/>
			<point x="205" y="300" type="curve" smooth="yes"/>
			<point x="143" y="300"/>
			<point x="45" y="231"/>
			<point x="45" y="117" type="curve" smooth="yes"/>
			<point x="45" y="79"/>
			<point x="68" y="59"/>
			<point x="100" y="59" type="curve" smooth="yes"/>
			<point x="215" y="59"/>
			<point x="316" y="225"/>
			<point x="416" y="411" type="curve"/>
			<point x="398" y="433"/>
			<point x="390" y="459"/>
		</contour>
		<contour>
			<point x="404" y="463" type="curve" smooth="yes"/>
			<point x="404" y="453"/>
			<point x="410" y="437"/>
			<point x="422" y="422" type="curve"/>
			<point x="432" y="441"/>
			<point x="443" y="461"/>
			<point x="453" y="481" type="curve"/>
			<point x="446" y="487"/>
			<point x="438" y="490"/>
			<point x="428" y="490" type="curve" smooth="yes"/>
			<point x="416" y="490"/>
			<point x="404" y="485"/>
		</contour>
		<contour>
			<point x="416" y="733" type="curve" smooth="yes"/>
			<point x="416" y="725"/>
			<point x="420" y="722"/>
			<point x="424" y="722" type="curve" smooth="yes"/>
			<point x="438" y="722"/>
			<point x="459" y="754"/>
			<point x="470" y="799" type="curve"/>
			<point x="437" y="779"/>
			<point x="416" y="754"/>
		</contour>
		<contour>
			<point x="454" y="396" type="line"/>
			<point x="467" y="388"/>
			<point x="483" y="382"/>
			<point x="503" y="378" type="curve"/>
			<point x="495" y="404"/>
			<point x="487" y="426"/>
			<point x="479" y="444" type="curve"/>
		</contour>
		<contour>
			<point x="504" y="493" type="curve"/>
			<point x="523" y="464"/>
			<point x="536" y="422"/>
			<point x="549" y="375" type="curve"/>
			<point x="675" y="382"/>
			<point x="866" y="516"/>
			<point x="866" y="670" type="curve" smooth="yes"/>
			<point x="866" y="732"/>
			<point x="818" y="804"/>
			<point x="721" y="831" type="curve"/>
			<point x="644" y="761"/>
			<point x="575" y="631"/>
		</contour>
		<contour>
			<point x="917" y="159" type="curve" smooth="yes"/>
			<point x="917" y="140"/>
			<point x="932" y="117"/>
			<point x="953" y="112" type="curve"/>
			<point x="955" y="120"/>
			<point x="956" y="127"/>
			<point x="956" y="135" type="curve" smooth="yes"/>
			<point x="956" y="158"/>
			<point x="942" y="174"/>
			<point x="929" y="174" type="curve" smooth="yes"/>
			<point x="921" y="174"/>
			<point x="917" y="168"/>
		</contour>
	</outline>
</glyph>
<glyph name="S" format="2">
	<advance width="472"/>
	<unicode hex="0053"/>
	<outline>
		<contour>
			<point x="322" y="809" type="curve"/>
			<point x="328" y="801" type="line"/>
			<point x="302" y="785"/>
			<point x="284" y="766"/>
			<point x="284" y="744" type="curve" smooth="yes"/>
			<point x="284" y="729"/>
			<point x="300" y="720"/>
			<point x="322" y="720" type="curve" smooth="yes"/>
			<point x="325" y="720"/>
			<point x="328" y="720"/>
			<point x="332" y="721" type="curve"/>
			<point x="364" y="771"/>
			<point x="414" y="801"/>
			<point x="457" y="801" type="curve" smooth="yes"/>
			<point x="471" y="801"/>
			<point x="482" y="796"/>
			<point x="482" y="781" type="curve" smooth="yes"/>
			<point x="482" y="742"/>
			<point x="426" y="715"/>
			<point x="356" y="706" type="curve"/>
			<point x="346" y="684"/>
			<point x="340" y="658"/>
			<point x="340" y="629" type="curve" smooth="yes"/>
			<point x="340" y="541"/>
			<point x="413" y="492"/>
			<point x="498" y="492" type="curve" smooth="yes"/>
			<point x="512" y="492" type="line"/>
			<point x="639" y="703"/>
			<point x="758" y="911"/>
			<point x="855" y="911" type="curve" smooth="yes"/>
			<point x="883" y="911"/>
			<point x="904" y="891"/>
			<point x="904" y="854" type="curve" smooth="yes"/>
			<point x="904" y="707"/>
			<point x="772" y="509"/>
			<point x="563" y="463" type="curve"/>
			<point x="427" y="232"/>
			<point x="261" y="-12"/>
			<point x="76" y="-12" type="curve" smooth="yes"/>
			<point x="40" y="-12"/>
			<point x="0" y="8"/>
			<point x="0" y="69" type="curve" smooth="yes"/>
			<point x="0" y="136"/>
			<point x="35" y="206"/>
			<point x="81" y="260" type="curve"/>
			<point x="64" y="274"/>
			<point x="48" y="291"/>
			<point x="32" y="310" type="curve"/>
			<point x="39" y="319" type="line"/>
			<point x="55" y="300"/>
			<point x="72" y="283"/>
			<point x="89" y="269" type="curve"/>
			<point x="135" y="319"/>
			<point x="189" y="353"/>
			<point x="230" y="353" type="curve" smooth="yes"/>
			<point x="266" y="353"/>
			<point x="289" y="326"/>
			<point x="289" y="294" type="curve" smooth="yes"/>
			<point x="289" y="245"/>
			<point x="249" y="212"/>
			<point x="189" y="212" type="curve" smooth="yes"/>
			<point x="158" y="212"/>
			<point x="130" y="224"/>
			<point x="102" y="243" type="curve"/>
			<point x="73" y="210"/>
			<point x="52" y="166"/>
			<point x="52" y="117" type="curve" smooth="yes"/>
			<point x="52" y="92"/>
			<point x="68" y="59"/>
			<point x="107" y="59" type="curve" smooth="yes"/>
			<point x="234" y="59"/>
			<point x="364" y="251"/>
			<point x="488" y="453" type="curve"/>
			<point x="472" y="453" type="line" smooth="yes"/>
			<point x="388" y="453"/>
			<point x="299" y="503"/>
			<point x="299" y="603" type="curve" smooth="yes"/>
			<point x="299" y="641"/>
			<point x="307" y="675"/>
			<point x="322" y="703" type="curve"/>
			<point x="315" y="703" type="line" smooth="yes"/>
			<point x="285" y="702"/>
			<point x="266" y="716"/>
			<point x="266" y="737" type="curve" smooth="yes"/>
			<point x="266" y="766"/>
			<point x="287" y="790"/>
		</contour>
		<contour>
			<point x="111" y="253" type="curve"/>
			<point x="136" y="235"/>
			<point x="163" y="225"/>
			<point x="192" y="225" type="curve" smooth="yes"/>
			<point x="232" y="225"/>
			<point x="261" y="240"/>
			<point x="261" y="271" type="curve" smooth="yes"/>
			<point x="261" y="293"/>
			<point x="244" y="307"/>
			<point x="221" y="307" type="curve" smooth="yes"/>
			<point x="186" y="307"/>
			<point x="144" y="287"/>
		</contour>
		<contour>
			<point x="366" y="726" type="curve"/>
			<point x="412" y="737"/>
			<point x="468" y="760"/>
			<point x="468" y="780" type="curve" smooth="yes"/>
			<point x="468" y="786"/>
			<point x="464" y="790"/>
			<point x="456" y="790" type="curve" smooth="yes"/>
			<point x="428" y="790"/>
			<point x="391" y="768"/>
		</contour>
		<contour>
			<point x="588" y="505" type="curve"/>
			<point x="763" y="554"/>
			<point x="883" y="736"/>
			<point x="883" y="835" type="curve" smooth="yes"/>
			<point x="883" y="858"/>
			<point x="874" y="871"/>
			<point x="857" y="871" type="curve" smooth="yes"/>
			<point x="792" y="871"/>
			<point x="701" y="698"/>
		</contour>
	</outline>
</glyph>
<glyph name="T" format="2">
	<advance width="639"/>
	<unicode hex="0054"/>
	<outline>
		<contour>
			<point x="853" y="850" type="curve" smooth="yes"/>
			<point x="759" y="850"/>
			<point x="644" y="786"/>
			<point x="536" y="694" type="curve"/>
			<point x="596" y="688"/>
			<point x="658" y="683"/>
			<point x="723" y="683" type="curve" smooth="yes"/>
			<point x="870" y="683"/>
			<point x="968" y="703"/>
			<point x="968" y="766" type="curve" smooth="yes"/>
			<point x="967" y="820"/>
			<point x="921" y="850"/>
		</contour>
		<contour>
			<point x="0" y="581" type="curve" smooth="yes"/>
			<point x="0" y="665"/>
			<point x="89" y="723"/>
			<point x="209" y="723" type="curve" smooth="yes"/>
			<point x="307" y="723"/>
			<point x="405" y="708"/>
			<point x="507" y="697" type="curve"/>
			<point x="644" y="821"/>
			<point x="792" y="912"/>
			<point x="907" y="912" type="curve" smooth="yes"/>
			<point x="981" y="912"/>
			<point x="1028" y="862"/>
			<point x="1028" y="801" type="curve" smooth="yes"/>
			<point x="1028" y="708"/>
			<point x="917" y="665"/>
			<point x="751" y="665" type="curve" smooth="yes"/>
			<point x="668" y="665"/>
			<point x="589" y="671"/>
			<point x="516" y="678" type="curve"/>
			<point x="444" y="612"/>
			<point x="374" y="534"/>
			<point x="318" y="456" type="curve"/>
			<point x="418" y="461"/>
			<point x="506" y="481"/>
			<point x="557" y="509" type="curve"/>
			<point x="545" y="520"/>
			<point x="537" y="535"/>
			<point x="536" y="553" type="curve" smooth="yes"/>
			<point x="535" y="585"/>
			<point x="559" y="613"/>
			<point x="586" y="613" type="curve" smooth="yes"/>
			<point x="612" y="613"/>
			<point x="631" y="598"/>
			<point x="631" y="571" type="curve" smooth="yes"/>
			<point x="631" y="546"/>
			<point x="611" y="523"/>
			<point x="578" y="505" type="curve"/>
			<point x="590" y="498"/>
			<point x="606" y="495"/>
			<point x="624" y="496" type="curve"/>
			<point x="624" y="488" type="line"/>
			<point x="604" y="487"/>
			<point x="585" y="492"/>
			<point x="570" y="500" type="curve"/>
			<point x="509" y="468"/>
			<point x="410" y="446"/>
			<point x="307" y="439" type="curve"/>
			<point x="235" y="333"/>
			<point x="187" y="228"/>
			<point x="187" y="150" type="curve" smooth="yes"/>
			<point x="187" y="74"/>
			<point x="247" y="40"/>
			<point x="325" y="40" type="curve" smooth="yes"/>
			<point x="448" y="40"/>
			<point x="557" y="122"/>
			<point x="557" y="224" type="curve" smooth="yes"/>
			<point x="557" y="267"/>
			<point x="536" y="279"/>
			<point x="514" y="279" type="curve" smooth="yes"/>
			<point x="487" y="279"/>
			<point x="442" y="255"/>
			<point x="405" y="171" type="curve"/>
			<point x="395" y="171" type="line"/>
			<point x="428" y="256"/>
			<point x="495" y="329"/>
			<point x="556" y="329" type="curve" smooth="yes"/>
			<point x="593" y="329"/>
			<point x="619" y="300"/>
			<point x="619" y="262" type="curve" smooth="yes"/>
			<point x="619" y="146"/>
			<point x="453" y="-12"/>
			<point x="246" y="-12" type="curve" smooth="yes"/>
			<point x="153" y="-12"/>
			<point x="109" y="32"/>
			<point x="109" y="90" type="curve" smooth="yes"/>
			<point x="109" y="175"/>
			<point x="174" y="305"/>
			<point x="271" y="437" type="curve"/>
			<point x="258" y="436"/>
			<point x="244" y="436"/>
			<point x="230" y="436" type="curve" smooth="yes"/>
			<point x="89" y="436"/>
			<point x="0" y="498"/>
		</contour>
		<contour>
			<point x="80" y="574" type="curve" smooth="yes"/>
			<point x="80" y="506"/>
			<point x="152" y="454"/>
			<point x="271" y="454" type="curve" smooth="yes"/>
			<point x="284" y="454" type="line"/>
			<point x="343" y="533"/>
			<point x="414" y="611"/>
			<point x="487" y="680" type="curve"/>
			<point x="418" y="685"/>
			<point x="355" y="690"/>
			<point x="301" y="690" type="curve" smooth="yes"/>
			<point x="154" y="690"/>
			<point x="80" y="649"/>
		</contour>
		<contour>
			<point x="549" y="550" type="curve" smooth="yes"/>
			<point x="549" y="537"/>
			<point x="554" y="524"/>
			<point x="564" y="514" type="curve"/>
			<point x="588" y="529"/>
			<point x="602" y="546"/>
			<point x="602" y="564" type="curve" smooth="yes"/>
			<point x="602" y="578"/>
			<point x="590" y="588"/>
			<point x="578" y="588" type="curve" smooth="yes"/>
			<point x="562" y="588"/>
			<point x="549" y="569"/>
		</contour>
	</outline>
</glyph>
<glyph name="U" format="2">
	<advance width="882"/>
	<unicode hex="0055"/>
	<outline>
		<contour>
			<point x="93" y="-12" type="curve" smooth="yes"/>
			<point x="48" y="-12"/>
			<point x="0" y="22"/>
			<point x="0" y="80" type="curve" smooth="yes"/>
			<point x="0" y="259"/>
			<point x="582" y="743"/>
			<point x="582" y="855" type="curve" smooth="yes"/>
			<point x="582" y="866"/>
			<point x="578" y="876"/>
			<point x="564" y="876" type="curve" smooth="yes"/>
			<point x="528" y="876"/>
			<point x="250" y="554"/>
			<point x="128" y="554" type="curve" smooth="yes"/>
			<point x="102" y="554"/>
			<point x="81" y="570"/>
			<point x="81" y="604" type="curve" smooth="yes"/>
			<point x="81" y="616"/>
			<point x="86" y="631"/>
			<point x="95" y="647" type="curve"/>
			<point x="68" y="647"/>
			<point x="51" y="662"/>
			<point x="51" y="681" type="curve" smooth="yes"/>
			<point x="51" y="710"/>
			<point x="73" y="734"/>
			<point x="107" y="753" type="curve"/>
			<point x="113" y="744" type="line"/>
			<point x="87" y="729"/>
			<point x="69" y="710"/>
			<point x="69" y="688" type="curve" smooth="yes"/>
			<point x="69" y="672"/>
			<point x="85" y="664"/>
			<point x="107" y="664" type="curve"/>
			<point x="138" y="706"/>
			<point x="192" y="747"/>
			<point x="243" y="747" type="curve" smooth="yes"/>
			<point x="256" y="747"/>
			<point x="268" y="739"/>
			<point x="268" y="725" type="curve" smooth="yes"/>
			<point x="268" y="684"/>
			<point x="205" y="655"/>
			<point x="129" y="648" type="curve"/>
			<point x="127" y="643"/>
			<point x="125" y="638"/>
			<point x="125" y="633" type="curve" smooth="yes"/>
			<point x="125" y="616"/>
			<point x="142" y="600"/>
			<point x="168" y="600" type="curve" smooth="yes"/>
			<point x="282" y="600"/>
			<point x="521" y="912"/>
			<point x="602" y="912" type="curve" smooth="yes"/>
			<point x="625" y="912"/>
			<point x="648" y="900"/>
			<point x="648" y="868" type="curve" smooth="yes"/>
			<point x="648" y="759"/>
			<point x="91" y="326"/>
			<point x="91" y="160" type="curve" smooth="yes"/>
			<point x="91" y="112"/>
			<point x="117" y="81"/>
			<point x="174" y="82" type="curve" smooth="yes"/>
			<point x="271" y="84"/>
			<point x="431" y="226"/>
			<point x="580" y="392" type="curve"/>
			<point x="706" y="631"/>
			<point x="909" y="912"/>
			<point x="956" y="912" type="curve" smooth="yes"/>
			<point x="964" y="912"/>
			<point x="968" y="906"/>
			<point x="968" y="897" type="curve" smooth="yes"/>
			<point x="968" y="854"/>
			<point x="829" y="646"/>
			<point x="656" y="440" type="curve"/>
			<point x="603" y="328"/>
			<point x="564" y="219"/>
			<point x="564" y="145" type="curve" smooth="yes"/>
			<point x="564" y="82"/>
			<point x="597" y="57"/>
			<point x="643" y="57" type="curve" smooth="yes"/>
			<point x="769" y="57"/>
			<point x="843" y="208"/>
			<point x="843" y="267" type="curve" smooth="yes"/>
			<point x="843" y="296"/>
			<point x="829" y="308"/>
			<point x="814" y="308" type="curve" smooth="yes"/>
			<point x="781" y="308"/>
			<point x="729" y="255"/>
			<point x="691" y="171" type="curve"/>
			<point x="682" y="171" type="line"/>
			<point x="715" y="256"/>
			<point x="782" y="365"/>
			<point x="835" y="365" type="curve" smooth="yes"/>
			<point x="860" y="365"/>
			<point x="882" y="350"/>
			<point x="882" y="312" type="curve" smooth="yes"/>
			<point x="882" y="211"/>
			<point x="761" y="-12"/>
			<point x="586" y="-12" type="curve" smooth="yes"/>
			<point x="526" y="-12"/>
			<point x="477" y="27"/>
			<point x="477" y="112" type="curve" smooth="yes"/>
			<point x="477" y="157"/>
			<point x="500" y="227"/>
			<point x="538" y="307" type="curve"/>
			<point x="375" y="132"/>
			<point x="203" y="-12"/>
		</contour>
		<contour>
			<point x="141" y="668" type="curve"/>
			<point x="188" y="678"/>
			<point x="253" y="702"/>
			<point x="253" y="724" type="curve" smooth="yes"/>
			<point x="253" y="730"/>
			<point x="250" y="734"/>
			<point x="241" y="734" type="curve" smooth="yes"/>
			<point x="218" y="734"/>
			<point x="167" y="701"/>
		</contour>
		<contour>
			<point x="704" y="536" type="curve"/>
			<point x="847" y="711"/>
			<point x="958" y="872"/>
			<point x="958" y="892" type="curve" smooth="yes"/>
			<point x="958" y="896"/>
			<point x="955" y="899"/>
			<point x="952" y="899" type="curve" smooth="yes"/>
			<point x="929" y="899"/>
			<point x="806" y="726"/>
		</contour>
	</outline>
</glyph>
<glyph name="V" format="2">
	<advance width="595"/>
	<unicode hex="0056"/>
	<outline>
		<contour>
			<point x="797" y="822" type="curve" smooth="yes"/>
			<point x="796" y="859"/>
			<point x="822" y="884"/>
			<point x="845" y="884" type="curve" smooth="yes"/>
			<point x="870" y="884"/>
			<point x="892" y="865"/>
			<point x="892" y="834" type="curve" smooth="yes"/>
			<point x="892" y="817"/>
			<point x="885" y="793"/>
			<point x="872" y="763" type="curve"/>
			<point x="863" y="762" type="line" smooth="yes"/>
			<point x="824" y="762"/>
			<point x="798" y="786"/>
		</contour>
		<contour>
			<point x="51" y="681" type="curve" smooth="yes"/>
			<point x="51" y="662"/>
			<point x="68" y="647"/>
			<point x="95" y="647" type="curve"/>
			<point x="86" y="631"/>
			<point x="81" y="616"/>
			<point x="81" y="604" type="curve" smooth="yes"/>
			<point x="81" y="570"/>
			<point x="102" y="554"/>
			<point x="128" y="554" type="curve" smooth="yes"/>
			<point x="250" y="554"/>
			<point x="528" y="876"/>
			<point x="564" y="876" type="curve" smooth="yes"/>
			<point x="578" y="876"/>
			<point x="582" y="866"/>
			<point x="582" y="855" type="curve" smooth="yes"/>
			<point x="582" y="743"/>
			<point x="79" y="259"/>
			<point x="79" y="80" type="curve" smooth="yes"/>
			<point x="79" y="22"/>
			<point x="127" y="-12"/>
			<point x="158" y="-12" type="curve" smooth="yes"/>
			<point x="393" y="-12"/>
			<point x="786" y="489"/>
			<point x="897" y="747" type="curve"/>
			<point x="945" y="769"/>
			<point x="989" y="803"/>
			<point x="1009" y="819" type="curve"/>
			<point x="1002" y="827" type="line"/>
			<point x="986" y="814"/>
			<point x="951" y="783"/>
			<point x="906" y="770" type="curve"/>
			<point x="920" y="805"/>
			<point x="928" y="834"/>
			<point x="928" y="857" type="curve" smooth="yes"/>
			<point x="928" y="892"/>
			<point x="906" y="912"/>
			<point x="876" y="912" type="curve" smooth="yes"/>
			<point x="812" y="912"/>
			<point x="766" y="834"/>
			<point x="766" y="786" type="curve" smooth="yes"/>
			<point x="766" y="756"/>
			<point x="786" y="728"/>
			<point x="824" y="728" type="curve" smooth="yes"/>
			<point x="835" y="728"/>
			<point x="847" y="730"/>
			<point x="858" y="733" type="curve"/>
			<point x="752" y="513"/>
			<point x="418" y="73"/>
			<point x="239" y="73" type="curve" smooth="yes"/>
			<point x="189" y="73"/>
			<point x="160" y="104"/>
			<point x="160" y="148" type="curve" smooth="yes"/>
			<point x="160" y="325"/>
			<point x="648" y="770"/>
			<point x="648" y="868" type="curve" smooth="yes"/>
			<point x="648" y="900"/>
			<point x="625" y="912"/>
			<point x="602" y="912" type="curve" smooth="yes"/>
			<point x="521" y="912"/>
			<point x="282" y="600"/>
			<point x="168" y="600" type="curve" smooth="yes"/>
			<point x="142" y="600"/>
			<point x="125" y="616"/>
			<point x="125" y="633" type="curve" smooth="yes"/>
			<point x="125" y="638"/>
			<point x="127" y="643"/>
			<point x="129" y="648" type="curve"/>
			<point x="205" y="655"/>
			<point x="268" y="684"/>
			<point x="268" y="725" type="curve" smooth="yes"/>
			<point x="268" y="739"/>
			<point x="256" y="747"/>
			<point x="243" y="747" type="curve" smooth="yes"/>
			<point x="192" y="747"/>
			<point x="138" y="706"/>
			<point x="107" y="664" type="curve"/>
			<point x="85" y="664"/>
			<point x="69" y="672"/>
			<point x="69" y="688" type="curve" smooth="yes"/>
			<point x="69" y="710"/>
			<point x="87" y="729"/>
			<point x="113" y="744" type="curve"/>
			<point x="107" y="753" type="line"/>
			<point x="73" y="734"/>
			<point x="51" y="710"/>
		</contour>
		<contour>
			<point x="141" y="668" type="curve"/>
			<point x="167" y="701"/>
			<point x="218" y="734"/>
			<point x="241" y="734" type="curve" smooth="yes"/>
			<point x="250" y="734"/>
			<point x="253" y="730"/>
			<point x="253" y="724" type="curve" smooth="yes"/>
			<point x="253" y="702"/>
			<point x="188" y="678"/>
		</contour>
	</outline>
</glyph>
<glyph name="W" format="2">
	<advance width="970"/>
	<unicode hex="0057"/>
	<outline>
		<contour>
			<point x="669" y="58" type="curve" smooth="yes"/>
			<point x="815" y="58"/>
			<point x="1072" y="460"/>
			<point x="1152" y="684" type="curve"/>
			<point x="1137" y="680"/>
			<point x="1122" y="678"/>
			<point x="1109" y="678" type="curve" smooth="yes"/>
			<point x="1049" y="678"/>
			<point x="1036" y="721"/>
			<point x="1036" y="743" type="curve" smooth="yes"/>
			<point x="1036" y="813"/>
			<point x="1097" y="912"/>
			<point x="1157" y="912" type="curve" smooth="yes"/>
			<point x="1198" y="912"/>
			<point x="1214" y="878"/>
			<point x="1214" y="828" type="curve" smooth="yes"/>
			<point x="1214" y="802"/>
			<point x="1206" y="764"/>
			<point x="1191" y="717" type="curve"/>
			<point x="1230" y="729"/>
			<point x="1264" y="750"/>
			<point x="1286" y="762" type="curve"/>
			<point x="1294" y="754" type="line"/>
			<point x="1262" y="733"/>
			<point x="1223" y="710"/>
			<point x="1184" y="695" type="curve"/>
			<point x="1098" y="441"/>
			<point x="841" y="-12"/>
			<point x="615" y="-12" type="curve" smooth="yes"/>
			<point x="554" y="-12"/>
			<point x="501" y="32"/>
			<point x="501" y="133" type="curve" smooth="yes"/>
			<point x="501" y="174"/>
			<point x="518" y="233"/>
			<point x="547" y="300" type="curve"/>
			<point x="393" y="129"/>
			<point x="230" y="-12"/>
			<point x="122" y="-12" type="curve" smooth="yes"/>
			<point x="76" y="-12"/>
			<point x="29" y="22"/>
			<point x="29" y="80" type="curve" smooth="yes"/>
			<point x="29" y="259"/>
			<point x="611" y="743"/>
			<point x="611" y="855" type="curve" smooth="yes"/>
			<point x="611" y="866"/>
			<point x="607" y="876"/>
			<point x="593" y="876" type="curve" smooth="yes"/>
			<point x="557" y="876"/>
			<point x="279" y="554"/>
			<point x="157" y="554" type="curve" smooth="yes"/>
			<point x="130" y="554"/>
			<point x="109" y="570"/>
			<point x="109" y="604" type="curve" smooth="yes"/>
			<point x="109" y="616"/>
			<point x="114" y="631"/>
			<point x="124" y="647" type="curve"/>
			<point x="97" y="647"/>
			<point x="80" y="662"/>
			<point x="80" y="681" type="curve" smooth="yes"/>
			<point x="80" y="710"/>
			<point x="102" y="734"/>
			<point x="136" y="753" type="curve"/>
			<point x="142" y="744" type="line"/>
			<point x="116" y="729"/>
			<point x="98" y="710"/>
			<point x="98" y="688" type="curve" smooth="yes"/>
			<point x="98" y="672"/>
			<point x="114" y="664"/>
			<point x="135" y="664" type="curve"/>
			<point x="167" y="706"/>
			<point x="221" y="747"/>
			<point x="272" y="747" type="curve" smooth="yes"/>
			<point x="285" y="747"/>
			<point x="297" y="739"/>
			<point x="297" y="725" type="curve" smooth="yes"/>
			<point x="297" y="684"/>
			<point x="234" y="655"/>
			<point x="158" y="648" type="curve"/>
			<point x="156" y="643"/>
			<point x="154" y="638"/>
			<point x="154" y="633" type="curve" smooth="yes"/>
			<point x="154" y="616"/>
			<point x="171" y="600"/>
			<point x="197" y="600" type="curve" smooth="yes"/>
			<point x="311" y="600"/>
			<point x="550" y="912"/>
			<point x="631" y="912" type="curve" smooth="yes"/>
			<point x="654" y="912"/>
			<point x="677" y="900"/>
			<point x="677" y="868" type="curve" smooth="yes"/>
			<point x="677" y="766"/>
			<point x="116" y="318"/>
			<point x="116" y="154" type="curve" smooth="yes"/>
			<point x="116" y="109"/>
			<point x="142" y="78"/>
			<point x="199" y="79" type="curve" smooth="yes"/>
			<point x="294" y="81"/>
			<point x="442" y="217"/>
			<point x="582" y="379" type="curve"/>
			<point x="698" y="618"/>
			<point x="900" y="912"/>
			<point x="949" y="912" type="curve" smooth="yes"/>
			<point x="957" y="912"/>
			<point x="961" y="906"/>
			<point x="961" y="897" type="curve" smooth="yes"/>
			<point x="961" y="852"/>
			<point x="826" y="638"/>
			<point x="656" y="428" type="curve"/>
			<point x="612" y="330"/>
			<point x="580" y="238"/>
			<point x="580" y="180" type="curve" smooth="yes"/>
			<point x="580" y="88"/>
			<point x="618" y="58"/>
		</contour>
		<contour>
			<point x="170" y="668" type="curve"/>
			<point x="217" y="678"/>
			<point x="282" y="702"/>
			<point x="282" y="724" type="curve" smooth="yes"/>
			<point x="282" y="730"/>
			<point x="279" y="734"/>
			<point x="270" y="734" type="curve" smooth="yes"/>
			<point x="247" y="734"/>
			<point x="196" y="701"/>
		</contour>
		<contour>
			<point x="702" y="525" type="curve"/>
			<point x="842" y="703"/>
			<point x="950" y="872"/>
			<point x="950" y="892" type="curve" smooth="yes"/>
			<point x="950" y="896"/>
			<point x="948" y="899"/>
			<point x="945" y="899" type="curve" smooth="yes"/>
			<point x="921" y="899"/>
			<point x="798" y="714"/>
		</contour>
		<contour>
			<point x="1064" y="781" type="curve" smooth="yes"/>
			<point x="1065" y="742"/>
			<point x="1086" y="709"/>
			<point x="1141" y="709" type="curve" smooth="yes"/>
			<point x="1148" y="709"/>
			<point x="1154" y="710"/>
			<point x="1161" y="711" type="curve"/>
			<point x="1171" y="742"/>
			<point x="1176" y="770"/>
			<point x="1176" y="791" type="curve" smooth="yes"/>
			<point x="1176" y="833"/>
			<point x="1157" y="860"/>
			<point x="1128" y="860" type="curve" smooth="yes"/>
			<point x="1086" y="860"/>
			<point x="1063" y="816"/>
		</contour>
	</outline>
</glyph>
<glyph name="X" format="2">
	<advance width="945"/>
	<unicode hex="0058"/>
	<outline>
		<contour>
			<point x="547" y="881" type="curve" smooth="yes"/>
			<point x="558" y="881"/>
			<point x="564" y="871"/>
			<point x="564" y="857" type="curve" smooth="yes"/>
			<point x="564" y="835"/>
			<point x="541" y="801"/>
			<point x="505" y="770" type="curve"/>
			<point x="514" y="856"/>
			<point x="534" y="881"/>
		</contour>
		<contour>
			<point x="0" y="69" type="curve" smooth="yes"/>
			<point x="0" y="8"/>
			<point x="40" y="-12"/>
			<point x="85" y="-12" type="curve" smooth="yes"/>
			<point x="202" y="-12"/>
			<point x="369" y="111"/>
			<point x="518" y="269" type="curve"/>
			<point x="562" y="63"/>
			<point x="638" y="-12"/>
			<point x="710" y="-12" type="curve" smooth="yes"/>
			<point x="829" y="-12"/>
			<point x="909" y="132"/>
			<point x="909" y="230" type="curve" smooth="yes"/>
			<point x="909" y="305"/>
			<point x="883" y="338"/>
			<point x="837" y="338" type="curve" smooth="yes"/>
			<point x="793" y="338"/>
			<point x="746" y="295"/>
			<point x="746" y="248" type="curve" smooth="yes"/>
			<point x="746" y="210"/>
			<point x="768" y="188"/>
			<point x="798" y="177" type="curve"/>
			<point x="804" y="185" type="line"/>
			<point x="780" y="197"/>
			<point x="765" y="212"/>
			<point x="765" y="233" type="curve" smooth="yes"/>
			<point x="765" y="261"/>
			<point x="789" y="284"/>
			<point x="823" y="284" type="curve" smooth="yes"/>
			<point x="850" y="284"/>
			<point x="881" y="264"/>
			<point x="881" y="213" type="curve" smooth="yes"/>
			<point x="881" y="111"/>
			<point x="814" y="66"/>
			<point x="734" y="66" type="curve" smooth="yes"/>
			<point x="644" y="66"/>
			<point x="586" y="176"/>
			<point x="551" y="305" type="curve"/>
			<point x="641" y="405"/>
			<point x="722" y="518"/>
			<point x="778" y="621" type="curve"/>
			<point x="840" y="639"/>
			<point x="900" y="697"/>
			<point x="945" y="764" type="curve"/>
			<point x="937" y="772" type="line"/>
			<point x="888" y="703"/>
			<point x="845" y="672"/>
			<point x="800" y="663" type="curve"/>
			<point x="833" y="734"/>
			<point x="853" y="797"/>
			<point x="853" y="847" type="curve" smooth="yes"/>
			<point x="853" y="876"/>
			<point x="834" y="912"/>
			<point x="801" y="912" type="curve" smooth="yes"/>
			<point x="730" y="912"/>
			<point x="654" y="775"/>
			<point x="654" y="698" type="curve" smooth="yes"/>
			<point x="654" y="642"/>
			<point x="688" y="615"/>
			<point x="731" y="613" type="curve"/>
			<point x="683" y="530"/>
			<point x="616" y="435"/>
			<point x="540" y="348" type="curve"/>
			<point x="511" y="472"/>
			<point x="501" y="605"/>
			<point x="501" y="674" type="curve" smooth="yes"/>
			<point x="501" y="691"/>
			<point x="501" y="707"/>
			<point x="502" y="721" type="curve"/>
			<point x="565" y="772"/>
			<point x="606" y="832"/>
			<point x="606" y="865" type="curve" smooth="yes"/>
			<point x="606" y="895"/>
			<point x="593" y="912"/>
			<point x="571" y="912" type="curve" smooth="yes"/>
			<point x="539" y="912"/>
			<point x="496" y="871"/>
			<point x="485" y="753" type="curve"/>
			<point x="438" y="716"/>
			<point x="379" y="687"/>
			<point x="325" y="687" type="curve" smooth="yes"/>
			<point x="299" y="687"/>
			<point x="282" y="702"/>
			<point x="282" y="719" type="curve" smooth="yes"/>
			<point x="282" y="724"/>
			<point x="284" y="729"/>
			<point x="286" y="734" type="curve"/>
			<point x="362" y="742"/>
			<point x="425" y="770"/>
			<point x="425" y="811" type="curve" smooth="yes"/>
			<point x="425" y="826"/>
			<point x="413" y="833"/>
			<point x="398" y="833" type="curve" smooth="yes"/>
			<point x="348" y="833"/>
			<point x="294" y="792"/>
			<point x="264" y="750" type="curve"/>
			<point x="242" y="750"/>
			<point x="226" y="759"/>
			<point x="226" y="775" type="curve" smooth="yes"/>
			<point x="226" y="796"/>
			<point x="244" y="815"/>
			<point x="270" y="831" type="curve"/>
			<point x="264" y="840" type="line"/>
			<point x="230" y="820"/>
			<point x="208" y="796"/>
			<point x="208" y="768" type="curve" smooth="yes"/>
			<point x="208" y="748"/>
			<point x="225" y="734"/>
			<point x="252" y="733" type="curve"/>
			<point x="243" y="717"/>
			<point x="238" y="703"/>
			<point x="238" y="690" type="curve" smooth="yes"/>
			<point x="238" y="656"/>
			<point x="258" y="640"/>
			<point x="292" y="640" type="curve" smooth="yes"/>
			<point x="362" y="640"/>
			<point x="429" y="669"/>
			<point x="483" y="707" type="curve"/>
			<point x="482" y="693" type="line" smooth="yes"/>
			<point x="482" y="537"/>
			<point x="492" y="413"/>
			<point x="510" y="314" type="curve"/>
			<point x="379" y="171"/>
			<point x="230" y="55"/>
			<point x="125" y="55" type="curve" smooth="yes"/>
			<point x="79" y="55"/>
			<point x="46" y="84"/>
			<point x="46" y="125" type="curve" smooth="yes"/>
			<point x="46" y="240"/>
			<point x="132" y="300"/>
			<point x="191" y="300" type="curve" smooth="yes"/>
			<point x="224" y="300"/>
			<point x="238" y="284"/>
			<point x="238" y="266" type="curve" smooth="yes"/>
			<point x="238" y="243"/>
			<point x="210" y="198"/>
			<point x="147" y="154" type="curve"/>
			<point x="152" y="146" type="line"/>
			<point x="233" y="204"/>
			<point x="277" y="252"/>
			<point x="277" y="298" type="curve" smooth="yes"/>
			<point x="277" y="333"/>
			<point x="254" y="356"/>
			<point x="223" y="356" type="curve" smooth="yes"/>
			<point x="132" y="356"/>
			<point x="0" y="184"/>
		</contour>
		<contour>
			<point x="298" y="755" type="curve"/>
			<point x="325" y="788"/>
			<point x="377" y="822"/>
			<point x="400" y="822" type="curve" smooth="yes"/>
			<point x="409" y="822"/>
			<point x="413" y="819"/>
			<point x="413" y="813" type="curve" smooth="yes"/>
			<point x="413" y="791"/>
			<point x="346" y="765"/>
		</contour>
		<contour>
			<point x="679" y="733" type="curve" smooth="yes"/>
			<point x="679" y="794"/>
			<point x="729" y="853"/>
			<point x="768" y="853" type="curve" smooth="yes"/>
			<point x="786" y="853"/>
			<point x="801" y="840"/>
			<point x="801" y="801" type="curve" smooth="yes"/>
			<point x="801" y="767"/>
			<point x="784" y="717"/>
			<point x="756" y="661" type="curve"/>
			<point x="701" y="665"/>
			<point x="679" y="691"/>
		</contour>
	</outline>
</glyph>
<glyph name="Y" format="2">
	<advance width="876"/>
	<unicode hex="0059"/>
	<outline>
		<contour>
			<point x="1048" y="891" type="curve" smooth="yes"/>
			<point x="1017" y="891"/>
			<point x="942" y="744"/>
			<point x="837" y="551" type="curve"/>
			<point x="960" y="701"/>
			<point x="1054" y="852"/>
			<point x="1054" y="884" type="curve" smooth="yes"/>
			<point x="1054" y="889"/>
			<point x="1052" y="891"/>
		</contour>
		<contour>
			<point x="-180" y="-244" type="curve" smooth="yes"/>
			<point x="-180" y="-31"/>
			<point x="83" y="102"/>
			<point x="297" y="102" type="curve" smooth="yes"/>
			<point x="382" y="102"/>
			<point x="441" y="84"/>
			<point x="492" y="65" type="curve"/>
			<point x="555" y="148"/>
			<point x="614" y="238"/>
			<point x="670" y="328" type="curve"/>
			<point x="564" y="233"/>
			<point x="451" y="166"/>
			<point x="348" y="166" type="curve" smooth="yes"/>
			<point x="302" y="166"/>
			<point x="255" y="199"/>
			<point x="255" y="257" type="curve" smooth="yes"/>
			<point x="255" y="442"/>
			<point x="650" y="700"/>
			<point x="650" y="833" type="curve" smooth="yes"/>
			<point x="650" y="859"/>
			<point x="640" y="876"/>
			<point x="623" y="876" type="curve" smooth="yes"/>
			<point x="564" y="876"/>
			<point x="301" y="554"/>
			<point x="186" y="554" type="curve" smooth="yes"/>
			<point x="160" y="554"/>
			<point x="139" y="570"/>
			<point x="139" y="604" type="curve" smooth="yes"/>
			<point x="139" y="616"/>
			<point x="144" y="631"/>
			<point x="153" y="647" type="curve"/>
			<point x="127" y="647"/>
			<point x="109" y="662"/>
			<point x="109" y="681" type="curve" smooth="yes"/>
			<point x="109" y="710"/>
			<point x="131" y="734"/>
			<point x="166" y="753" type="curve"/>
			<point x="171" y="744" type="line"/>
			<point x="145" y="729"/>
			<point x="127" y="710"/>
			<point x="127" y="688" type="curve" smooth="yes"/>
			<point x="127" y="672"/>
			<point x="143" y="664"/>
			<point x="165" y="664" type="curve"/>
			<point x="197" y="706"/>
			<point x="251" y="747"/>
			<point x="302" y="747" type="curve" smooth="yes"/>
			<point x="315" y="747"/>
			<point x="326" y="739"/>
			<point x="326" y="725" type="curve" smooth="yes"/>
			<point x="326" y="684"/>
			<point x="264" y="655"/>
			<point x="187" y="648" type="curve"/>
			<point x="185" y="643"/>
			<point x="184" y="638"/>
			<point x="184" y="633" type="curve" smooth="yes"/>
			<point x="184" y="616"/>
			<point x="200" y="600"/>
			<point x="226" y="600" type="curve" smooth="yes"/>
			<point x="341" y="600"/>
			<point x="565" y="912"/>
			<point x="660" y="912" type="curve" smooth="yes"/>
			<point x="683" y="912"/>
			<point x="706" y="900"/>
			<point x="706" y="868" type="curve" smooth="yes"/>
			<point x="706" y="744"/>
			<point x="323" y="474"/>
			<point x="323" y="325" type="curve" smooth="yes"/>
			<point x="323" y="257"/>
			<point x="364" y="226"/>
			<point x="419" y="227" type="curve" smooth="yes"/>
			<point x="508" y="228"/>
			<point x="624" y="318"/>
			<point x="732" y="431" type="curve"/>
			<point x="883" y="688"/>
			<point x="996" y="912"/>
			<point x="1057" y="912" type="curve" smooth="yes"/>
			<point x="1066" y="912"/>
			<point x="1070" y="906"/>
			<point x="1070" y="894" type="curve" smooth="yes"/>
			<point x="1070" y="844"/>
			<point x="940" y="616"/>
			<point x="770" y="428" type="curve"/>
			<point x="701" y="305"/>
			<point x="621" y="172"/>
			<point x="534" y="50" type="curve"/>
			<point x="569" y="38"/>
			<point x="603" y="29"/>
			<point x="644" y="29" type="curve" smooth="yes"/>
			<point x="729" y="29"/>
			<point x="780" y="89"/>
			<point x="793" y="145" type="curve"/>
			<point x="755" y="150"/>
			<point x="734" y="177"/>
			<point x="734" y="199" type="curve" smooth="yes"/>
			<point x="734" y="222"/>
			<point x="750" y="235"/>
			<point x="769" y="235" type="curve" smooth="yes"/>
			<point x="789" y="235"/>
			<point x="814" y="217"/>
			<point x="814" y="167" type="curve" smooth="yes"/>
			<point x="814" y="164"/>
			<point x="814" y="161"/>
			<point x="814" y="158" type="curve"/>
			<point x="829" y="160"/>
			<point x="845" y="170"/>
			<point x="853" y="179" type="curve"/>
			<point x="858" y="172" type="line"/>
			<point x="845" y="158"/>
			<point x="827" y="148"/>
			<point x="813" y="145" type="curve"/>
			<point x="802" y="80"/>
			<point x="741" y="5"/>
			<point x="612" y="5" type="curve" smooth="yes"/>
			<point x="570" y="5"/>
			<point x="538" y="9"/>
			<point x="508" y="15" type="curve"/>
			<point x="346" y="-201"/>
			<point x="161" y="-372"/>
			<point x="-35" y="-372" type="curve" smooth="yes"/>
			<point x="-125" y="-372"/>
			<point x="-180" y="-330"/>
		</contour>
		<contour>
			<point x="-150" y="-217" type="curve" smooth="yes"/>
			<point x="-150" y="-260"/>
			<point x="-122" y="-310"/>
			<point x="-41" y="-310" type="curve" smooth="yes"/>
			<point x="140" y="-310"/>
			<point x="310" y="-165"/>
			<point x="460" y="24" type="curve"/>
			<point x="415" y="33"/>
			<point x="362" y="42"/>
			<point x="275" y="42" type="curve" smooth="yes"/>
			<point x="6" y="42"/>
			<point x="-150" y="-93"/>
		</contour>
		<contour>
			<point x="199" y="668" type="curve"/>
			<point x="246" y="678"/>
			<point x="312" y="702"/>
			<point x="312" y="724" type="curve" smooth="yes"/>
			<point x="312" y="730"/>
			<point x="308" y="734"/>
			<point x="300" y="734" type="curve" smooth="yes"/>
			<point x="276" y="734"/>
			<point x="225" y="701"/>
		</contour>
		<contour>
			<point x="747" y="204" type="curve" smooth="yes"/>
			<point x="747" y="181"/>
			<point x="761" y="162"/>
			<point x="795" y="158" type="curve"/>
			<point x="796" y="170" type="line" smooth="yes"/>
			<point x="796" y="199"/>
			<point x="783" y="220"/>
			<point x="763" y="220" type="curve" smooth="yes"/>
			<point x="754" y="220"/>
			<point x="747" y="212"/>
		</contour>
	</outline>
</glyph>
<glyph name="Z" format="2">
	<advance width="826"/>
	<unicode hex="005A"/>
	<outline>
		<contour>
			<point x="765" y="173" type="curve"/>
			<point x="765" y="160" type="line"/>
			<point x="778" y="163"/>
			<point x="794" y="171"/>
			<point x="801" y="179" type="curve"/>
			<point x="805" y="172" type="line"/>
			<point x="794" y="161"/>
			<point x="777" y="152"/>
			<point x="762" y="148" type="curve"/>
			<point x="747" y="88"/>
			<point x="676" y="59"/>
			<point x="581" y="42" type="curve"/>
			<point x="456" y="-171"/>
			<point x="130" y="-370"/>
			<point x="-48" y="-372" type="curve" smooth="yes"/>
			<point x="-169" y="-372"/>
			<point x="-216" y="-302"/>
			<point x="-216" y="-240" type="curve" smooth="yes"/>
			<point x="-216" y="60"/>
			<point x="251" y="23"/>
			<point x="533" y="56" type="curve"/>
			<point x="547" y="90"/>
			<point x="563" y="127"/>
			<point x="563" y="180" type="curve" smooth="yes"/>
			<point x="563" y="249"/>
			<point x="508" y="308"/>
			<point x="383" y="303" type="curve"/>
			<point x="287" y="194"/>
			<point x="190" y="106"/>
			<point x="129" y="106" type="curve" smooth="yes"/>
			<point x="104" y="106"/>
			<point x="87" y="120"/>
			<point x="87" y="143" type="curve" smooth="yes"/>
			<point x="87" y="223"/>
			<point x="220" y="315"/>
			<point x="373" y="342" type="curve"/>
			<point x="411" y="387"/>
			<point x="451" y="437"/>
			<point x="493" y="489" type="curve"/>
			<point x="484" y="488"/>
			<point x="475" y="488"/>
			<point x="467" y="488" type="curve" smooth="yes"/>
			<point x="415" y="488"/>
			<point x="377" y="510"/>
			<point x="377" y="554" type="curve" smooth="yes"/>
			<point x="377" y="659"/>
			<point x="548" y="755"/>
			<point x="548" y="824" type="curve" smooth="yes"/>
			<point x="548" y="857"/>
			<point x="523" y="876"/>
			<point x="485" y="876" type="curve" smooth="yes"/>
			<point x="384" y="876"/>
			<point x="170" y="768"/>
			<point x="170" y="673" type="curve" smooth="yes"/>
			<point x="170" y="647"/>
			<point x="190" y="627"/>
			<point x="221" y="627" type="curve" smooth="yes"/>
			<point x="264" y="627"/>
			<point x="333" y="697"/>
			<point x="382" y="760" type="curve"/>
			<point x="390" y="754" type="line"/>
			<point x="328" y="670"/>
			<point x="240" y="577"/>
			<point x="181" y="577" type="curve" smooth="yes"/>
			<point x="143" y="577"/>
			<point x="131" y="604"/>
			<point x="131" y="630" type="curve" smooth="yes"/>
			<point x="131" y="769"/>
			<point x="400" y="912"/>
			<point x="523" y="912" type="curve" smooth="yes"/>
			<point x="571" y="912"/>
			<point x="600" y="889"/>
			<point x="600" y="853" type="curve" smooth="yes"/>
			<point x="600" y="757"/>
			<point x="431" y="688"/>
			<point x="431" y="588" type="curve" smooth="yes"/>
			<point x="431" y="554"/>
			<point x="456" y="536"/>
			<point x="529" y="534" type="curve"/>
			<point x="681" y="722"/>
			<point x="842" y="912"/>
			<point x="935" y="912" type="curve" smooth="yes"/>
			<point x="961" y="912"/>
			<point x="977" y="897"/>
			<point x="977" y="865" type="curve" smooth="yes"/>
			<point x="977" y="739"/>
			<point x="768" y="531"/>
			<point x="538" y="494" type="curve"/>
			<point x="498" y="445"/>
			<point x="458" y="395"/>
			<point x="418" y="348" type="curve"/>
			<point x="433" y="349"/>
			<point x="449" y="350"/>
			<point x="464" y="350" type="curve" smooth="yes"/>
			<point x="577" y="350"/>
			<point x="631" y="298"/>
			<point x="631" y="203" type="curve" smooth="yes"/>
			<point x="631" y="158"/>
			<point x="618" y="112"/>
			<point x="595" y="67" type="curve"/>
			<point x="665" y="81"/>
			<point x="716" y="104"/>
			<point x="732" y="145" type="curve"/>
			<point x="694" y="150"/>
			<point x="675" y="177"/>
			<point x="675" y="199" type="curve" smooth="yes"/>
			<point x="675" y="222"/>
			<point x="690" y="235"/>
			<point x="709" y="235" type="curve" smooth="yes"/>
			<point x="729" y="235"/>
			<point x="765" y="216"/>
		</contour>
		<contour>
			<point x="-130" y="-190" type="curve" smooth="yes"/>
			<point x="-130" y="-269"/>
			<point x="-63" y="-312"/>
			<point x="8" y="-312" type="curve" smooth="yes"/>
			<point x="158" y="-312"/>
			<point x="431" y="-156"/>
			<point x="523" y="32" type="curve"/>
			<point x="263" y="1"/>
			<point x="-130" y="13"/>
		</contour>
		<contour>
			<point x="153" y="202" type="curve" smooth="yes"/>
			<point x="153" y="181"/>
			<point x="168" y="171"/>
			<point x="186" y="171" type="curve" smooth="yes"/>
			<point x="217" y="171"/>
			<point x="271" y="225"/>
			<point x="336" y="300" type="curve"/>
			<point x="226" y="292"/>
			<point x="153" y="246"/>
		</contour>
		<contour>
			<point x="571" y="536" type="curve"/>
			<point x="719" y="550"/>
			<point x="901" y="696"/>
			<point x="901" y="793" type="curve" smooth="yes"/>
			<point x="901" y="817"/>
			<point x="886" y="832"/>
			<point x="865" y="832" type="curve" smooth="yes"/>
			<point x="809" y="832"/>
			<point x="696" y="693"/>
		</contour>
		<contour>
			<point x="687" y="204" type="curve" smooth="yes"/>
			<point x="687" y="181"/>
			<point x="701" y="161"/>
			<point x="736" y="158" type="curve"/>
			<point x="737" y="163"/>
			<point x="738" y="169"/>
			<point x="738" y="175" type="curve" smooth="yes"/>
			<point x="738" y="199"/>
			<point x="724" y="220"/>
			<point x="703" y="220" type="curve" smooth="yes"/>
			<point x="694" y="220"/>
			<point x="687" y="212"/>
		</contour>
	</outline>
</glyph>
<glyph name="bracketleft" format="2">
	<advance width="408"/>
	<unicode hex="005B"/>
	<outline>
		<contour>
			<point x="619" y="896" type="curve"/>
			<point x="624" y="862" type="line"/>
			<point x="546" y="854"/>
			<point x="490" y="850"/>
			<point x="451" y="851" type="curve"/>
			<point x="451" y="845"/>
			<point x="451" y="839"/>
			<point x="451" y="832" type="curve" smooth="yes"/>
			<point x="451" y="766"/>
			<point x="410" y="570"/>
			<point x="348" y="388" type="curve" smooth="yes"/>
			<point x="288" y="212"/>
			<point x="179" y="-40"/>
			<point x="88" y="-161" type="curve"/>
			<point x="140" y="-163"/>
			<point x="211" y="-171"/>
			<point x="264" y="-181" type="curve"/>
			<point x="259" y="-212" type="line"/>
			<point x="194" y="-197"/>
			<point x="123" y="-186"/>
			<point x="71" y="-181" type="curve"/>
			<point x="45" y="-211"/>
			<point x="21" y="-229"/>
			<point x="0" y="-229" type="curve" smooth="yes"/>
			<point x="-17" y="-229"/>
			<point x="-36" y="-217"/>
			<point x="-36" y="-202" type="curve" smooth="yes"/>
			<point x="-36" y="-186"/>
			<point x="-23" y="-161"/>
			<point x="39" y="-159" type="curve"/>
			<point x="109" y="-47"/>
			<point x="220" y="222"/>
			<point x="283" y="394" type="curve" smooth="yes"/>
			<point x="350" y="578"/>
			<point x="402" y="783"/>
			<point x="408" y="854" type="curve"/>
			<point x="374" y="859"/>
			<point x="363" y="870"/>
			<point x="363" y="886" type="curve" smooth="yes"/>
			<point x="363" y="903"/>
			<point x="377" y="912"/>
			<point x="396" y="912" type="curve" smooth="yes"/>
			<point x="419" y="912"/>
			<point x="438" y="901"/>
			<point x="447" y="872" type="curve"/>
			<point x="487" y="873"/>
			<point x="544" y="881"/>
		</contour>
		<contour>
			<point x="-24" y="-199" type="curve" smooth="yes"/>
			<point x="-24" y="-206"/>
			<point x="-17" y="-211"/>
			<point x="-10" y="-211" type="curve" smooth="yes"/>
			<point x="-1" y="-211"/>
			<point x="12" y="-199"/>
			<point x="26" y="-178" type="curve"/>
			<point x="17" y="-178" type="line" smooth="yes"/>
			<point x="-12" y="-178"/>
			<point x="-24" y="-187"/>
		</contour>
		<contour>
			<point x="377" y="888" type="curve" smooth="yes"/>
			<point x="377" y="879"/>
			<point x="387" y="874"/>
			<point x="409" y="872" type="curve"/>
			<point x="408" y="893"/>
			<point x="400" y="901"/>
			<point x="390" y="901" type="curve" smooth="yes"/>
			<point x="384" y="901"/>
			<point x="377" y="896"/>
		</contour>
	</outline>
</glyph>
<glyph name="backslash" format="2">
	<advance width="597"/>
	<unicode hex="005C"/>
	<outline>
		<contour>
			<point x="487" y="-180" type="curve"/>
			<point x="498" y="-177"/>
			<point x="449" y="-79"/>
			<point x="403" y="16" type="curve" smooth="yes"/>
			<point x="360" y="105"/>
			<point x="230" y="372"/>
			<point x="153" y="525" type="curve" smooth="yes"/>
			<point x="65" y="703"/>
			<point x="-35" y="897"/>
			<point x="-43" y="900" type="curve" smooth="yes"/>
			<point x="-50" y="902"/>
			<point x="-55" y="899"/>
			<point x="-60" y="899" type="curve" smooth="yes"/>
			<point x="-63" y="899"/>
			<point x="-70" y="901"/>
			<point x="-72" y="899" type="curve" smooth="yes"/>
			<point x="-77" y="892"/>
			<point x="-26" y="785"/>
			<point x="58" y="618" type="curve" smooth="yes"/>
			<point x="175" y="383"/>
			<point x="450" y="-181"/>
			<point x="464" y="-181" type="curve" smooth="yes"/>
			<point x="469" y="-181"/>
			<point x="469" y="-179"/>
			<point x="475" y="-179" type="curve" smooth="yes"/>
			<point x="479" y="-179"/>
			<point x="485" y="-181"/>
		</contour>
	</outline>
</glyph>
<glyph name="bracketright" format="2">
	<advance width="390"/>
	<unicode hex="005D"/>
	<outline>
		<contour>
			<point x="-68" y="-207" type="curve"/>
			<point x="-72" y="-177" type="line"/>
			<point x="2" y="-170"/>
			<point x="60" y="-167"/>
			<point x="101" y="-169" type="curve"/>
			<point x="100" y="-163"/>
			<point x="100" y="-157"/>
			<point x="100" y="-150" type="curve" smooth="yes"/>
			<point x="100" y="-84"/>
			<point x="141" y="113"/>
			<point x="203" y="294" type="curve" smooth="yes"/>
			<point x="264" y="471"/>
			<point x="372" y="723"/>
			<point x="464" y="843" type="curve"/>
			<point x="411" y="846"/>
			<point x="341" y="853"/>
			<point x="287" y="864" type="curve"/>
			<point x="292" y="894" type="line"/>
			<point x="358" y="879"/>
			<point x="428" y="868"/>
			<point x="480" y="864" type="curve"/>
			<point x="506" y="894"/>
			<point x="531" y="912"/>
			<point x="552" y="912" type="curve" smooth="yes"/>
			<point x="569" y="912"/>
			<point x="588" y="900"/>
			<point x="588" y="885" type="curve" smooth="yes"/>
			<point x="588" y="869"/>
			<point x="575" y="843"/>
			<point x="513" y="842" type="curve"/>
			<point x="442" y="729"/>
			<point x="331" y="460"/>
			<point x="269" y="289" type="curve" smooth="yes"/>
			<point x="201" y="103"/>
			<point x="149" y="-104"/>
			<point x="143" y="-173" type="curve"/>
			<point x="174" y="-179"/>
			<point x="189" y="-189"/>
			<point x="189" y="-204" type="curve" smooth="yes"/>
			<point x="189" y="-220"/>
			<point x="174" y="-229"/>
			<point x="156" y="-229" type="curve" smooth="yes"/>
			<point x="132" y="-229"/>
			<point x="113" y="-219"/>
			<point x="104" y="-189" type="curve"/>
			<point x="60" y="-189"/>
			<point x="-1" y="-194"/>
		</contour>
		<contour>
			<point x="143" y="-190" type="curve"/>
			<point x="144" y="-210"/>
			<point x="152" y="-218"/>
			<point x="162" y="-218" type="curve" smooth="yes"/>
			<point x="168" y="-218"/>
			<point x="175" y="-214"/>
			<point x="175" y="-205" type="curve" smooth="yes"/>
			<point x="175" y="-198"/>
			<point x="163" y="-193"/>
		</contour>
		<contour>
			<point x="525" y="860" type="curve"/>
			<point x="535" y="860" type="line" smooth="yes"/>
			<point x="563" y="860"/>
			<point x="575" y="870"/>
			<point x="575" y="882" type="curve" smooth="yes"/>
			<point x="575" y="888"/>
			<point x="568" y="894"/>
			<point x="562" y="894" type="curve" smooth="yes"/>
			<point x="552" y="894"/>
			<point x="540" y="881"/>
		</contour>
	</outline>
</glyph>
<glyph name="underscore" format="2">
	<advance width="377"/>
	<unicode hex="005F"/>
	<outline>
		<contour>
			<point x="-36" y="13" type="curve" smooth="yes"/>
			<point x="-35" y="5"/>
			<point x="-25" y="1"/>
			<point x="-20" y="1" type="curve" smooth="yes"/>
			<point x="-12" y="1"/>
			<point x="-4" y="10"/>
			<point x="37" y="10" type="curve" smooth="yes"/>
			<point x="99" y="10"/>
			<point x="165" y="-12"/>
			<point x="276" y="-12" type="curve" smooth="yes"/>
			<point x="302" y="-12"/>
			<point x="341" y="-12"/>
			<point x="341" y="-2" type="curve" smooth="yes"/>
			<point x="341" y="4"/>
			<point x="333" y="6"/>
			<point x="333" y="30" type="curve" smooth="yes"/>
			<point x="333" y="34"/>
			<point x="328" y="34"/>
			<point x="325" y="34" type="curve" smooth="yes"/>
			<point x="322" y="34"/>
			<point x="235" y="21"/>
			<point x="193" y="21" type="curve" smooth="yes"/>
			<point x="117" y="21"/>
			<point x="71" y="30"/>
			<point x="22" y="30" type="curve" smooth="yes"/>
			<point x="-4" y="30"/>
			<point x="-40" y="24"/>
		</contour>
	</outline>
</glyph>
